<svg width="160" height="160" viewBox="0 0 160 160" fill="none" xmlns="http://www.w3.org/2000/svg">
<mask id="mask0" mask-type="alpha" maskUnits="userSpaceOnUse" x="11" y="10" width="138" height="138">
<path d="M11 79.2254C11 99.2238 50.5084 147.555 79.5679 147.555C108.629 147.555 146.143 99.4894 148.89 79.2241C151.639 58.9587 102.173 10.8933 79.5679 10.8933C56.9637 10.8933 11 59.2257 11 79.2254Z" fill="white"/>
</mask>
<g mask="url(#mask0)">
<path d="M11 79.2254C11 99.2238 50.5084 147.555 79.5679 147.555C108.629 147.555 146.143 99.4894 148.89 79.2241C151.639 58.9587 102.173 10.8933 79.5679 10.8933C56.9637 10.8933 11 59.2257 11 79.2254Z" fill="url(#paint0_linear)"/>
<path d="M75.0471 99.1604H90.1166V137.438H75.0471V99.1604Z" fill="url(#paint1_linear)"/>
<path d="M97.6523 91.6554H112.722V144.944H97.6523V91.6554Z" fill="url(#paint2_linear)"/>
<path d="M120.258 76.6442H135.327V152.449H120.258V76.6442Z" fill="url(#paint3_linear)"/>
<path fill-rule="evenodd" clip-rule="evenodd" d="M45.4124 136.688H113.211L79.568 152.08L45.4124 136.688Z" fill="#203340"/>
<mask id="mask1" mask-type="alpha" maskUnits="userSpaceOnUse" x="112" y="79" width="43" height="28">
<path d="M145.757 79.5675H121.138C116.128 79.5675 112.067 83.6284 112.067 88.6377V97.7078C112.067 102.717 116.128 106.778 121.138 106.778H145.757C150.766 106.778 154.827 102.717 154.827 97.7078V88.6377C154.827 83.6284 150.766 79.5675 145.757 79.5675Z" fill="white"/>
</mask>
<g mask="url(#mask1)">
<path d="M145.757 79.5675H121.138C116.128 79.5675 112.067 83.6284 112.067 88.6377V97.7078C112.067 102.717 116.128 106.778 121.138 106.778H145.757C150.766 106.778 154.827 102.717 154.827 97.7078V88.6377C154.827 83.6284 150.766 79.5675 145.757 79.5675Z" fill="url(#paint4_linear)"/>
<path opacity="0.4" d="M110.567 76.6338L152.505 77.6639L112.068 110.411L110.567 76.6338Z" fill="url(#paint5_linear)"/>
<path fill-rule="evenodd" clip-rule="evenodd" d="M128.593 88.1323V97.9126C128.593 98.6291 129.174 99.2083 129.889 99.2083C130.127 99.2083 130.361 99.1435 130.563 99.0204L138.596 94.1303C139.207 93.7584 139.4 92.9603 139.029 92.35C138.92 92.1724 138.773 92.0247 138.595 91.9159L130.563 87.0271C129.952 86.6552 129.154 86.8483 128.782 87.4598C128.659 87.6633 128.593 87.8952 128.593 88.1336V88.1323Z" fill="white"/>
</g>
<path opacity="0.4" fill-rule="evenodd" clip-rule="evenodd" d="M107.12 111.702L107.46 107.761C107.658 105.459 109.585 103.693 111.894 103.693H112.56C114.516 103.693 116.174 102.243 116.434 100.302C116.693 98.3622 118.351 96.9135 120.308 96.9135H124.549C126.983 96.9135 129.134 95.3327 129.859 93.0095C130.59 90.6707 132.718 89.0484 135.167 88.9603L146.432 88.556L144.921 102.923H125.796C123.974 102.923 122.353 104.075 121.753 105.793C121.153 107.513 119.531 108.663 117.71 108.663H113.166C112.071 108.663 111.059 109.241 110.501 110.182C109.944 111.124 108.931 111.701 107.837 111.701H107.12V111.702Z" fill="url(#paint6_linear)"/>
<mask id="mask2" mask-type="alpha" maskUnits="userSpaceOnUse" x="79" y="22" width="66" height="44">
<path d="M135.391 22.5549H88.7442C83.7349 22.5549 79.6741 26.6158 79.6741 31.6251V56.2441C79.6741 61.2535 83.7349 65.3143 88.7442 65.3143H135.391C140.4 65.3143 144.461 61.2535 144.461 56.2441V31.6251C144.461 26.6158 140.4 22.5549 135.391 22.5549Z" fill="white"/>
</mask>
<g mask="url(#mask2)">
<path d="M135.391 22.5549H88.7442C83.7349 22.5549 79.6741 26.6158 79.6741 31.6251V56.2441C79.6741 61.2535 83.7349 65.3143 88.7442 65.3143H135.391C140.4 65.3143 144.461 61.2535 144.461 56.2441V31.6251C144.461 26.6158 140.4 22.5549 135.391 22.5549Z" fill="url(#paint7_linear)"/>
<path d="M145.28 21.6558L88.8207 70.1773L73.8472 71.0092L77.4104 21.6558H145.28Z" fill="url(#paint8_linear)"/>
</g>
<path fill-rule="evenodd" clip-rule="evenodd" d="M123.215 32.9467L122.8 32.9558C121.591 33.0076 120.438 33.2836 119.376 33.7488C119.376 33.7488 116.923 34.1543 112.663 39.7934L112.376 40.1562C108.923 35.3516 105.79 33.9703 105.291 33.776L105.103 33.6982C103.984 33.2266 102.764 32.9597 101.487 32.9467C95.9488 32.8884 91.3748 37.6295 91.336 43.4759C91.2958 49.3715 95.8101 54.1631 101.384 54.1631L101.799 54.1541C103.008 54.1022 104.161 53.8262 105.224 53.3624C105.224 53.3624 107.724 52.9477 112.06 47.1545L112.042 47.1804L112.14 47.3061C116.175 52.3659 119.376 53.3624 119.376 53.3624C120.559 53.8794 121.856 54.1631 123.215 54.1631C128.765 54.1631 133.263 49.4129 133.263 43.5549C133.263 37.6969 128.765 32.9467 123.215 32.9467ZM106.474 47.3035C105.069 48.8597 103.471 50.0608 101.343 50.0608C97.939 50.0608 95.1804 47.148 95.1804 43.5562C95.1804 39.9631 97.9377 37.0516 101.34 37.049C103.241 37.049 104.751 38.1284 106.136 39.4332C108.248 41.4208 109.852 43.3722 109.852 43.3722C109.852 43.3722 107.636 46.0155 106.474 47.3048V47.3035ZM123.26 50.0608C121.358 50.0608 119.849 48.9815 118.464 47.6767C116.351 45.689 114.747 43.7376 114.747 43.7376C114.747 43.7376 116.963 41.0943 118.125 39.805C119.53 38.2502 121.129 37.049 123.256 37.049C126.66 37.049 129.419 39.9618 129.419 43.5549C129.419 47.1467 126.662 50.0595 123.26 50.0595V50.0608Z" fill="white"/>
<path d="M114.747 43.7376C114.747 43.7376 115.212 44.3038 115.973 45.137L113.281 48.6588C112.911 48.2442 112.53 47.7946 112.141 47.3061L112.041 47.1791L112.06 47.1532L114.747 43.7376ZM109.852 43.3709C109.852 43.3709 109.402 42.8254 108.666 42.0169L111.273 38.7192C111.635 39.161 112.003 39.6392 112.374 40.1575L109.853 43.3709H109.852ZM126.453 33.509C129.601 35.2984 131.742 38.8125 131.742 42.8539C131.742 48.7132 127.244 53.4621 121.695 53.4621C120.456 53.4621 119.269 53.2263 118.173 52.7922C118.933 53.2237 119.375 53.3623 119.375 53.3623C120.558 53.878 121.855 54.1631 123.215 54.1631C128.764 54.1631 133.263 49.4129 133.263 43.5549C133.263 38.8915 130.412 34.9318 126.453 33.509Z" fill="#CEEFE5"/>
<path fill-rule="evenodd" clip-rule="evenodd" d="M119.736 118.745H122.583C125.087 118.745 127.116 120.79 127.116 123.313C127.116 125.836 125.087 127.88 122.583 127.88H114.938V130.958H122.583C126.773 130.958 130.17 127.534 130.17 123.313C130.17 119.091 126.773 115.668 122.583 115.668H119.736V118.745Z" fill="#2F0907"/>
<mask id="mask3" mask-type="alpha" maskUnits="userSpaceOnUse" x="88" y="111" width="35" height="26">
<path d="M88.0278 111.961H122.856L118.945 125.764C117.156 132.081 111.389 136.441 104.824 136.441C98.3264 136.441 92.6847 131.962 91.2115 125.634L88.0278 111.961Z" fill="white"/>
</mask>
<g mask="url(#mask3)">
<path d="M88.0278 111.961H122.856L118.945 125.764C117.156 132.081 111.389 136.441 104.824 136.441C98.3264 136.441 92.6847 131.962 91.2115 125.634L88.0278 111.961Z" fill="url(#paint9_linear)"/>
<path d="M97.7393 109.499L99.2709 120.308C100.226 127.052 104.142 133.019 109.948 136.58L97.7393 137.666C90.8784 128.681 87.4486 123.987 87.4486 123.582C87.4486 123.179 87.1946 118.485 86.6841 109.499H97.7393Z" fill="url(#paint10_linear)"/>
<path fill-rule="evenodd" clip-rule="evenodd" d="M86.6855 116.438H124.1V129.517H86.6855V116.438Z" fill="#2F0907" fill-opacity="0.426"/>
</g>
<path d="M61.5336 61.427H33.0274C28.7337 61.427 25.2529 64.9077 25.2529 69.2014V128.805C25.2529 133.099 28.7337 136.58 33.0274 136.58H61.5336C65.8273 136.58 69.308 133.099 69.308 128.805V69.2014C69.308 64.9077 65.8273 61.427 61.5336 61.427Z" fill="#080C10"/>
<path d="M62.8296 61.427H36.9148C32.6211 61.427 29.1404 64.9077 29.1404 69.2014V128.805C29.1404 133.099 32.6211 136.58 36.9148 136.58H62.8296C67.1233 136.58 70.604 133.099 70.604 128.805V69.2014C70.604 64.9077 67.1233 61.427 62.8296 61.427Z" fill="#115B79"/>
<path fill-rule="evenodd" clip-rule="evenodd" d="M31.7317 65.3143H41.4368C42.5032 65.3143 43.5294 65.7134 44.3146 66.4313C45.1011 67.1504 46.1286 67.5482 47.1924 67.5482H52.2743C53.4003 67.5482 54.49 67.153 55.353 66.4313C56.216 65.7095 57.3057 65.3143 58.4304 65.3143H68.0124V130.101H31.7317V65.3143Z" fill="white"/>
<path fill-rule="evenodd" clip-rule="evenodd" d="M48.1213 76.4357H62.8293V78.7032H48.1213V76.4357ZM48.1213 80.2153H55.4759V82.4829H48.1213V80.2153Z" fill="#D4D8DC"/>
<path d="M40.0309 84.7503C42.4676 84.7503 44.4429 82.7199 44.4429 80.2153C44.4429 77.7106 42.4676 75.6802 40.0309 75.6802C37.5942 75.6802 35.6189 77.7106 35.6189 80.2153C35.6189 82.7199 37.5942 84.7503 40.0309 84.7503Z" fill="#0EB37E"/>
<path d="M38.3529 79.7619L37.175 80.6689L38.5796 82.5931C38.8543 82.9688 39.3946 82.9986 39.7069 82.654L42.8102 79.2177L41.7322 78.1888L39.2262 80.9617L38.3503 79.7619H38.3529Z" fill="white"/>
<path fill-rule="evenodd" clip-rule="evenodd" d="M48.1213 95.8718H62.8293V98.1394H48.1213V95.8718ZM48.1213 99.6515H55.4759V101.919H48.1213V99.6515Z" fill="#D4D8DC"/>
<path d="M40.0309 104.187C42.4676 104.187 44.4429 102.156 44.4429 99.6514C44.4429 97.1468 42.4676 95.1163 40.0309 95.1163C37.5942 95.1163 35.6189 97.1468 35.6189 99.6514C35.6189 102.156 37.5942 104.187 40.0309 104.187Z" fill="#0EB37E"/>
<path d="M38.3529 99.198L37.175 100.105L38.5796 102.029C38.8543 102.405 39.3946 102.435 39.7069 102.09L42.8102 98.6538L41.7322 97.625L39.2262 100.398L38.3503 99.198H38.3529Z" fill="white"/>
<path fill-rule="evenodd" clip-rule="evenodd" d="M48.1213 115.308H62.8293V117.576H48.1213V115.308ZM48.1213 119.088H55.4759V121.355H48.1213V119.088Z" fill="#D4D8DC"/>
<path d="M40.0309 123.623C42.4676 123.623 44.4429 121.592 44.4429 119.087C44.4429 116.583 42.4676 114.552 40.0309 114.552C37.5942 114.552 35.6189 116.583 35.6189 119.087C35.6189 121.592 37.5942 123.623 40.0309 123.623Z" fill="#0EB37E"/>
<path d="M38.3529 118.634L37.175 119.541L38.5796 121.465C38.8543 121.841 39.3946 121.871 39.7069 121.526L42.8102 118.09L41.7322 117.061L39.2262 119.834L38.3503 118.634H38.3529Z" fill="white"/>
<path d="M73.1953 94.4684C85.3608 94.4684 95.2228 84.6064 95.2228 72.4409C95.2228 60.2754 85.3608 50.4133 73.1953 50.4133C61.0298 50.4133 51.1677 60.2754 51.1677 72.4409C51.1677 84.6064 61.0298 94.4684 73.1953 94.4684Z" fill="url(#paint11_linear)"/>
<path d="M79.5355 78.3183C80.0045 77.8415 80.0045 77.0977 79.5355 76.6209C77.8381 74.8963 75.5964 73.9672 73.1954 73.9672C70.7957 73.9672 68.5515 74.8963 66.8554 76.6209C66.3863 77.0977 66.3863 77.8415 66.8554 78.3183C67.3257 78.7965 68.0565 78.7965 68.5256 78.3183C69.7773 77.0446 71.4475 76.3553 73.2213 76.3553C74.9965 76.3553 76.6654 77.0446 77.9171 78.3183C78.1529 78.5567 78.4393 78.663 78.7528 78.663C79.012 78.663 79.3269 78.5567 79.5355 78.3183ZM75.9864 80.2555C74.4471 78.6902 71.9437 78.6902 70.4044 80.2555L71.6302 81.502C72.4905 82.3779 73.9003 82.3779 74.7607 81.502L75.9864 80.2555ZM85.6138 71.6595C85.3002 71.6595 85.0139 71.5533 84.7793 71.3149C81.7007 68.1571 77.5789 66.4066 73.1954 66.4066C68.8119 66.4066 64.6902 68.1299 61.6115 71.2876C61.1425 71.7658 60.4117 71.7658 59.9426 71.2876C59.4723 70.8108 59.4723 70.0671 59.9426 69.5902C63.4903 65.9816 68.1861 64.0186 73.1954 64.0186C78.2048 64.0186 82.9005 66.0088 86.4482 69.5902C86.9186 70.0671 86.9186 70.8108 86.4482 71.2876C86.2137 71.5274 85.9274 71.6595 85.6138 71.6595Z" fill="white"/>
<path d="M83.0042 74.816C83.4745 74.3392 83.4745 73.5967 83.0042 73.1186C80.3959 70.4662 76.9013 68.98 73.1954 68.98C69.4896 68.98 66.0209 70.439 63.3867 73.1186C62.9163 73.5967 62.9163 74.3392 63.3867 74.816C63.8558 75.2941 64.5866 75.2941 65.0556 74.816C67.2208 72.6145 70.1168 71.3952 73.1954 71.3952C76.2741 71.3952 79.1688 72.6145 81.3353 74.816C81.5698 75.0557 81.8575 75.162 82.1697 75.162C82.4574 75.162 82.7697 75.0557 83.0042 74.816Z" fill="white"/>
</g>
<defs>
<linearGradient id="paint0_linear" x1="11" y1="12.2107" x2="147.681" y2="147.569" gradientUnits="userSpaceOnUse">
<stop stop-color="#CFDEE4"/>
<stop offset="1" stop-color="#F3F3F3"/>
</linearGradient>
<linearGradient id="paint1_linear" x1="81.414" y1="99.1604" x2="94.6949" y2="132.892" gradientUnits="userSpaceOnUse">
<stop stop-color="#6ED1B1"/>
<stop offset="1" stop-color="#FFCB99"/>
</linearGradient>
<linearGradient id="paint2_linear" x1="104.584" y1="91.6554" x2="118.544" y2="141.013" gradientUnits="userSpaceOnUse">
<stop stop-color="#6ED1B1"/>
<stop offset="1" stop-color="#FFCB99"/>
</linearGradient>
<linearGradient id="paint3_linear" x1="127.495" y1="76.6442" x2="141.926" y2="149.24" gradientUnits="userSpaceOnUse">
<stop stop-color="#6ED1B1"/>
<stop offset="1" stop-color="#FFCB99"/>
</linearGradient>
<linearGradient id="paint4_linear" x1="112.067" y1="87.6632" x2="147.493" y2="110.207" gradientUnits="userSpaceOnUse">
<stop stop-color="#080C10"/>
<stop offset="1" stop-color="#115B79"/>
</linearGradient>
<linearGradient id="paint5_linear" x1="116.767" y1="84.5228" x2="133.398" y2="108.074" gradientUnits="userSpaceOnUse">
<stop stop-color="#095269"/>
<stop offset="1" stop-color="#3594B1"/>
</linearGradient>
<linearGradient id="paint6_linear" x1="144.956" y1="98.6784" x2="118.618" y2="109.647" gradientUnits="userSpaceOnUse">
<stop stop-color="#FFF3E8" stop-opacity="0"/>
<stop offset="1" stop-color="#FDE3CC"/>
</linearGradient>
<linearGradient id="paint7_linear" x1="79.6741" y1="53.2476" x2="133.366" y2="17.811" gradientUnits="userSpaceOnUse">
<stop stop-color="#2BADB4"/>
<stop offset="1" stop-color="#6ED1B1"/>
</linearGradient>
<linearGradient id="paint8_linear" x1="118.083" y1="48.7829" x2="81.0676" y2="23.8382" gradientUnits="userSpaceOnUse">
<stop stop-color="#2BADB4"/>
<stop offset="1" stop-color="#6ED1B1"/>
</linearGradient>
<linearGradient id="paint9_linear" x1="88.0278" y1="118.154" x2="117.029" y2="138.538" gradientUnits="userSpaceOnUse">
<stop stop-color="#284050"/>
<stop offset="1" stop-color="#0EB37E"/>
</linearGradient>
<linearGradient id="paint10_linear" x1="90.3811" y1="109.499" x2="110.646" y2="134.035" gradientUnits="userSpaceOnUse">
<stop stop-color="#284050"/>
<stop offset="1" stop-color="#0EB37E"/>
</linearGradient>
<linearGradient id="paint11_linear" x1="51.1677" y1="50.4133" x2="95.2228" y2="94.4684" gradientUnits="userSpaceOnUse">
<stop stop-color="#F8091E"/>
<stop offset="1" stop-color="#A9085A"/>
</linearGradient>
</defs>
</svg>
