<svg width="100" height="100" viewBox="0 0 100 100" fill="none" xmlns="http://www.w3.org/2000/svg">
<path d="M69.7303 37.4824C69.7303 37.4824 70.1954 37.7059 71.0164 39.201C71.6094 40.2821 71.3899 41.1857 71.2013 41.5877C71.0518 41.9052 70.5905 41.7312 70.3194 41.2709C69.2866 39.5143 69.6359 37.8221 68.3667 36.6778C68.3456 36.6591 68.3267 36.6402 68.3048 36.6221C67.3911 35.8393 64.3033 35.8326 63.123 35.8779L62.9902 35.8843C62.34 35.9156 61.4392 36.0139 60.7478 36.1264C61.16 35.067 61.6568 33.9523 62.3545 33.1779C62.9985 32.463 65.9135 28.4305 70.6624 29.852C70.6624 29.852 65.9144 33.5347 67.9108 34.28C68.8689 34.6376 69.7944 30.984 71.402 30.2884C73.0693 29.539 78.1818 30.1743 78.8824 31.4617C78.8824 31.4617 72.992 35.3464 75.5459 37.0558C76.9973 38.0273 77.3975 32.4367 79.8608 31.7913C81.2344 31.4306 85.7274 32.6181 87.3737 34.4017C87.3737 34.4017 82.844 34.8821 82.3175 36.3702C81.4585 38.8526 85.823 35.8943 86.2853 35.6396C87.9722 34.4971 89.1101 35.2105 90.5463 36.754C91.2915 37.5276 96.8135 42.1981 96.4457 42.7322C95.3699 43.4374 91.3032 44.0813 90.3037 43.8462C89.4624 43.6679 84.8342 41.3432 86.3357 42.5157C86.9034 42.9581 89.1573 43.3551 89.9494 44.1076C90.4946 44.6254 86.7203 43.2199 85.9642 42.8835C82.0371 39.8483 76.0783 38.1475 72.8125 37.3841C71.3452 37.0476 69.6115 36.5225 69.7303 37.4824Z" fill="url(#paint0_linear)"/>
<path d="M54.1396 42.4348C54.2815 44.1715 54.2539 46.3313 55.0879 47.7416C55.9023 49.1336 57.5761 49.4968 59.382 49.4732C60.3064 49.4617 61.2625 49.35 62.1586 49.2216C62.3436 49.0176 62.5328 48.8203 62.7251 48.6318C64.6846 46.714 67.1054 45.5232 70.1443 44.1609C71.9604 43.3479 74.4527 42.1432 76.4323 41.9804C78.4647 41.7269 81.1194 41.9312 81.6382 41.9784C83.8325 42.1838 86.0423 43.0292 86.0423 43.0292C82.0895 39.9548 76.1016 38.2168 72.8219 37.4349C71.3479 37.0895 69.606 36.5531 69.7286 37.5212C69.7286 37.5212 70.1967 37.7476 71.0259 39.2576C71.6258 40.3497 71.4094 41.2584 71.221 41.6627C71.0726 41.9818 70.6092 41.8045 70.3354 41.3399C69.292 39.5664 69.6362 37.862 68.3562 36.7044L68.2952 36.6482C67.3752 35.8552 64.2764 35.8365 63.0912 35.8778L62.9578 35.8833C62.3055 35.9113 61.4018 36.0067 60.7084 36.118L60.6783 36.1227C59.4268 36.3505 58.1815 36.756 57.2682 37.4494C55.9893 38.3806 55.6382 39.3982 56.0129 40.0638C57.6191 40.4245 58.7365 40.7993 59.6933 41.2379C60.4628 41.5919 61.1285 41.9873 61.8586 42.4519C62.3271 42.7488 63.2969 43.829 60.9906 43.5179C60.6084 43.4667 59.9043 43.2192 59.3215 42.9395C59.0014 42.7858 58.7199 42.6221 58.5466 42.4768C57.3773 41.5189 55.2476 40.4489 55.2476 40.4489C53.8623 39.6377 54.0097 40.838 54.1396 42.4348Z" fill="url(#paint1_linear)"/>
<path d="M56.2095 33.338C56.2095 33.338 56.7021 33.1843 58.3222 33.7178C59.4931 34.104 59.9489 34.9146 60.0851 35.3372C60.1923 35.6714 59.7363 35.8587 59.2241 35.707C57.2707 35.1266 56.3721 33.6508 54.6634 33.6795C54.6353 33.6803 54.6086 33.6793 54.5802 33.681C53.3781 33.7316 51.1153 35.8326 50.283 36.6707L50.1902 36.7659C49.736 37.2323 49.1442 37.9185 48.7153 38.4723C48.2942 37.4164 47.8974 36.2624 47.8795 35.2202C47.863 34.2581 47.2447 29.3209 51.6873 27.1218C51.6873 27.1218 50.7264 33.0532 52.6947 32.2368C53.6394 31.845 51.8245 28.5417 52.5258 26.9365C53.2341 25.2514 57.4064 22.2293 58.7968 22.693C58.7968 22.693 57.1382 29.5514 60.1718 29.0598C61.8958 28.7805 58.3758 24.4188 59.7371 22.2668C60.4957 21.0662 64.5916 18.8705 67.012 19.0522C67.012 19.0522 64.0268 22.4928 64.6567 23.9401C65.7214 26.3415 66.8958 21.2013 67.0602 20.6998C67.5148 18.7137 68.8335 18.4594 70.9365 18.6088C72.0092 18.6664 79.233 18.3161 79.3282 18.9576C79.0224 20.207 76.4873 23.4514 75.596 23.9611C74.8591 24.4045 69.8889 25.8607 71.7866 25.6942C72.5035 25.6306 74.4226 24.3838 75.5152 24.394C76.2671 24.4008 72.5482 25.947 71.7657 26.2166C66.8236 26.6751 61.3058 29.4951 58.3967 31.164C57.094 31.9186 55.468 32.717 56.2095 33.338Z" fill="url(#paint2_linear)"/>
<path d="M48.1823 47.5393C49.4705 48.7127 50.9226 50.3099 52.4935 50.7723C54.0384 51.2349 55.5102 50.359 56.8159 49.1104C57.483 48.4712 58.1062 47.7375 58.674 47.0325C58.6701 46.7571 58.6747 46.485 58.686 46.2147C58.8112 43.4758 59.7696 40.9539 61.0629 37.8851C61.8367 36.0519 62.8388 33.4713 64.1756 32.0022C65.4869 30.4311 67.5689 28.7693 67.9816 28.4503C69.7265 27.104 71.9192 26.2152 71.9192 26.2152C66.9312 26.6635 61.3659 29.4749 58.4341 31.1399C57.1206 31.8925 55.4817 32.6885 56.2307 33.3126C56.2307 33.3126 56.7274 33.1589 58.3637 33.6978C59.5472 34.0874 60.0097 34.8998 60.1476 35.3239C60.2567 35.6585 59.7965 35.8458 59.2788 35.6916C57.3062 35.1061 56.3955 33.6249 54.6699 33.6512L54.5869 33.6517C53.3733 33.6992 51.0951 35.7992 50.2565 36.6377L50.1618 36.7324C49.7047 37.1979 49.1088 37.8841 48.6777 38.4384L48.6588 38.4623C47.898 39.4822 47.2647 40.6283 47.0696 41.7583C46.7682 43.3123 47.2057 44.295 47.9346 44.5265C49.3553 43.6949 50.4272 43.2067 51.427 42.8752C52.2303 42.609 52.9865 42.4451 53.8377 42.286C54.3837 42.1838 55.8287 42.3122 53.9308 43.6578C53.6163 43.8811 52.9316 44.18 52.3156 44.3732C51.9766 44.4791 51.6589 44.5523 51.4324 44.5631C49.9256 44.6614 47.6385 45.3303 47.6385 45.3303C46.0712 45.6816 46.9973 46.4598 48.1826 47.5383" fill="url(#paint3_linear)"/>
<mask id="mask0" mask-type="alpha" maskUnits="userSpaceOnUse" x="6" y="20" width="78" height="72">
<path d="M48.015 91.875C71.041 91.875 83.125 82.229 83.125 67.759C83.125 44.119 66.285 49.642 56.795 42.054C49.644 36.338 48.014 20 32.03 20C15.323 20 5.28504 30.583 6.32404 50.476C7.36304 70.369 24.99 91.875 48.015 91.875Z" fill="white"/>
</mask>
<g mask="url(#mask0)">
<path d="M48.015 91.875C71.041 91.875 83.125 82.229 83.125 67.759C83.125 44.119 66.285 49.642 56.795 42.054C49.644 36.338 48.014 20 32.03 20C15.323 20 5.28504 30.583 6.32404 50.476C7.36304 70.369 24.99 91.875 48.015 91.875Z" fill="url(#paint4_linear)"/>
<path d="M25.625 48.125H66.875V95.625H25.625V48.125Z" fill="url(#paint5_radial)"/>
<path d="M17.0498 83.4562C17.2503 83.426 18.1281 83.5949 18.3046 83.7166C18.7024 84.0575 18.4994 84.4647 17.9726 84.6528C17.2003 84.9292 15.9523 83.7765 17.0502 83.4553L17.0498 83.4562ZM19.2705 81.118C19.3105 80.7281 19.7394 80.7315 20.0405 81.0586C20.4808 81.5381 20.1559 82.7793 19.5684 82.0766C19.4772 81.9398 19.2712 81.2831 19.2705 81.118ZM19.2095 91.1273C18.5804 90.1407 20.5656 90.4914 20.9527 90.6602C21.6571 91.0683 19.6036 91.7612 19.2095 91.1273ZM23.1861 86.3367C23.2402 86.066 23.3353 85.6818 23.468 85.3983C23.6084 84.9461 24.0559 83.6523 24.5172 83.539C25.2847 83.3593 25.205 84.581 24.9118 85.0499C24.5553 85.5915 23.8535 86.67 23.3247 86.9261L23.3189 86.9288C23.0728 87.0091 23.1146 86.7068 23.1861 86.3367ZM27.2173 87.9557C27.4533 87.49 28.0901 86.4788 28.6971 86.2608C29.852 85.9118 29.8623 87.0562 29.4043 87.6416C28.9415 88.3761 27.9968 88.9011 27.3251 89.409L27.314 89.4181C25.8449 90.5596 26.8083 88.6986 27.2173 87.9557ZM18.2803 87.8748C19.6556 88.1461 20.2996 88.3267 20.2238 88.7626C20.1282 89.3123 17.7371 89.2075 15.996 88.5686C14.2544 87.9284 10.7213 87.2065 10.7213 87.2065C10.7213 87.2065 10.0606 89.5122 11.2887 91.5543C11.8062 92.4141 14.8391 94.3418 16.6729 94.8545C18.5058 95.3669 21.7725 94.0551 22.4289 93.9503C23.0848 93.8441 23.6658 94.6603 22.8275 95.1404C19.87 96.8311 14.007 95.3634 14.007 95.3634C14.007 95.3634 13.0534 96.0754 14.0904 97.4713C14.6203 98.187 18.3476 103.267 23.7601 103.183C27.8454 103.12 28.8203 95.0872 28.8203 95.0872C28.8825 94.2274 28.5876 92.7562 32.1367 93.1944C35.6858 93.6326 38.8839 92.3108 40.1978 90.3537C41.5117 88.3966 39.743 85.8227 39.743 85.8227C37.0902 85.9307 34.808 88.5204 33.8964 89.3241C32.9844 90.1265 32.8471 88.4118 33.7138 87.6318C34.5809 86.8509 39.0935 85.813 39.3196 84.4302C39.5453 83.0483 35.4289 78.3736 34.6098 79.3048C33.6752 80.3655 32.0903 82.1848 31.4803 83.6909C30.9577 84.9791 29.8819 84.7782 29.8782 83.4991C29.8741 82.221 31.9918 81.8575 33.9072 79.2603C35.8226 76.6631 25.6887 72.2634 25.8649 73.3574C26.0412 74.4514 25.7437 75.3967 25.8856 76.2714C26.0262 77.1466 25.2264 83.5289 24.1333 81.9399C23.3125 80.7463 23.9168 78.8436 24.7497 75.7763C25.3841 73.4444 23.7488 72.2396 22.9535 72.0498C21.9466 71.8102 18.4277 71.0774 18.5319 71.3063C18.6362 71.5373 20.0219 76.094 19.5764 77.085C19.13 78.0778 18.3586 75.2271 18.4379 74.7428C18.5172 74.2586 17.6701 72.3456 16.839 71.7845C16.0069 71.2229 11.9771 71.0154 11.9092 71.4306C11.8413 71.8459 10.9508 74.0707 10.7916 75.4328C10.7142 76.1026 10.8276 78.2607 11.9652 79.017C12.6094 79.4458 17.9422 81.4326 17.7503 82.6084C17.5579 83.783 11.308 79.3996 11.044 79.7103C10.7806 80.0224 9.56691 83.8475 10.2029 85.3493C10.8637 86.9099 17.5118 87.7236 18.2803 87.8748Z" fill="url(#paint6_linear)"/>
<path d="M60.1052 94.5051C59.9392 94.6191 59.0752 94.8511 58.8632 94.8201C58.3572 94.6881 58.3602 94.2331 58.7512 93.8321C59.3242 93.2461 60.9512 93.7341 60.1052 94.5051ZM59.1342 97.5791C59.2702 97.9471 58.8822 98.1321 58.4682 97.9691C57.8622 97.7321 57.6102 96.4741 58.4462 96.8491C58.5882 96.9311 59.0612 97.4311 59.1342 97.5791ZM54.8012 88.5561C55.8002 89.1671 53.8612 89.7221 53.4392 89.7401C52.6272 89.6821 54.1692 88.1591 54.8012 88.5561ZM53.3272 94.6041C53.3982 94.8711 53.4812 95.2591 53.4852 95.5721C53.5582 96.0401 53.7222 97.3991 53.3582 97.7031C52.7462 98.2011 52.2822 97.0671 52.3402 96.5181C52.4232 95.8751 52.5812 94.5981 52.9442 94.1361L52.9482 94.1311C53.1352 93.9511 53.2292 94.2411 53.3272 94.6041ZM48.9942 94.9171C48.9872 95.4391 48.8572 96.6261 48.4072 97.0891C47.5222 97.9091 47.0122 96.8851 47.1672 96.1581C47.2602 95.2941 47.8792 94.4091 48.2602 93.6571L48.2662 93.6451C49.0862 91.9751 49.0362 94.0701 48.9942 94.9171ZM57.0632 91.0721C55.7072 91.4301 55.0502 91.5511 54.9262 91.1261C54.7712 90.5901 56.9662 89.6361 58.8122 89.4471C60.6572 89.2591 64.1492 88.3591 64.1492 88.3591C64.1492 88.3591 63.7322 85.9971 61.7332 84.7001C60.8912 84.1541 57.3202 83.7511 55.4482 84.0931C53.5752 84.4361 51.2142 87.0481 50.6712 87.4301C50.1272 87.8131 49.2472 87.3341 49.7912 86.5351C51.7072 83.7191 57.6212 82.4681 57.6212 82.4681C57.6212 82.4681 58.1652 81.4101 56.6212 80.6101C55.8312 80.1991 50.2542 77.2671 45.4272 79.7151C41.7822 81.5631 44.4272 89.2101 44.4272 89.2101C44.7482 90.0101 45.6592 91.2031 42.2772 92.3651C38.8942 93.5271 36.6002 96.1171 36.2772 98.4521C35.9542 100.787 38.6712 102.325 38.6712 102.325C41.0092 101.065 41.9242 97.7371 42.3922 96.6151C42.8602 95.4941 43.7342 96.9741 43.2982 98.0561C42.8612 99.1381 39.2592 102.048 39.6622 103.39C40.0652 104.732 45.8142 107.129 46.1422 105.933C46.5172 104.57 47.1452 102.24 47.0322 100.619C46.9372 99.2321 47.9922 98.9411 48.5562 100.089C49.1202 101.235 47.3762 102.491 46.7932 105.665C46.2102 108.839 57.2472 108.351 56.6102 107.445C55.9722 106.539 55.8242 105.559 55.3142 104.835C54.8032 104.11 52.7242 98.0231 54.4032 98.9721C55.6642 99.6851 55.9552 101.66 56.5512 104.782C57.0032 107.156 59.0012 107.522 59.7992 107.344C60.8092 107.118 64.2932 106.234 64.0992 106.074C63.9042 105.912 60.6612 102.424 60.6282 101.338C60.5942 100.25 62.5362 102.474 62.6772 102.944C62.8182 103.414 64.4182 104.762 65.4122 104.902C66.4052 105.042 70.1182 103.462 69.9972 103.059C69.8772 102.656 69.7022 100.266 69.2472 98.9721C69.0232 98.3361 67.9752 96.4461 66.6212 96.2641C65.8542 96.1621 60.1902 96.7141 59.8482 95.5741C59.5052 94.4331 67.0442 95.6341 67.1452 95.2381C67.2452 94.8421 66.6602 90.8721 65.4292 89.8011C64.1512 88.6881 57.8192 90.8711 57.0632 91.0721Z" fill="url(#paint7_linear)"/>
<path d="M66.6494 82.2605C66.6494 82.2605 67.1619 82.3204 68.425 83.4668C69.3376 84.2958 69.4242 85.2217 69.3768 85.6632C69.3388 86.0121 68.846 85.9977 68.4398 85.6508C66.8914 84.3261 66.6707 82.6124 65.0981 81.9436C65.0721 81.9329 65.0481 81.9212 65.0215 81.9112C63.9027 81.4685 60.981 82.4674 59.8797 82.8945L59.7562 82.9438C59.1516 83.1851 58.3319 83.5713 57.7148 83.9028C57.7596 82.7668 57.8665 81.5512 58.274 80.5919C58.6502 79.7062 60.0936 74.9444 65.0465 74.7423C65.0465 74.7423 61.7562 79.7701 63.8864 79.8249C64.9087 79.8512 64.5943 76.0953 65.8879 74.9141C67.2204 73.6628 72.2612 72.599 73.3428 73.5881C73.3428 73.5881 69.038 79.179 72.0093 79.9638C73.6979 80.4098 72.2562 74.9935 74.3751 73.5813C75.5564 72.793 80.1913 72.4531 82.3286 73.6035C82.3286 73.6035 78.202 75.5325 78.1888 77.1109C78.1847 79.7377 81.3483 75.5196 81.7025 75.1283C82.9255 73.4988 84.2337 73.8029 86.0941 74.7947C87.0506 75.2836 93.7924 77.9018 93.6184 78.5265C92.8309 79.5436 89.1953 81.4764 88.1738 81.5795C87.3203 81.6848 82.1874 80.9936 83.9888 81.6134C84.6696 81.8468 86.9299 81.4884 87.9239 81.942C88.608 82.2541 84.5817 82.154 83.7572 82.0821C79.0559 80.4908 72.8681 80.8227 69.5317 81.1641C68.0348 81.3236 66.2246 81.3915 66.6494 82.2605Z" fill="url(#paint8_linear)"/>
<path d="M53.4963 91.9724C54.1959 93.5683 54.8727 95.6181 56.1213 96.6806C57.3445 97.7316 59.0446 97.5295 60.7452 96.9199C61.6154 96.608 62.4831 96.1912 63.2886 95.778C63.3963 95.5242 63.5118 95.2768 63.6322 95.0359C64.8606 92.5846 66.7611 90.67 69.1916 88.3931C70.6441 87.0332 72.6084 85.0826 74.4271 84.2843C76.2655 83.3822 78.8428 82.7117 79.3488 82.5874C81.4904 82.0673 83.8557 82.1464 83.8557 82.1464C79.1166 80.5272 72.8897 80.8326 69.5336 81.1618C68.0274 81.3152 66.2058 81.3751 66.6361 82.2499C66.6361 82.2499 67.1532 82.3122 68.4288 83.47C69.3515 84.3072 69.4429 85.2369 69.3963 85.6805C69.3599 86.0305 68.864 86.0137 68.4539 85.6636C66.8899 84.3264 66.6604 82.6028 65.0733 81.925L64.9973 81.8917C63.8693 81.4415 60.9332 82.4326 59.826 82.8576L59.7018 82.9062C59.0941 83.145 58.2706 83.5294 57.6513 83.8604L57.6243 83.8747C56.5152 84.4975 55.4698 85.2864 54.8319 86.2393C53.9259 87.5361 53.9253 88.6126 54.4962 89.12C56.1323 88.9381 57.3109 88.9287 58.3583 89.0319C59.2012 89.1161 59.9593 89.2732 60.801 89.4748C61.3406 89.6029 62.6092 90.3086 60.3273 90.7653C59.9492 90.8413 59.2029 90.8365 58.5608 90.7618C58.2081 90.7207 57.8886 90.6576 57.6775 90.5767C56.2594 90.0524 53.898 89.7332 53.898 89.7332C52.324 89.4173 52.8542 90.5041 53.4969 91.9716" fill="url(#paint9_linear)"/>
</g>
<path d="M38.75 58.125H45.625V65H38.75V58.125ZM49.375 58.125H56.25V65H49.375V58.125ZM38.75 68.125H45.625V75H38.75V68.125ZM49.375 68.125H56.25V75H49.375V68.125Z" fill="url(#paint10_linear)"/>
<path d="M12.7651 49.4601L45.5501 27.3451C45.9721 27.0611 46.5261 27.0611 46.9481 27.3451L79.7351 49.4601C80.3071 49.8461 80.4591 50.6231 80.0721 51.1961C79.8401 51.5401 79.4521 51.7461 79.0361 51.7461H13.4641C12.7741 51.7461 12.2141 51.1861 12.2141 50.4961C12.2141 50.0811 12.4201 49.6931 12.7641 49.4601H12.7651Z" fill="url(#paint11_linear)"/>
<defs>
<linearGradient id="paint0_linear" x1="72.2425" y1="37.2318" x2="99.4978" y2="43.717" gradientUnits="userSpaceOnUse">
<stop stop-color="#284050"/>
<stop offset="0.51386" stop-color="#0EB37E"/>
<stop offset="1" stop-color="#FFCB99"/>
</linearGradient>
<linearGradient id="paint1_linear" x1="53.7979" y1="45.6796" x2="82.8902" y2="47.1149" gradientUnits="userSpaceOnUse">
<stop stop-color="#284050"/>
<stop offset="1" stop-color="#0EB37E"/>
</linearGradient>
<linearGradient id="paint2_linear" x1="57.8758" y1="31.4414" x2="82.2321" y2="17.5963" gradientUnits="userSpaceOnUse">
<stop stop-color="#284050"/>
<stop offset="0.51386" stop-color="#0EB37E"/>
<stop offset="1" stop-color="#FFCB99"/>
</linearGradient>
<linearGradient id="paint3_linear" x1="50.1446" y1="50.1442" x2="72.4002" y2="31.3531" gradientUnits="userSpaceOnUse">
<stop stop-color="#284050"/>
<stop offset="1" stop-color="#0EB37E"/>
</linearGradient>
<linearGradient id="paint4_linear" x1="6.25049" y1="24.5231" x2="78.1766" y2="91.7701" gradientUnits="userSpaceOnUse">
<stop stop-color="#6ED1B1"/>
<stop offset="1" stop-color="#FFCB99"/>
</linearGradient>
<radialGradient id="paint5_radial" cx="0" cy="0" r="1" gradientUnits="userSpaceOnUse" gradientTransform="translate(-21.6515 80.2904) rotate(47.6401) scale(77.1275 90.8556)">
<stop stop-color="#470C08"/>
<stop offset="0.66884" stop-color="#B21F15"/>
<stop offset="1" stop-color="#BE3C1C"/>
</radialGradient>
<linearGradient id="paint6_linear" x1="34.454" y1="106.346" x2="16.8059" y2="64.8044" gradientUnits="userSpaceOnUse">
<stop stop-color="#284050"/>
<stop offset="0.51386" stop-color="#0EB37E"/>
<stop offset="1" stop-color="#FFCB99"/>
</linearGradient>
<linearGradient id="paint7_linear" x1="34.429" y1="81.56" x2="68.5016" y2="111.16" gradientUnits="userSpaceOnUse">
<stop stop-color="#284050"/>
<stop offset="0.51386" stop-color="#0EB37E"/>
<stop offset="1" stop-color="#FFCB99"/>
</linearGradient>
<linearGradient id="paint8_linear" x1="68.9431" y1="81.2056" x2="96.825" y2="78.4641" gradientUnits="userSpaceOnUse">
<stop stop-color="#284050"/>
<stop offset="0.51386" stop-color="#0EB37E"/>
<stop offset="1" stop-color="#FFCB99"/>
</linearGradient>
<linearGradient id="paint9_linear" x1="54.2302" y1="95.151" x2="82.2056" y2="87.0368" gradientUnits="userSpaceOnUse">
<stop stop-color="#284050"/>
<stop offset="1" stop-color="#0EB37E"/>
</linearGradient>
<linearGradient id="paint10_linear" x1="47.5" y1="64.6354" x2="47.5" y2="75" gradientUnits="userSpaceOnUse">
<stop stop-color="white"/>
<stop offset="1" stop-color="#9FBDC9"/>
</linearGradient>
<linearGradient id="paint11_linear" x1="43.6941" y1="40.6722" x2="44.0636" y2="37.7619" gradientUnits="userSpaceOnUse">
<stop stop-color="#470C08"/>
<stop offset="0.66884" stop-color="#B21F15"/>
<stop offset="1" stop-color="#BE3C1C"/>
</linearGradient>
</defs>
</svg>
