<svg width="160" height="160" viewBox="0 0 160 160" fill="none" xmlns="http://www.w3.org/2000/svg">
<path d="M134.767 73.6967C133.383 73.6967 132.12 73.23 131.083 72.1767C117.507 58.2533 99.3299 50.53 79.9999 50.53C60.6699 50.53 42.4932 58.1367 28.9166 72.06C26.8466 74.1633 23.6232 74.1633 21.5532 72.06C19.4832 69.9533 19.4832 66.6767 21.5532 64.57C37.1999 48.6567 57.9099 40 79.9999 40C102.09 40 122.8 48.7767 138.447 64.57C140.517 66.6767 140.517 69.9533 138.447 72.06C137.413 73.11 136.147 73.6967 134.767 73.6967ZM123.26 87.62C125.33 85.5133 125.33 82.2367 123.26 80.13C111.753 68.4333 96.3332 61.88 79.9999 61.88C63.6666 61.88 48.3599 68.3133 36.7399 80.13C34.6699 82.2367 34.6699 85.5133 36.7399 87.62C38.8099 89.7267 42.0332 89.7267 44.1066 87.62C53.6532 77.91 66.4232 72.5267 79.9999 72.5267C93.5766 72.5267 106.347 77.91 115.897 87.62C116.93 88.6733 118.197 89.14 119.577 89.14C120.843 89.14 122.223 88.6733 123.26 87.62ZM107.96 103.063C110.027 100.957 110.027 97.6833 107.96 95.5767C100.48 87.97 90.5832 83.8767 79.9999 83.8767C69.4166 83.8767 59.5199 87.97 52.0432 95.5767C49.9699 97.6833 49.9699 100.957 52.0432 103.063C54.1099 105.17 57.3332 105.17 59.4066 103.063C64.9266 97.4467 72.2899 94.4067 80.1166 94.4067C87.9399 94.4067 95.3032 97.4467 100.823 103.063C101.86 104.117 103.123 104.587 104.507 104.587C105.657 104.587 107.04 104.12 107.957 103.063H107.96ZM92.3099 111.607C85.5232 104.703 74.4766 104.703 67.6899 111.607L73.0966 117.107C76.8966 120.967 83.1066 120.967 86.9032 117.107L92.3099 111.607Z" fill="url(#paint0_linear)"/>
<defs>
<linearGradient id="paint0_linear" x1="20.0007" y1="62.2229" x2="119.489" y2="128.545" gradientUnits="userSpaceOnUse">
<stop stop-color="#6A120C"/>
<stop offset="0.43781" stop-color="#B21F15"/>
<stop offset="0.79575" stop-color="#EE4C24"/>
<stop offset="1" stop-color="#FF7E00"/>
</linearGradient>
</defs>
</svg>
