<svg width="100" height="100" viewBox="0 0 100 100" fill="none" xmlns="http://www.w3.org/2000/svg">
<g clip-path="url(#clip0)">
<mask id="mask0" mask-type="alpha" maskUnits="userSpaceOnUse" x="8" y="9" width="84" height="84">
<path d="M50 93C73.196 93 92 74.196 92 51C92 27.804 73.196 9 50 9C26.804 9 8 27.804 8 51C8 74.196 26.804 93 50 93Z" fill="white"/>
</mask>
<g mask="url(#mask0)">
<path d="M50 93C73.196 93 92 74.196 92 51C92 27.804 73.196 9 50 9C26.804 9 8 27.804 8 51C8 74.196 26.804 93 50 93Z" fill="url(#paint0_linear)"/>
<path d="M3.41211 64.2673L38.7674 28.912L88.972 79.1166L53.6167 114.472L3.41211 64.2673Z" fill="url(#paint1_linear)"/>
<path d="M0.375 97.5195L37.1446 60.75L39.973 63.5784L3.20343 100.348L0.375 97.5195Z" fill="#115B79"/>
<path d="M0.375 82.6536L37.1446 45.884L39.973 48.7124L3.20343 85.482L0.375 82.6536Z" fill="#115B79"/>
</g>
<g opacity="0.3" filter="url(#filter0_f)">
<path d="M65.375 61.376C79.3892 61.376 90.75 58.6055 90.75 55.188C90.75 51.7705 79.3892 49 65.375 49C51.3608 49 40 51.7705 40 55.188C40 58.6055 51.3608 61.376 65.375 61.376Z" fill="#062430"/>
</g>
<path opacity="0.4" d="M45.6999 47.76L52.9999 47L52.8129 54.607L40.8169 60L45.6999 47.76Z" fill="url(#paint2_linear)"/>
<path d="M81.3559 12L88.4259 19.071L53.0709 54.426L53.0529 54.408L52.9859 54.485C52.2299 55.241 50.1299 54.376 48.2259 52.55L48.0359 52.364C46.0829 50.411 45.1329 48.195 45.9139 47.414C45.9539 47.374 45.9989 47.338 46.0469 47.307L81.3559 12Z" fill="url(#paint3_linear)"/>
<path d="M83.3358 17.0642C85.2884 19.0168 87.5045 19.9665 88.2855 19.1855C89.0666 18.4044 88.1168 16.1884 86.1642 14.2357C84.2116 12.2831 81.9955 11.3334 81.2144 12.1144C80.4334 12.8955 81.3831 15.1115 83.3358 17.0642Z" fill="#182630"/>
<path d="M22.4129 67.2473L18.33 65.7044L22.4129 64.1629L23.9551 60.0793L25.4973 64.1629L29.5801 65.7044L25.4973 67.2473L23.9551 71.3294L22.4129 67.2473Z" stroke="#FFB166" stroke-width="0.625" stroke-linecap="round" stroke-linejoin="round"/>
<path d="M68.763 62.1662L67.4026 61.6514L68.763 61.138L69.2771 59.7769L69.7912 61.138L71.1516 61.6514L69.7912 62.1662L69.2771 63.5259L68.763 62.1662Z" stroke="#FFB166" stroke-width="0.625" stroke-linecap="round" stroke-linejoin="round"/>
<path d="M41.1758 10.4852L40.3853 10.6705L41.0351 10.1847L40.3103 9.81915L41.1214 9.86511L40.8011 9.11911L41.3929 9.67419L41.627 8.89708L41.7231 9.70318L42.4019 9.25912L41.9579 9.93794L42.7633 10.0334L41.9862 10.2675L42.5419 10.86L41.796 10.5397L41.8412 11.35L41.4756 10.6253L40.9898 11.2751L41.1758 10.4852Z" fill="white"/>
<path d="M81.8008 61.7352L81.0103 61.9205L81.6601 61.4347L80.9353 61.0691L81.7464 61.1151L81.4261 60.3691L82.0179 60.9242L82.2519 60.1471L82.3481 60.9532L83.0269 60.5091L82.5829 61.1879L83.3883 61.2834L82.6112 61.5175L83.167 62.11L82.421 61.7897L82.4662 62.6L82.1006 61.8752L81.6148 62.5251L81.8008 61.7352Z" fill="white"/>
<path d="M46.8008 74.8602L46.0103 75.0455L46.6601 74.5597L45.9353 74.1941L46.7464 74.2401L46.426 73.4941L47.0179 74.0492L47.252 73.2721L47.3481 74.0782L48.0269 73.6341L47.5829 74.3129L48.3883 74.4084L47.6112 74.6425L48.1669 75.235L47.421 74.9147L47.4662 75.725L47.1006 75.0003L46.6148 75.6501L46.8008 74.8602Z" fill="white"/>
<path d="M91.888 33.4162L90.7022 33.6941L91.6773 32.965L90.5912 32.4163L91.8067 32.4849L91.3266 31.3656L92.214 32.1993L92.5654 31.0332L92.709 32.2431L93.7279 31.5763L93.0604 32.5945L94.2703 32.7381L93.1042 33.0895L93.9379 33.9769L92.8193 33.4975L92.8872 34.7123L92.3384 33.6262L91.6094 34.6013L91.888 33.4162Z" fill="white"/>
<path d="M66.4944 13.6937L64.9069 13.0933L66.4944 12.4944L67.094 10.9062L67.6936 12.4944L69.2811 13.0933L67.6936 13.6937L67.094 15.2804L66.4944 13.6937Z" stroke="#FFB166" stroke-width="0.625" stroke-linecap="round" stroke-linejoin="round"/>
</g>
<defs>
<filter id="filter0_f" x="30" y="39" width="70.75" height="32.376" filterUnits="userSpaceOnUse" color-interpolation-filters="sRGB">
<feFlood flood-opacity="0" result="BackgroundImageFix"/>
<feBlend mode="normal" in="SourceGraphic" in2="BackgroundImageFix" result="shape"/>
<feGaussianBlur stdDeviation="5" result="effect1_foregroundBlur"/>
</filter>
<linearGradient id="paint0_linear" x1="8" y1="9" x2="89.8034" y2="90.8034" gradientUnits="userSpaceOnUse">
<stop stop-color="#BA397B"/>
<stop offset="0.56351" stop-color="#F16F4F"/>
<stop offset="1" stop-color="#FFB166"/>
</linearGradient>
<linearGradient id="paint1_linear" x1="12.3227" y1="55.3567" x2="83.1553" y2="67.6495" gradientUnits="userSpaceOnUse">
<stop stop-color="#6ED1B1"/>
<stop offset="1" stop-color="#FFCB99"/>
</linearGradient>
<linearGradient id="paint2_linear" x1="41.5582" y1="47" x2="53.0482" y2="59.2599" gradientUnits="userSpaceOnUse">
<stop stop-color="#080C10"/>
<stop offset="1" stop-color="#115B79"/>
</linearGradient>
<linearGradient id="paint3_linear" x1="45.6406" y1="12.0269" x2="88.3991" y2="54.7584" gradientUnits="userSpaceOnUse">
<stop stop-color="#080C10"/>
<stop offset="1" stop-color="#115B79"/>
</linearGradient>
<clipPath id="clip0">
<rect width="100" height="100" fill="white"/>
</clipPath>
</defs>
</svg>
