<svg width="160" height="160" viewBox="0 0 160 160" fill="none" xmlns="http://www.w3.org/2000/svg">
<path d="M76.825 147C119.155 152 132.25 126 132.25 111.819C132.25 80.762 106.056 79.427 90.871 67.286C79.433 58.14 75.243 32 48.608 32C21.878 32 8.45501 48.933 10.118 80.762C11.78 112.59 34.494 142 76.825 147Z" fill="url(#paint0_linear)"/>
<path d="M26.9169 128.148C26.2269 127.888 26.2269 126.912 26.9169 126.652L33.1119 124.312L35.4519 118.117C35.7119 117.427 36.6879 117.427 36.9479 118.117L39.2879 124.312L45.4829 126.652C46.1729 126.912 46.1729 127.888 45.4829 128.148L39.2879 130.488L36.9479 136.683C36.6879 137.373 35.7119 137.373 35.4519 136.683L33.1119 130.488L26.9169 128.148ZM34.0149 129.118C34.2299 129.2 34.3999 129.37 34.4809 129.585L36.1999 134.135L37.9189 129.585C37.9999 129.37 38.1689 129.2 38.3849 129.119L42.9349 127.4L38.3849 125.681C38.1699 125.6 37.9999 125.431 37.9189 125.215L36.1999 120.665L34.4809 125.215C34.3999 125.43 34.2309 125.6 34.0149 125.681L29.4649 127.4L34.0149 129.119V129.118ZM130.255 46.734C129.947 46.618 129.947 46.182 130.255 46.066L133.021 45.021L134.066 42.255C134.182 41.947 134.618 41.947 134.734 42.255L135.779 45.021L138.545 46.066C138.853 46.182 138.853 46.618 138.545 46.734L135.779 47.779L134.734 50.545C134.618 50.853 134.182 50.853 134.066 50.545L133.021 47.779L130.255 46.734ZM133.666 46.977C133.738 47.005 133.796 47.062 133.823 47.134L134.4 48.663L134.977 47.133C135.005 47.062 135.062 47.005 135.134 46.977L136.663 46.4L135.133 45.823C135.062 45.795 135.005 45.738 134.977 45.666L134.4 44.137L133.823 45.667C133.795 45.738 133.738 45.795 133.666 45.823L132.137 46.4L133.667 46.977H133.666Z" fill="#9FBDC9"/>
<path d="M74.4001 99.2C88.0968 99.2 99.2001 88.0966 99.2001 74.4C99.2001 60.7033 88.0968 49.6 74.4001 49.6C60.7034 49.6 49.6001 60.7033 49.6001 74.4C49.6001 88.0966 60.7034 99.2 74.4001 99.2Z" stroke="#9FBDC9" stroke-width="3.2"/>
<path d="M117.576 118.514L92.6863 93.6236C92.0615 92.9987 91.0484 92.9987 90.4236 93.6236C89.7987 94.2484 89.7987 95.2615 90.4236 95.8863L115.314 120.776C115.939 121.401 116.952 121.401 117.576 120.776C118.201 120.152 118.201 119.139 117.576 118.514Z" fill="#9FBDC9"/>
<path d="M38.2 107.6C39.415 107.6 40.4 106.615 40.4 105.4C40.4 104.185 39.415 103.2 38.2 103.2C36.985 103.2 36 104.185 36 105.4C36 106.615 36.985 107.6 38.2 107.6Z" stroke="#9FBDC9" stroke-width="1.6"/>
<path d="M53.6 37.6C56.251 37.6 58.4001 35.451 58.4001 32.8C58.4001 30.149 56.251 28 53.6 28C50.9491 28 48.8 30.149 48.8 32.8C48.8 35.451 50.9491 37.6 53.6 37.6Z" stroke="#9FBDC9" stroke-width="1.6"/>
<path d="M144 60C145.326 60 146.4 58.9254 146.4 57.5999C146.4 56.2745 145.326 55.2 144 55.2C142.675 55.2 141.6 56.2745 141.6 57.5999C141.6 58.9254 142.675 60 144 60Z" stroke="#9FBDC9" stroke-width="1.6"/>
<path d="M131 122.8C132.657 122.8 134 121.457 134 119.8C134 118.143 132.657 116.8 131 116.8C129.343 116.8 128 118.143 128 119.8C128 121.457 129.343 122.8 131 122.8Z" fill="#9FBDC9"/>
<path d="M39.8 44.4C41.4569 44.4 42.8 43.0569 42.8 41.4C42.8 39.7432 41.4569 38.4 39.8 38.4C38.1432 38.4 36.8 39.7432 36.8 41.4C36.8 43.0569 38.1432 44.4 39.8 44.4Z" fill="#9FBDC9"/>
<defs>
<linearGradient id="paint0_linear" x1="58.5384" y1="131.833" x2="112.503" y2="35.4651" gradientUnits="userSpaceOnUse">
<stop stop-color="#E8E8E8"/>
<stop offset="1" stop-color="white"/>
</linearGradient>
</defs>
</svg>
