<svg width="100" height="100" viewBox="0 0 100 100" fill="none" xmlns="http://www.w3.org/2000/svg">
<g clip-path="url(#clip0)">
<path opacity="0.3" d="M53.7651 85.875C76.7911 85.875 88.8751 76.229 88.8751 61.759C88.8751 38.119 72.0351 43.642 62.5451 36.054C55.3941 30.338 53.7641 14 37.7801 14C21.0721 14 11.0341 24.583 12.0731 44.476C13.1121 64.369 30.7391 85.875 53.7641 85.875H53.7651Z" fill="url(#paint0_linear)"/>
<g opacity="0.2" filter="url(#filter0_f)">
<path d="M56.3455 37.8931L67.7957 55.3778C69.3082 57.6879 68.6626 60.7871 66.3518 62.3004C65.5457 62.8279 64.6045 63.1114 63.6415 63.1171L40.8712 63.2486C38.11 63.2634 35.8585 61.0389 35.843 58.2769C35.8366 57.3089 36.1124 56.3599 36.6364 55.5461L47.955 37.9299C49.4484 35.6064 52.5413 34.9332 54.8656 36.4259C55.456 36.8056 55.9602 37.3055 56.3455 37.8931Z" fill="#210112"/>
</g>
<g opacity="0.2" filter="url(#filter1_f)">
<path d="M61.7228 41.7844L73.173 59.2691C74.6862 61.5799 74.0399 64.6784 71.7298 66.1923C70.9237 66.7198 69.9825 67.0034 69.0187 67.0083L46.2492 67.1406C43.4893 67.1568 41.2365 64.9309 41.2216 62.1696C41.2153 61.2016 41.4911 60.2526 42.0143 59.4381L53.3337 41.8226C54.8278 39.4984 57.92 38.8259 60.2435 40.3179C60.8347 40.6983 61.3388 41.1982 61.7235 41.7851L61.7228 41.7844Z" fill="#210112"/>
</g>
<path d="M61.123 19.135L85.217 55.651C86.66 57.838 86.052 60.779 83.859 62.219C83.083 62.729 82.175 62.999 81.246 62.999H33.754C31.128 63 29 60.8779 29 58.2579C29 57.353 29.26 56.467 29.748 55.704L53.147 19.188C54.561 16.982 57.5 16.336 59.713 17.747C60.275 18.106 60.756 18.579 61.123 19.135Z" fill="url(#paint1_linear)"/>
<path d="M57.092 27.158C58.117 27.158 58.948 27.989 58.948 29.015C58.948 29.04 58.948 29.066 58.946 29.092L58.1 49.417C58.077 49.957 57.632 50.384 57.092 50.384C56.551 50.384 56.106 49.957 56.084 49.417L55.237 29.092C55.194 28.067 55.99 27.202 57.014 27.16L57.092 27.158Z" fill="white"/>
<path d="M57.1701 57.158C58.2388 57.158 59.1051 56.2916 59.1051 55.223C59.1051 54.1543 58.2388 53.288 57.1701 53.288C56.1014 53.288 55.2351 54.1543 55.2351 55.223C55.2351 56.2916 56.1014 57.158 57.1701 57.158Z" fill="white"/>
</g>
<defs>
<filter id="filter0_f" x="15.8428" y="15.6318" width="72.7705" height="67.6168" filterUnits="userSpaceOnUse" color-interpolation-filters="sRGB">
<feFlood flood-opacity="0" result="BackgroundImageFix"/>
<feBlend mode="normal" in="SourceGraphic" in2="BackgroundImageFix" result="shape"/>
<feGaussianBlur stdDeviation="10" result="effect1_foregroundBlur"/>
</filter>
<filter id="filter1_f" x="16.0012" y="17.4531" width="83.0783" height="83.0783" filterUnits="userSpaceOnUse" color-interpolation-filters="sRGB">
<feFlood flood-opacity="0" result="BackgroundImageFix"/>
<feBlend mode="normal" in="SourceGraphic" in2="BackgroundImageFix" result="shape"/>
<feGaussianBlur stdDeviation="10" result="effect1_foregroundBlur"/>
</filter>
<linearGradient id="paint0_linear" x1="11.9995" y1="16.2806" x2="84.1928" y2="86.1873" gradientUnits="userSpaceOnUse">
<stop stop-color="#EE3124"/>
<stop offset="1" stop-color="#FF9733"/>
</linearGradient>
<linearGradient id="paint1_linear" x1="29" y1="23.9511" x2="77.8244" y2="64.76" gradientUnits="userSpaceOnUse">
<stop stop-color="#EE3124"/>
<stop offset="1" stop-color="#FF9733"/>
</linearGradient>
<clipPath id="clip0">
<rect width="100" height="100" fill="white"/>
</clipPath>
</defs>
</svg>
