<svg width="48" height="48" viewBox="0 0 48 48" fill="none" xmlns="http://www.w3.org/2000/svg">
<path d="M3.44767 38.4966L24 24.0084L3.44767 9.52017C2.83873 9.09276 2 9.52706 2 10.2716V37.7452C2 38.4897 2.83873 38.9263 3.44767 38.4966Z" fill="url(#paint0_linear)"/>
<path d="M44.441 38.4966L23.8887 24.0084L44.441 9.52017C45.0499 9.09276 45.8887 9.52706 45.8887 10.2716V37.7452C45.8887 38.4897 45.0499 38.9263 44.441 38.4966Z" fill="url(#paint1_linear)"/>
<path d="M46 37.2189V36.7754C46 36.4766 45.8552 36.1986 45.6117 36.0263L25.882 22.0459C24.8249 21.152 23.1705 21.152 22.1134 22.0459L2.38834 36.0263C2.14477 36.1986 2 36.4789 2 36.7754V37.2189C2 38.2345 2.82264 39.0572 3.83831 39.0572H44.1617C45.1774 39.0572 46 38.2345 46 37.2189Z" fill="#FDD538"/>
<path d="M46 37.6783V37.2348C46 36.9361 45.8552 36.6581 45.6117 36.4857L25.882 22.5054C24.8249 21.6115 23.1705 21.6115 22.1134 22.5054L2.38834 36.4857C2.14477 36.6581 2 36.9384 2 37.2348V37.6783C2 38.694 2.82264 39.5167 3.83831 39.5167H44.1617C45.1774 39.5167 46 38.694 46 37.6783Z" fill="url(#paint2_linear)"/>
<path opacity="0.5" d="M2 10.3383V12.1376C2 12.4478 2.15626 12.7373 2.41822 12.9074L21.6975 25.4515C23.0418 26.5338 24.9582 26.5338 26.3048 25.4515L45.5841 12.9074C45.8437 12.7373 46.0023 12.4478 46.0023 12.1376V10.3383C46.0023 9.32264 45.1796 8.5 44.164 8.5H3.83831C2.82264 8.5 2 9.32264 2 10.3383Z" fill="#F7BF20"/>
<path d="M2 10.3383V10.7818C2 11.0805 2.14477 11.3586 2.38834 11.5309L22.118 25.5113C23.175 26.4052 24.8295 26.4052 25.8866 25.5113L45.6139 11.5332C45.8575 11.3609 46.0023 11.0805 46.0023 10.7841V10.3383C46.0023 9.32264 45.1796 8.5 44.164 8.5H3.83831C2.82264 8.5 2 9.32264 2 10.3383Z" fill="url(#paint3_linear)"/>
<defs>
<linearGradient id="paint0_linear" x1="13.0002" y1="9.40082" x2="13.0002" y2="38.5373" gradientUnits="userSpaceOnUse">
<stop stop-color="#F7DD52"/>
<stop offset="1" stop-color="#FCC534"/>
</linearGradient>
<linearGradient id="paint1_linear" x1="34.8884" y1="9.40082" x2="34.8884" y2="38.5373" gradientUnits="userSpaceOnUse">
<stop stop-color="#F7DD52"/>
<stop offset="1" stop-color="#FCC534"/>
</linearGradient>
<linearGradient id="paint2_linear" x1="24.0005" y1="21.8875" x2="24.0005" y2="39.1519" gradientUnits="userSpaceOnUse">
<stop offset="1.24601e-07" stop-color="#FCDC0A"/>
<stop offset="1" stop-color="#F5AD1A"/>
</linearGradient>
<linearGradient id="paint3_linear" x1="24.0004" y1="8.4622" x2="24.0004" y2="26.0451" gradientUnits="userSpaceOnUse">
<stop offset="2.44409e-07" stop-color="#FEF052"/>
<stop offset="1" stop-color="#FED130"/>
</linearGradient>
</defs>
</svg>
