<svg width="100" height="100" viewBox="0 0 100 100" fill="none" xmlns="http://www.w3.org/2000/svg">
<path d="M39.4429 25.9989C12.9559 16.9989 6.23891 33.5179 6.23891 42.3809C6.23891 61.7909 12.8599 72.5049 22.3499 80.0929C29.4999 85.8089 37.2379 89.5189 58.4969 87.2179C90.4249 83.7629 98.2179 36.7489 82.0739 26.8739C65.9289 16.9989 65.9289 34.9989 39.4429 25.9989Z" fill="url(#paint0_linear)"/>
<g opacity="0.3" filter="url(#filter0_f)">
<path d="M56.875 72.501C71.7177 72.501 83.75 67.0442 83.75 60.313C83.75 53.5818 71.7177 48.125 56.875 48.125C42.0323 48.125 30 53.5818 30 60.313C30 67.0442 42.0323 72.501 56.875 72.501Z" fill="#062430"/>
</g>
<path d="M16.4129 78.2473L12.33 76.7044L16.4129 75.1629L17.9551 71.0793L19.4973 75.1629L23.5801 76.7044L19.4973 78.2473L17.9551 82.3294L16.4129 78.2473Z" stroke="#FFB166" stroke-width="0.625" stroke-linecap="round" stroke-linejoin="round"/>
<path d="M62.763 73.1662L61.4026 72.6514L62.763 72.138L63.2771 70.7769L63.7912 72.138L65.1516 72.6514L63.7912 73.1662L63.2771 74.5259L62.763 73.1662Z" stroke="#FFB166" stroke-width="0.625" stroke-linecap="round" stroke-linejoin="round"/>
<path d="M35.1758 21.4852L34.3853 21.6705L35.0351 21.1847L34.3103 20.8192L35.1214 20.8651L34.8011 20.1191L35.3929 20.6742L35.627 19.8971L35.7231 20.7032L36.4019 20.2591L35.9579 20.9379L36.7633 21.0334L35.9862 21.2675L36.542 21.86L35.796 21.5397L35.8412 22.35L35.4756 21.6253L34.9899 22.2751L35.1758 21.4852Z" fill="white"/>
<path d="M75.8008 72.7352L75.0103 72.9205L75.6601 72.4347L74.9353 72.0691L75.7464 72.1151L75.426 71.3691L76.0179 71.9242L76.2519 71.1471L76.3481 71.9532L77.0269 71.5091L76.5829 72.1879L77.3883 72.2834L76.6112 72.5175L77.1669 73.11L76.421 72.7897L76.4662 73.6L76.1006 72.8753L75.6148 73.5251L75.8008 72.7352Z" fill="white"/>
<path d="M40.8008 85.8602L40.0103 86.0455L40.6601 85.5597L39.9353 85.1942L40.7464 85.2401L40.426 84.4941L41.0179 85.0492L41.252 84.2721L41.3481 85.0782L42.0269 84.6341L41.5829 85.3129L42.3883 85.4084L41.6112 85.6425L42.1669 86.235L41.421 85.9147L41.4662 86.725L41.1006 86.0003L40.6148 86.6501L40.8008 85.8602Z" fill="white"/>
<path d="M85.888 44.4162L84.7022 44.6941L85.6773 43.965L84.5912 43.4163L85.8067 43.4849L85.3266 42.3656L86.214 43.1993L86.5654 42.0332L86.709 43.2431L87.7279 42.5763L87.0604 43.5945L88.2703 43.7381L87.1042 44.0895L87.9379 44.9769L86.8193 44.4975L86.8872 45.7123L86.3384 44.6262L85.6094 45.6013L85.888 44.4162Z" fill="white"/>
<path d="M69.9944 30.5687L68.4069 29.9683L69.9944 29.3694L70.594 27.7812L71.1936 29.3694L72.7811 29.9683L71.1936 30.5687L70.594 32.1554L69.9944 30.5687Z" stroke="#FFB166" stroke-width="0.625" stroke-linecap="round" stroke-linejoin="round"/>
<path d="M38.3342 42.5893L55.8316 42.8947L56.0541 30.1466C56.1384 25.3153 52.2894 21.3296 47.4581 21.2452C42.6269 21.1609 38.6411 25.0099 38.5568 29.8412L38.3342 42.5893Z" stroke="url(#paint1_linear)" stroke-width="4.5"/>
<path d="M65.1632 38.307L31.1683 37.7136C28.9595 37.6751 27.1377 39.4344 27.0991 41.6432L26.593 70.6388C26.5545 72.8476 28.3138 74.6694 30.5226 74.708L64.5174 75.3014C66.7262 75.3399 68.5481 73.5806 68.5866 71.3718L69.0927 42.3762C69.1313 40.1674 67.372 38.3455 65.1632 38.307Z" fill="url(#paint2_linear)"/>
<path d="M47.9738 49.0085C50.1834 49.0471 51.9419 50.8681 51.9033 53.0777C51.8808 54.3715 51.2468 55.5106 50.2812 56.2249L51.8506 62.8583C51.9783 63.3956 51.6458 63.9349 51.1085 64.0615C51.0322 64.0802 50.955 64.0889 50.878 64.0885L45.2762 64.0887C44.7231 64.0891 44.2758 63.6412 44.2755 63.0881C44.2767 63.0171 44.284 62.9453 44.2992 62.8755L45.7211 56.3603C44.6076 55.6338 43.8796 54.3679 43.9046 52.9381C43.9431 50.7284 45.7641 48.97 47.9738 49.0085Z" fill="url(#paint3_linear)"/>
<defs>
<filter id="filter0_f" x="20" y="38.125" width="73.75" height="44.376" filterUnits="userSpaceOnUse" color-interpolation-filters="sRGB">
<feFlood flood-opacity="0" result="BackgroundImageFix"/>
<feBlend mode="normal" in="SourceGraphic" in2="BackgroundImageFix" result="shape"/>
<feGaussianBlur stdDeviation="5" result="effect1_foregroundBlur"/>
</filter>
<linearGradient id="paint0_linear" x1="90.2324" y1="74.6829" x2="19.0182" y2="19.9841" gradientUnits="userSpaceOnUse">
<stop stop-color="#F8091E"/>
<stop offset="1" stop-color="#A9085A"/>
</linearGradient>
<linearGradient id="paint1_linear" x1="41.1943" y1="21.1359" x2="56.9997" y2="39.7494" gradientUnits="userSpaceOnUse">
<stop stop-color="#080C10"/>
<stop offset="1" stop-color="#115B79"/>
</linearGradient>
<linearGradient id="paint2_linear" x1="29.8871" y1="41.8344" x2="56.9569" y2="73.4932" gradientUnits="userSpaceOnUse">
<stop stop-color="#FFB500"/>
<stop offset="1" stop-color="#FF7E00"/>
</linearGradient>
<linearGradient id="paint3_linear" x1="49.2555" y1="66.5332" x2="44.3285" y2="58.5737" gradientUnits="userSpaceOnUse">
<stop stop-color="#FFB500"/>
<stop offset="1" stop-color="#FF7E00"/>
</linearGradient>
</defs>
</svg>
