<svg width="100" height="103" viewBox="0 0 100 103" fill="none" xmlns="http://www.w3.org/2000/svg">
<g opacity="0.1" filter="url(#filter0_f)">
<path d="M41.875 95.375C56.7177 95.375 68.75 89.9185 68.75 83.1875C68.75 76.4565 56.7177 71 41.875 71C27.0323 71 15 76.4565 15 83.1875C15 89.9185 27.0323 95.375 41.875 95.375Z" fill="#062430"/>
</g>
<mask id="mask0" style="mask-type:alpha" maskUnits="userSpaceOnUse" x="6" y="20" width="77" height="73">
<path d="M48.0153 91.875C74.4715 95 82.6559 78.75 82.6559 69.8869C82.6559 50.4763 66.2847 49.6419 56.794 42.0538C49.6453 36.3381 47.0265 20 30.3797 20C13.6734 20 5.28405 30.5831 6.32342 50.4763C7.36217 70.3688 21.5584 88.75 48.0153 91.875Z" fill="white"/>
</mask>
<g mask="url(#mask0)">
<path d="M48.0153 91.875C74.4715 95 82.6559 78.75 82.6559 69.8869C82.6559 50.4763 66.2847 49.6419 56.794 42.0538C49.6453 36.3381 47.0265 20 30.3797 20C13.6734 20 5.28405 30.5831 6.32342 50.4763C7.36217 70.3688 21.5584 88.75 48.0153 91.875Z" fill="url(#paint0_linear)"/>
<path d="M24.5 69L22 81.6431L23.8638 91.9719L45.3106 96.3281L58.2825 87.9162L24.5 69Z" fill="url(#paint1_linear)"/>
<path d="M21.0628 39.6951L44.8528 28.6013C49.8591 26.2676 55.8085 28.4326 58.1422 33.4388L82.1791 84.9844C84.5128 89.9901 82.3478 95.9394 77.3416 98.2738L53.5516 109.368C48.5453 111.701 42.596 109.536 40.2622 104.53L16.2253 52.9844C13.8916 47.9788 16.0566 42.0294 21.0628 39.6951ZM23.9678 45.9263C22.4041 46.6551 21.7272 48.5144 22.4566 50.0788L46.4928 101.625C47.2222 103.189 49.0816 103.866 50.646 103.137L74.4366 92.0432C76.0003 91.3138 76.6772 89.4544 75.9478 87.8901L51.9116 36.3438C51.1822 34.7794 49.3228 34.1026 47.7585 34.8319L23.9678 45.9257V45.9263Z" fill="#AE0A30"/>
<path d="M23.5621 35.3202L47.3527 24.2265C52.3583 21.8923 58.3078 24.0577 60.6419 29.0634L84.6784 80.6096C87.0125 85.6153 84.8471 91.5647 79.8415 93.8989L56.0509 104.993C51.0452 107.327 45.0958 105.161 42.7616 100.156L18.7252 48.6095C16.391 43.6038 18.5565 37.6544 23.5621 35.3202ZM26.4676 41.5511C24.9037 42.2804 24.2268 44.14 24.9561 45.704L48.9925 97.2502C49.7218 98.8142 51.5814 99.491 53.1454 98.7618L76.936 87.668C78.4999 86.9387 79.1768 85.0791 78.4475 83.5151L54.4111 31.9689C53.6818 30.4049 51.8221 29.7281 50.2582 30.4573L26.4676 41.5511Z" fill="url(#paint2_linear)"/>
<path d="M26.2647 41.6295C24.701 42.3589 24.0241 44.2183 24.7535 45.782L48.7903 97.3283C49.5197 98.8927 51.3791 99.5695 52.9428 98.8402L76.7335 87.7464C78.2978 87.017 78.9747 85.1577 78.2453 83.5933L54.2085 32.047C53.4791 30.4827 51.6203 29.8064 50.056 30.5358L26.2647 41.6295Z" fill="#FFCB99"/>
<path d="M30 88.3637C32.27 75.945 34.5519 69.0994 36.8469 67.8294C40.2881 65.9231 42.5906 66.6344 42.7031 77.2131C42.7781 84.2662 45.5437 90.2475 51 95.1569C46.1413 98.9694 43.7606 100.969 43.8581 101.157C47.4706 108.132 42.8519 107.043 30 97.8912V88.3637Z" fill="url(#paint3_linear)"/>
<path fill-rule="evenodd" clip-rule="evenodd" d="M36.4126 67.8681L38.4501 67.2712C39.1869 67.0562 39.9582 67.4781 40.1732 68.2149C40.2282 68.4006 40.2426 68.5962 40.2169 68.7887L39.6157 73.2868C39.5307 73.9243 39.0182 74.4206 38.3782 74.4843L35.4963 74.7737C34.7326 74.8499 34.0526 74.2931 33.9757 73.5299C33.9538 73.3112 33.9838 73.0906 34.0638 72.8862L35.8094 68.4193C35.9144 68.1518 36.1369 67.9481 36.4119 67.8681H36.4126Z" fill="white" fill-opacity="0.295"/>
</g>
<mask id="mask1" style="mask-type:alpha" maskUnits="userSpaceOnUse" x="33" y="10" width="53" height="53">
<path d="M59.2373 62.1719C73.5967 62.1719 85.2373 50.5313 85.2373 36.1719C85.2373 21.8125 73.5967 10.1719 59.2373 10.1719C44.8779 10.1719 33.2373 21.8125 33.2373 36.1719C33.2373 50.5313 44.8779 62.1719 59.2373 62.1719Z" fill="white"/>
</mask>
<g mask="url(#mask1)">
<path d="M21.0638 39.6948L44.8538 28.6011C49.8601 26.2673 55.8094 28.4323 58.1432 33.4386L82.1801 84.9842C84.5138 89.9898 82.3488 95.9392 77.3426 98.2736L53.5526 109.367C48.5463 111.701 42.5969 109.536 40.2632 104.53L16.2263 52.9842C13.8926 47.9786 16.0576 42.0292 21.0638 39.6948ZM23.9688 45.9261C22.4051 46.6548 21.7282 48.5142 22.4576 50.0786L46.4938 101.625C47.2232 103.189 49.0826 103.866 50.6469 103.137L74.4376 92.043C76.0013 91.3136 76.6782 89.4542 75.9488 87.8898L51.9126 36.3436C51.1832 34.7792 49.3238 34.1023 47.7594 34.8317L23.9688 45.9254V45.9261Z" fill="#0D4860"/>
<path d="M23.5631 35.32L47.3537 24.2262C52.3593 21.8921 58.3087 24.0575 60.6429 29.0631L84.6793 80.6094C87.0135 85.615 84.8481 91.5645 79.8424 93.8987L56.0519 104.992C51.0462 107.327 45.0968 105.161 42.7626 100.155L18.7262 48.6092C16.392 43.6036 18.5574 37.6541 23.5631 35.32ZM26.4686 41.5508C24.9046 42.2801 24.2278 44.1398 24.957 45.7037L48.9935 97.25C49.7227 98.8139 51.5824 99.4908 53.1464 98.7615L76.9369 87.6678C78.5009 86.9385 79.1778 85.0788 78.4485 83.5149L54.4121 31.9686C53.6828 30.4047 51.8231 29.7278 50.2592 30.4571L26.4686 41.5508Z" fill="url(#paint4_linear)"/>
<path d="M26.2657 41.6293C24.7019 42.3587 24.0251 44.2181 24.7544 45.7818L48.7913 97.3281C49.5207 98.8924 51.3801 99.5693 52.9438 98.8399L76.7344 87.7462C78.2988 87.0168 78.9757 85.1574 78.2463 83.593L54.2094 32.0468C53.4801 30.4824 51.6213 29.8062 50.0569 30.5356L26.2657 41.6293Z" fill="#FFCB99"/>
</g>
<path d="M34.8048 42.3474C33.241 43.0768 32.5641 44.9362 33.2935 46.4999L41.2515 63.1951C41.9809 64.7594 43.8402 65.4363 45.404 64.7069C46.9677 63.9776 71.9881 51.653 71.9881 51.653C73.5525 50.9237 74.2294 49.0643 73.5 47.4999L65.6525 31.0112C64.9231 29.4468 63.0644 28.7705 61.5 29.4999L34.8048 42.3474Z" fill="url(#paint5_linear)" fill-opacity="0.9"/>
<path d="M45.765 48.5574L43.4575 58.9411C43.2746 59.7645 44.1304 60.4306 44.8836 60.0511L70.2456 47.2751C70.9757 46.9073 70.9801 45.8666 70.2532 45.4927L56.7803 38.5622C56.2165 38.2721 55.5286 38.5733 55.3592 39.1843L52.7747 48.5089C52.6243 49.0517 52.0554 49.3632 51.517 49.1975L47.0353 47.8186C46.4774 47.6469 45.8916 47.9876 45.765 48.5574Z" fill="url(#paint6_linear)"/>
<circle cx="41" cy="48" r="2" fill="url(#paint7_linear)"/>
<path d="M20.4131 38.5324L16.33 36.9905L20.4131 35.4486L21.9551 31.3655L23.497 35.4486L27.5801 36.9905L23.497 38.5324L21.9551 42.6155L20.4131 38.5324Z" stroke="#FFB166" stroke-width="0.5" stroke-linecap="round" stroke-linejoin="round"/>
<path d="M76.2665 82.7333L73.0001 81.4999L76.2665 80.2664L77.5 77L78.7335 80.2664L81.9998 81.4999L78.7335 82.7333L77.5 85.9997L76.2665 82.7333Z" stroke="#FFCB99" stroke-width="0.741" stroke-linecap="round" stroke-linejoin="round"/>
<path d="M27.8141 30.2212L25.9999 29.5357L27.8141 28.8503L28.5 27.0356L29.185 28.8503L30.9996 29.5353L29.185 30.2212L28.4996 32.0353L27.8141 30.2212Z" stroke="#FFCB99" stroke-width="0.741" stroke-linecap="round" stroke-linejoin="round"/>
<path d="M52 22C53.1046 22 54 21.1046 54 20C54 18.8954 53.1046 18 52 18C50.8954 18 50 18.8954 50 20C50 21.1046 50.8954 22 52 22Z" fill="#0EB37E"/>
<path d="M78 37C78.5523 37 79 36.5523 79 36C79 35.4477 78.5523 35 78 35C77.4477 35 77 35.4477 77 36C77 36.5523 77.4477 37 78 37Z" fill="#2BADB4"/>
<path d="M93 10C94.1046 10 95 9.10457 95 8C95 6.89543 94.1046 6 93 6C91.8954 6 91 6.89543 91 8C91 9.10457 91.8954 10 93 10Z" fill="#F16F4F"/>
<path d="M15.5 16C16.3284 16 17 15.3284 17 14.5C17 13.6716 16.3284 13 15.5 13C14.6716 13 14 13.6716 14 14.5C14 15.3284 14.6716 16 15.5 16Z" fill="#F4837B"/>
<defs>
<filter id="filter0_f" x="7.592" y="63.592" width="68.566" height="39.191" filterUnits="userSpaceOnUse" color-interpolation-filters="sRGB">
<feFlood flood-opacity="0" result="BackgroundImageFix"/>
<feBlend mode="normal" in="SourceGraphic" in2="BackgroundImageFix" result="shape"/>
<feGaussianBlur stdDeviation="3.704" result="effect1_foregroundBlur"/>
</filter>
<linearGradient id="paint0_linear" x1="83" y1="92" x2="6" y2="20" gradientUnits="userSpaceOnUse">
<stop offset="0.354451" stop-color="#1E7E99"/>
<stop offset="1" stop-color="#0D4860"/>
</linearGradient>
<linearGradient id="paint1_linear" x1="23.8413" y1="87.7072" x2="26.5051" y2="73.0758" gradientUnits="userSpaceOnUse">
<stop stop-color="#EE3124"/>
<stop offset="0.56194" stop-color="#F4837B"/>
<stop offset="1" stop-color="#FFCB99"/>
</linearGradient>
<linearGradient id="paint2_linear" x1="36" y1="31.0001" x2="89.9151" y2="72.438" gradientUnits="userSpaceOnUse">
<stop stop-color="#F8091E"/>
<stop offset="1" stop-color="#A9085A"/>
</linearGradient>
<linearGradient id="paint3_linear" x1="38.2209" y1="117.434" x2="40.2187" y2="67.0561" gradientUnits="userSpaceOnUse">
<stop stop-color="#EE3124"/>
<stop offset="0.56194" stop-color="#F4837B"/>
<stop offset="1" stop-color="#FFCB99"/>
</linearGradient>
<linearGradient id="paint4_linear" x1="34.5" y1="30.9999" x2="84.6134" y2="70.8106" gradientUnits="userSpaceOnUse">
<stop stop-color="#F8091E"/>
<stop offset="1" stop-color="#A9085A"/>
</linearGradient>
<linearGradient id="paint5_linear" x1="53.3967" y1="29.2063" x2="53.3967" y2="65.0004" gradientUnits="userSpaceOnUse">
<stop stop-color="#FFE4E9"/>
<stop offset="1" stop-color="white"/>
</linearGradient>
<linearGradient id="paint6_linear" x1="74" y1="47.5" x2="42.9818" y2="47.8392" gradientUnits="userSpaceOnUse">
<stop stop-color="#2BADB4"/>
<stop offset="1" stop-color="#6ED1B1"/>
</linearGradient>
<linearGradient id="paint7_linear" x1="43.6667" y1="50" x2="39" y2="46.6667" gradientUnits="userSpaceOnUse">
<stop stop-color="#2BADB4"/>
<stop offset="1" stop-color="#6ED1B1"/>
</linearGradient>
</defs>
</svg>
