<svg width="100" height="100" viewBox="0 0 100 100" fill="none" xmlns="http://www.w3.org/2000/svg">
<g clip-path="url(#clip0)">
<g opacity="0.2" filter="url(#filter0_f)">
<path d="M50.375 95.152C63.8369 95.152 74.75 92.3815 74.75 88.964C74.75 85.5465 63.8369 82.776 50.375 82.776C36.9131 82.776 26 85.5465 26 88.964C26 92.3815 36.9131 95.152 50.375 95.152Z" fill="url(#paint0_linear)"/>
</g>
<path d="M50 85.776C70.4345 85.776 87 69.2105 87 48.776C87 28.3415 70.4345 11.776 50 11.776C29.5655 11.776 13 28.3415 13 48.776C13 69.2105 29.5655 85.776 50 85.776Z" fill="url(#paint1_linear)"/>
<path d="M52.0314 57.7478C55.1817 55.9424 58.9711 56.6116 61.3125 59.3884L61.4851 59.6016L58.9748 61.5604L58.7973 61.6916C56.9973 62.9512 54.6646 62.486 53.4786 60.5913L51.7906 57.8922L52.0314 57.7478ZM59.1589 44.4494C64.2316 45.3439 68.5693 48.3224 71.4418 52.9129C71.9781 53.7701 71.8145 54.9171 71.0834 55.5965L70.9044 55.7477L70.7903 55.8362C70.5133 56.025 70.1572 56.0982 69.8499 56.0441C69.4058 55.9658 69.0703 55.7431 68.8162 55.3358C66.4374 51.533 62.785 49.0277 58.5434 48.2798C54.3018 47.5319 50.0118 48.6367 46.4768 51.3968C45.6963 52.0055 44.7538 51.8393 44.2285 51.0003C43.6606 50.0919 43.8779 48.8599 44.722 48.2015C48.9904 44.8701 54.0852 43.5548 59.1589 44.4494ZM61.2916 32.354C69.2213 33.7522 76.1225 38.5414 80.6524 45.78C81.1885 46.6381 81.0239 47.7849 80.2928 48.4643L80.1587 48.5798L80.0197 48.6771C79.6878 48.8836 79.3045 48.9551 78.9441 48.8916C78.5 48.8133 78.1645 48.5906 77.9104 48.1833C73.8869 41.753 67.7268 37.4946 60.6066 36.2391C53.4864 34.9836 46.2404 36.8781 40.2612 41.5448C39.4806 42.1535 38.5382 41.9873 38.0129 41.1483C37.445 40.2399 37.6622 39.0079 38.5064 38.3495C45.2815 33.0617 53.3313 30.9514 61.2915 32.355L61.2916 32.354ZM63.4129 20.3236C74.233 22.2315 83.5925 28.7082 89.8174 38.577C90.3828 39.482 90.1656 40.714 89.3213 41.3734C88.9023 41.6995 88.4893 41.8187 88.0964 41.7494C87.6522 41.671 87.3168 41.4484 87.0618 41.0399C81.419 31.9358 72.7576 25.9112 62.7392 24.1447C52.6882 22.3724 42.5052 25.0346 34.1126 31.6406C33.3355 32.2469 32.3921 32.0805 31.8678 31.2417C31.2987 30.3341 31.516 29.1021 32.3613 28.4429C41.5503 21.2706 52.5397 18.4064 63.4119 20.3234L63.4129 20.3236Z" fill="url(#paint2_linear)"/>
</g>
<defs>
<filter id="filter0_f" x="16" y="72.776" width="68.75" height="32.376" filterUnits="userSpaceOnUse" color-interpolation-filters="sRGB">
<feFlood flood-opacity="0" result="BackgroundImageFix"/>
<feBlend mode="normal" in="SourceGraphic" in2="BackgroundImageFix" result="shape"/>
<feGaussianBlur stdDeviation="5" result="effect1_foregroundBlur"/>
</filter>
<linearGradient id="paint0_linear" x1="26" y1="88.5652" x2="71.9893" y2="100.239" gradientUnits="userSpaceOnUse">
<stop stop-color="#6A120C"/>
<stop offset="0.43781" stop-color="#B21F15"/>
<stop offset="0.79575" stop-color="#EE4C24"/>
<stop offset="1" stop-color="#FF7E00"/>
</linearGradient>
<linearGradient id="paint1_linear" x1="13" y1="11.776" x2="85.0649" y2="83.8409" gradientUnits="userSpaceOnUse">
<stop stop-color="#BA397B"/>
<stop offset="0.56351" stop-color="#F16F4F"/>
<stop offset="1" stop-color="#FFB166"/>
</linearGradient>
<linearGradient id="paint2_linear" x1="63.4127" y1="20.3236" x2="56.0037" y2="62.3426" gradientUnits="userSpaceOnUse">
<stop stop-color="#FFE4E9"/>
<stop offset="1" stop-color="white"/>
</linearGradient>
<clipPath id="clip0">
<rect width="100" height="100" fill="white"/>
</clipPath>
</defs>
</svg>
