<svg width="100" height="100" viewBox="0 0 100 100" fill="none" xmlns="http://www.w3.org/2000/svg">
<path d="M85.3553 40.1005L59.8995 14.6446C54.4322 9.17727 45.5678 9.17727 40.1005 14.6446L14.6447 40.1005C9.17732 45.5678 9.17732 54.4321 14.6447 59.8994L40.1005 85.3553C45.5678 90.8226 54.4322 90.8226 59.8995 85.3553L85.3553 59.8994C90.8227 54.4321 90.8227 45.5678 85.3553 40.1005Z" fill="url(#paint0_linear)"/>
<path d="M83.4982 82.9198L62.9921 62.4137C62.211 61.6327 60.9447 61.6327 60.1637 62.4137C59.3826 63.1948 59.3826 64.4611 60.1637 65.2422L80.6698 85.7482C81.4508 86.5293 82.7171 86.5293 83.4982 85.7482C84.2792 84.9672 84.2792 83.7009 83.4982 82.9198Z" fill="url(#paint1_linear)"/>
<path opacity="0.8" d="M47.25 65C58.0196 65 66.75 56.9411 66.75 47C66.75 37.0589 58.0196 29 47.25 29C36.4804 29 27.75 37.0589 27.75 47C27.75 56.9411 36.4804 65 47.25 65Z" fill="url(#paint2_radial)"/>
<path d="M47.75 68C36.152 68 26.75 58.598 26.75 47C26.75 35.402 36.152 26 47.75 26C59.348 26 68.75 35.402 68.75 47C68.75 58.598 59.348 68 47.75 68ZM47.75 64C57.139 64 64.75 56.389 64.75 47C64.75 37.611 57.139 30 47.75 30C38.361 30 30.75 37.611 30.75 47C30.75 56.389 38.361 64 47.75 64Z" fill="url(#paint3_linear)"/>
<path opacity="0.4" d="M51.75 41C53.9591 41 55.75 39.2091 55.75 37C55.75 34.7909 53.9591 33 51.75 33C49.5409 33 47.75 34.7909 47.75 37C47.75 39.2091 49.5409 41 51.75 41Z" fill="white"/>
<path d="M21.4126 74.4972L17.3298 72.9543L21.4126 71.4128L22.9548 67.3292L24.497 71.4128L28.5799 72.9543L24.497 74.4972L22.9548 78.5793L21.4126 74.4972Z" stroke="#FFB166" stroke-linecap="round" stroke-linejoin="round"/>
<path d="M52.4944 18.6935L50.9069 18.0932L52.4944 17.4943L53.094 15.9061L53.6936 17.4943L55.2811 18.0932L53.6936 18.6935L53.094 20.2803L52.4944 18.6935Z" stroke="#FFB166" stroke-width="0.625" stroke-linecap="round" stroke-linejoin="round"/>
<path d="M79.6341 34.3819L77.3204 33.508L79.6341 32.634L80.5081 30.3203L81.382 32.634L83.6957 33.508L81.382 34.3819L80.5081 36.6956L79.6341 34.3819Z" stroke="#FFB166" stroke-width="0.625" stroke-linecap="round" stroke-linejoin="round"/>
<path d="M21 57C22.1046 57 23 56.1046 23 55C23 53.8954 22.1046 53 21 53C19.8954 53 19 53.8954 19 55C19 56.1046 19.8954 57 21 57Z" fill="#FF7E00"/>
<g opacity="0.3" filter="url(#filter0_f)">
<path d="M51.375 73.376C59.8664 73.376 66.75 70.6055 66.75 67.188C66.75 63.7705 59.8664 61 51.375 61C42.8836 61 36 63.7705 36 67.188C36 70.6055 42.8836 73.376 51.375 73.376Z" fill="#062430"/>
</g>
<defs>
<filter id="filter0_f" x="26" y="51" width="50.75" height="32.376" filterUnits="userSpaceOnUse" color-interpolation-filters="sRGB">
<feFlood flood-opacity="0" result="BackgroundImageFix"/>
<feBlend mode="normal" in="SourceGraphic" in2="BackgroundImageFix" result="shape"/>
<feGaussianBlur stdDeviation="5" result="effect1_foregroundBlur"/>
</filter>
<linearGradient id="paint0_linear" x1="50" y1="4.74512" x2="50" y2="95.2548" gradientUnits="userSpaceOnUse">
<stop stop-color="#6A120C"/>
<stop offset="0.43781" stop-color="#B21F15"/>
<stop offset="0.79575" stop-color="#EE4C24"/>
<stop offset="1" stop-color="#FF7E00"/>
</linearGradient>
<linearGradient id="paint1_linear" x1="60.1845" y1="62.3929" x2="80.3962" y2="88.1837" gradientUnits="userSpaceOnUse">
<stop stop-color="#080C10"/>
<stop offset="1" stop-color="#115B79"/>
</linearGradient>
<radialGradient id="paint2_radial" cx="0" cy="0" r="1" gradientUnits="userSpaceOnUse" gradientTransform="translate(23.2077 46.9453) rotate(63.6878) scale(32.5197 28.6543)">
<stop stop-color="white" stop-opacity="0.576"/>
<stop offset="1" stop-color="#9FBDC9"/>
</radialGradient>
<linearGradient id="paint3_linear" x1="26.75" y1="26" x2="68.75" y2="68" gradientUnits="userSpaceOnUse">
<stop stop-color="#080C10"/>
<stop offset="1" stop-color="#115B79"/>
</linearGradient>
</defs>
</svg>
