<svg width="100" height="100" viewBox="0 0 100 100" fill="none" xmlns="http://www.w3.org/2000/svg">
<mask id="mask0" mask-type="alpha" maskUnits="userSpaceOnUse" x="8" y="8" width="84" height="84">
<path d="M50 92C73.196 92 92 73.196 92 50C92 26.804 73.196 8 50 8C26.804 8 8 26.804 8 50C8 73.196 26.804 92 50 92Z" fill="white"/>
</mask>
<g mask="url(#mask0)">
<path d="M50 92C73.196 92 92 73.196 92 50C92 26.804 73.196 8 50 8C26.804 8 8 26.804 8 50C8 73.196 26.804 92 50 92Z" fill="url(#paint0_linear)"/>
<path d="M17.813 40.5701L41.603 29.4761C46.609 27.1421 52.559 29.3081 54.893 34.3131L78.929 85.8601C81.263 90.8661 79.098 96.8161 74.092 99.1501L50.302 110.243C45.296 112.577 39.347 110.412 37.012 105.406L12.977 53.8601C10.643 48.8551 12.809 42.9051 17.814 40.5701H17.813ZM20.719 46.8001C19.154 47.5301 18.478 49.3901 19.207 50.9541L43.243 102.5C43.973 104.064 45.833 104.74 47.396 104.011L71.186 92.9181C72.751 92.1881 73.428 90.3291 72.698 88.7651L48.662 37.2191C47.932 35.6541 46.073 34.9781 44.509 35.7071L20.72 46.8011L20.719 46.8001Z" fill="#0D4860"/>
<path d="M20.3136 36.1952L44.1041 25.1015C49.1097 22.7674 55.0593 24.9328 57.3934 29.9384L81.4298 81.4846C83.7639 86.4902 81.5985 92.4398 76.5929 94.7739L52.8023 105.868C47.7968 108.202 41.8472 106.036 39.5131 101.031L15.4767 49.4845C13.1426 44.4789 15.308 38.5293 20.3136 36.1952ZM23.2191 42.4261C21.6548 43.1555 20.9781 45.0147 21.7075 46.579L45.744 98.1252C46.4734 99.6895 48.3326 100.366 49.8968 99.6368L73.6874 88.543C75.2517 87.8136 75.928 85.9535 75.199 84.3901L51.1625 32.8439C50.4331 31.2796 48.573 30.6033 47.0096 31.3323L23.2191 42.4261Z" fill="url(#paint1_linear)"/>
<path d="M23.0159 42.5041C21.4519 43.2341 20.7749 45.0931 21.5039 46.6571L45.5409 98.2031C46.2709 99.7671 48.1289 100.444 49.6939 99.7151L73.4839 88.6211C75.0479 87.8911 75.7249 86.0321 74.9959 84.4681L50.9589 32.9221C50.2289 31.3581 48.3709 30.6811 46.8059 31.4101L23.0159 42.5041Z" fill="#7FCDD2"/>
<mask id="mask1" mask-type="alpha" maskUnits="userSpaceOnUse" x="20" y="6" width="52" height="54">
<path d="M20.625 6.5H71.875V59.625H20.625V6.5Z" fill="white"/>
</mask>
<g mask="url(#mask1)">
<path d="M20.3136 36.1951L44.1041 25.1014C49.1097 22.7672 55.0593 24.9327 57.3934 29.9382L81.4298 81.4845C83.7639 86.49 81.5985 92.4396 76.5929 94.7738L52.8023 105.867C47.7968 108.202 41.8472 106.036 39.5131 101.031L15.4767 49.4843C13.1426 44.4788 15.308 38.5292 20.3136 36.1951ZM23.2191 42.4259C21.6548 43.1554 20.9781 45.0146 21.7075 46.5788L45.744 98.1251C46.4734 99.6894 48.3326 100.366 49.8968 99.6366L73.6874 88.5429C75.2517 87.8135 75.928 85.9534 75.199 84.39L51.1625 32.8437C50.4331 31.2795 48.573 30.6032 47.0096 31.3322L23.2191 42.4259Z" fill="url(#paint2_linear)"/>
</g>
</g>
<path d="M77.1829 29C77.6719 29 78.1429 29.18 78.5089 29.503L96.4609 45.42C97.2879 46.153 97.3639 47.417 96.6309 48.243C96.5689 48.313 96.5029 48.378 96.4319 48.438L78.4799 63.743C77.6399 64.459 76.3769 64.359 75.6599 63.518C75.3519 63.156 75.1829 62.696 75.1829 62.221V53.821C72.6719 53.081 70.3379 53.07 68.1789 53.788C65.1329 54.8 60.7619 58.093 55.0659 63.667L54.6659 64.059C54.2729 64.447 53.6399 64.443 53.2519 64.049C53.0089 63.803 52.9099 63.448 52.9919 63.111C55.3679 53.338 59.0389 46.812 64.0069 43.533C67.7929 41.033 71.5179 39.311 75.1829 38.365V31C75.1829 29.895 76.0779 29 77.1829 29Z" fill="url(#paint3_linear)"/>
<defs>
<linearGradient id="paint0_linear" x1="8" y1="8" x2="91.4935" y2="91.4935" gradientUnits="userSpaceOnUse">
<stop stop-color="#6ED1B1"/>
<stop offset="1" stop-color="#FFCB99"/>
</linearGradient>
<linearGradient id="paint1_linear" x1="32.2089" y1="30.6483" x2="64.6976" y2="100.321" gradientUnits="userSpaceOnUse">
<stop stop-color="#1E7E99"/>
<stop offset="1" stop-color="#0D4860"/>
</linearGradient>
<linearGradient id="paint2_linear" x1="32.2089" y1="30.6482" x2="64.6976" y2="100.321" gradientUnits="userSpaceOnUse">
<stop stop-color="#1E7E99"/>
<stop offset="1" stop-color="#0D4860"/>
</linearGradient>
<linearGradient id="paint3_linear" x1="52.9636" y1="35.418" x2="90.975" y2="65.6689" gradientUnits="userSpaceOnUse">
<stop stop-color="#F8091E"/>
<stop offset="1" stop-color="#A9085A"/>
</linearGradient>
</defs>
</svg>
