<svg width="48" height="48" viewBox="0 0 48 48" fill="none" xmlns="http://www.w3.org/2000/svg">
<path d="M43.406 8.5H40.4727V39.52H43.406C44.8301 39.52 45.978 38.44 45.978 37.1V10.92C45.978 9.58 44.8301 8.5 43.406 8.5Z" fill="#D54C3F"/>
<path d="M40.4737 39.5199H7.48438V15.4399L40.4737 38.7399V39.5199Z" fill="#E3E3E3"/>
<path d="M7.48438 39.2599V39.5199H40.4737V15.1799L7.48438 39.2599Z" fill="#F3F3F3"/>
<path d="M4.57198 8.5C3.14783 8.5 2 9.58 2 10.92V37.1C2 38.44 3.14783 39.52 4.57198 39.52H7.48406V8.5H4.57198Z" fill="#D54C3F"/>
<path d="M7.48438 39.5199H40.4737V15.4399L7.48438 39.5199Z" fill="#EAEAEA"/>
<path d="M24 8.71997H4.59324C3.16908 8.71997 2 9.79997 2 11.16C2 11.94 2.40386 12.68 3.08406 13.14L24 27.22L44.9159 13.14C45.5961 12.68 46 11.94 46 11.16C46 9.81997 44.8309 8.71997 43.4068 8.71997H24Z" fill="#BA4E44"/>
<path opacity="0.04" d="M24 8.71997H4.59324C3.16908 8.71997 2 9.79997 2 11.16C2 11.94 2.40386 12.68 3.08406 13.14L31.1208 39.54H43.4068C44.8309 39.54 45.9787 38.46 45.9787 37.12V11.16C45.9787 9.81997 44.8097 8.71997 43.3855 8.71997H24Z" fill="#020202"/>
<path d="M24 8.5H4.59324C3.16908 8.5 2 9.6 2 10.94C2 11.72 2.40386 12.46 3.08406 12.92L24 27L44.9159 12.92C45.5961 12.46 46 11.72 46 10.94C46 9.6 44.8309 8.5 43.4068 8.5H24Z" fill="#DD4E42"/>
<path d="M42.5982 8.5H23.9992H5.37891L23.9992 21.04L42.5982 8.5Z" fill="#EFEFEF"/>
</svg>
