<svg width="100" height="100" viewBox="0 0 100 100" fill="none" xmlns="http://www.w3.org/2000/svg">
<path d="M48.0151 91.875C74.4721 95 82.6561 78.75 82.6561 69.887C82.6561 50.476 66.2851 49.642 56.7941 42.054C49.6461 36.338 47.0271 20 30.3801 20C13.6731 20 5.28511 30.583 6.32411 50.476C7.36311 70.369 21.5581 88.75 48.0151 91.875Z" fill="url(#paint0_linear)"/>
<g opacity="0.3" filter="url(#filter0_f)">
<path d="M51 76.375C63.1503 76.375 73 71.8978 73 66.375C73 60.8522 63.1503 56.375 51 56.375C38.8497 56.375 29 60.8522 29 66.375C29 71.8978 38.8497 76.375 51 76.375Z" fill="#062430"/>
</g>
<path opacity="0.9" d="M49.875 71.75C61.9562 71.75 71.75 61.9562 71.75 49.875C71.75 37.7938 61.9562 28 49.875 28C37.7938 28 28 37.7938 28 49.875C28 61.9562 37.7938 71.75 49.875 71.75Z" fill="url(#paint1_linear)"/>
<path d="M53 57H46C45.4477 57 45 57.4477 45 58C45 58.5523 45.4477 59 46 59H53C53.5523 59 54 58.5523 54 58C54 57.4477 53.5523 57 53 57Z" fill="white"/>
<path d="M41.5 51C42.8807 51 44 49.8807 44 48.5C44 47.1193 42.8807 46 41.5 46C40.1193 46 39 47.1193 39 48.5C39 49.8807 40.1193 51 41.5 51Z" fill="white"/>
<path d="M58.5 51C59.8807 51 61 49.8807 61 48.5C61 47.1193 59.8807 46 58.5 46C57.1193 46 56 47.1193 56 48.5C56 49.8807 57.1193 51 58.5 51Z" fill="white"/>
<path d="M63.544 44.286C60.331 44.072 57.817 42.976 56 41M36 44.286C39.213 44.072 41.727 42.976 43.544 41L36 44.286Z" stroke="white" stroke-linecap="round" stroke-linejoin="round"/>
<path d="M16.823 80.093C16.393 79.93 16.393 79.32 16.823 79.157L20.695 77.695L22.157 73.823C22.32 73.393 22.93 73.393 23.093 73.823L24.555 77.695L28.427 79.157C28.857 79.32 28.857 79.93 28.427 80.093L24.555 81.555L23.093 85.427C22.93 85.857 22.32 85.857 22.157 85.427L20.695 81.555L16.823 80.093ZM21.26 80.699C21.394 80.75 21.5 80.856 21.55 80.99L22.625 83.835L23.699 80.99C23.75 80.856 23.856 80.75 23.99 80.7L26.835 79.625L23.99 78.551C23.856 78.5 23.75 78.394 23.7 78.26L22.625 75.415L21.551 78.26C21.5 78.394 21.394 78.5 21.26 78.55L18.415 79.625L21.26 80.699ZM83.89 29.167C83.62 29.066 83.62 28.684 83.89 28.583L85.119 28.119L85.583 26.889C85.684 26.62 86.066 26.62 86.167 26.889L86.631 28.119L87.861 28.583C88.13 28.684 88.13 29.066 87.861 29.167L86.631 29.631L86.167 30.861C86.066 31.13 85.684 31.13 85.583 30.861L85.119 29.631L83.889 29.167H83.89ZM85.471 29.097C85.555 29.128 85.621 29.195 85.653 29.279L85.875 29.866L86.097 29.279C86.128 29.195 86.195 29.129 86.279 29.097L86.866 28.875L86.279 28.653C86.195 28.622 86.129 28.555 86.097 28.471L85.875 27.884L85.653 28.471C85.622 28.555 85.555 28.621 85.471 28.653L84.884 28.875L85.471 29.097ZM30.561 29.76C26.406 37.378 26.406 41.5 31 41.5C35.594 41.5 35.594 37.377 31.439 29.76C31.249 29.413 30.751 29.413 30.561 29.76ZM31 40.5C27.838 40.5 27.611 37.733 30.672 31.696L31 31.059C34.401 37.539 34.272 40.5 31 40.5ZM76.053 25.776L75.801 26.292C73.912 30.261 74.014 32.5 76.5 32.5C79.092 32.5 79.092 30.066 76.947 25.776C76.763 25.408 76.237 25.408 76.053 25.776ZM76.5 31.5C75.253 31.5 75.11 30.27 76.384 27.41L76.5 27.154C77.897 30.197 77.784 31.5 76.5 31.5ZM81.053 30.776C77.575 37.733 77.575 41.5 81.5 41.5C85.425 41.5 85.425 37.733 81.947 30.776C81.763 30.408 81.237 30.408 81.053 30.776ZM81.5 40.5C78.941 40.5 78.77 37.973 81.354 32.449L81.5 32.139C84.235 37.879 84.106 40.5 81.5 40.5ZM60.053 53.776C56.575 60.733 56.575 64.5 60.5 64.5C64.425 64.5 64.425 60.733 60.947 53.776C60.763 53.408 60.237 53.408 60.053 53.776ZM60.5 63.5C57.941 63.5 57.77 60.973 60.354 55.449L60.5 55.139C63.235 60.879 63.106 63.5 60.5 63.5Z" fill="#FFB166"/>
<defs>
<filter id="filter0_f" x="19" y="46.375" width="64" height="40" filterUnits="userSpaceOnUse" color-interpolation-filters="sRGB">
<feFlood flood-opacity="0" result="BackgroundImageFix"/>
<feBlend mode="normal" in="SourceGraphic" in2="BackgroundImageFix" result="shape"/>
<feGaussianBlur stdDeviation="5" result="effect1_foregroundBlur"/>
</filter>
<linearGradient id="paint0_linear" x1="6.23804" y1="23.8179" x2="78.8443" y2="92.4812" gradientUnits="userSpaceOnUse">
<stop stop-color="#F8091E"/>
<stop offset="1" stop-color="#A9085A"/>
</linearGradient>
<linearGradient id="paint1_linear" x1="28" y1="26.439" x2="71.75" y2="71.75" gradientUnits="userSpaceOnUse">
<stop stop-color="#EE3124"/>
<stop offset="1" stop-color="#FF9733"/>
</linearGradient>
</defs>
</svg>
