<svg width="100" height="100" viewBox="0 0 100 100" fill="none" xmlns="http://www.w3.org/2000/svg">
<mask id="mask0" mask-type="alpha" maskUnits="userSpaceOnUse" x="6" y="20" width="77" height="73">
<path d="M48.0151 91.875C74.4721 95 82.6561 78.75 82.6561 69.887C82.6561 50.476 66.2851 49.642 56.7941 42.054C49.6461 36.338 47.0271 20 30.3801 20C13.6731 20 5.28511 30.583 6.32411 50.476C7.36311 70.369 21.5581 88.75 48.0151 91.875Z" fill="white"/>
</mask>
<g mask="url(#mask0)">
<path d="M48.0151 91.875C74.4721 95 82.6561 78.75 82.6561 69.887C82.6561 50.476 66.2851 49.642 56.7941 42.054C49.6461 36.338 47.0271 20 30.3801 20C13.6731 20 5.28511 30.583 6.32411 50.476C7.36311 70.369 21.5581 88.75 48.0151 91.875Z" fill="url(#paint0_linear)"/>
<path opacity="0.8" d="M12.0002 45.3218L77.6231 23.9996L91.8379 67.7482L26.215 89.0704L12.0002 45.3218Z" fill="url(#paint1_linear)"/>
</g>
<g opacity="0.3" filter="url(#filter0_f)">
<path d="M56.875 72.501C71.7177 72.501 83.75 67.0442 83.75 60.313C83.75 53.5818 71.7177 48.125 56.875 48.125C42.0323 48.125 30 53.5818 30 60.313C30 67.0442 42.0323 72.501 56.875 72.501Z" fill="#062430"/>
</g>
<path d="M16.4129 78.2472L12.33 76.7043L16.4129 75.1628L17.9551 71.0792L19.4973 75.1628L23.5801 76.7043L19.4973 78.2472L17.9551 82.3293L16.4129 78.2472Z" stroke="#FFB166" stroke-width="0.625" stroke-linecap="round" stroke-linejoin="round"/>
<path d="M62.763 73.166L61.4026 72.6513L62.763 72.1379L63.2771 70.7767L63.7912 72.1379L65.1516 72.6513L63.7912 73.166L63.2771 74.5258L62.763 73.166Z" stroke="#FFB166" stroke-width="0.625" stroke-linecap="round" stroke-linejoin="round"/>
<path d="M35.1758 21.4852L34.3853 21.6705L35.0351 21.1847L34.3103 20.8192L35.1214 20.8651L34.8011 20.1191L35.3929 20.6742L35.627 19.8971L35.7231 20.7032L36.4019 20.2591L35.9579 20.9379L36.7633 21.0334L35.9862 21.2675L36.542 21.86L35.796 21.5397L35.8412 22.35L35.4756 21.6253L34.9899 22.2751L35.1758 21.4852Z" fill="white"/>
<path d="M75.8008 72.7352L75.0103 72.9205L75.6601 72.4347L74.9353 72.0691L75.7464 72.1151L75.426 71.3691L76.0179 71.9242L76.2519 71.1471L76.3481 71.9532L77.0269 71.5091L76.5829 72.1879L77.3883 72.2834L76.6112 72.5175L77.1669 73.11L76.421 72.7897L76.4662 73.6L76.1006 72.8753L75.6148 73.5251L75.8008 72.7352Z" fill="white"/>
<path d="M40.8008 85.8602L40.0103 86.0455L40.6601 85.5597L39.9353 85.1942L40.7464 85.2401L40.426 84.4941L41.0179 85.0492L41.252 84.2721L41.3481 85.0782L42.0269 84.6341L41.5829 85.3129L42.3883 85.4084L41.6112 85.6425L42.1669 86.235L41.421 85.9147L41.4662 86.725L41.1006 86.0003L40.6148 86.6501L40.8008 85.8602Z" fill="white"/>
<path d="M85.888 44.4161L84.7022 44.694L85.6773 43.9649L84.5912 43.4162L85.8067 43.4848L85.3266 42.3654L86.214 43.1991L86.5654 42.0331L86.709 43.243L87.7279 42.5762L87.0604 43.5944L88.2703 43.7379L87.1042 44.0894L87.9379 44.9768L86.8193 44.4974L86.8872 45.7122L86.3384 44.6261L85.6094 45.6012L85.888 44.4161Z" fill="white"/>
<path d="M69.9944 30.5687L68.4069 29.9683L69.9944 29.3694L70.594 27.7812L71.1936 29.3694L72.7811 29.9683L71.1936 30.5687L70.594 32.1554L69.9944 30.5687Z" stroke="#FFB166" stroke-width="0.625" stroke-linecap="round" stroke-linejoin="round"/>
<mask id="mask1" mask-type="alpha" maskUnits="userSpaceOnUse" x="12" y="23" width="82" height="65">
<path d="M43 23H94L91.838 67.881L82.656 70.638L32.041 87.528C29.275 86.718 26.633 85.208 24.116 83C21.6 80.791 17.56 68.268 12 45.43L43 23Z" fill="white"/>
</mask>
<g mask="url(#mask1)">
<path d="M12.0002 45.322L77.6231 23.9998L91.8379 67.7484L25.9101 89.0708L12.0002 45.322Z" fill="url(#paint2_linear)"/>
<path d="M45.994 50.691L25.91 89.071L12 45.356L45.994 50.691Z" fill="url(#paint3_linear)"/>
</g>
<path d="M60.759 48.125L91.607 67.7471L77.6 24.05L60.759 48.125Z" fill="url(#paint4_linear)"/>
<path d="M11.8621 45.537L48.4601 59.489C53.7011 61.488 59.6061 59.222 62.1661 54.232L77.7021 23.946L11.8621 45.536V45.537Z" fill="url(#paint5_linear)"/>
<defs>
<filter id="filter0_f" x="20" y="38.125" width="73.75" height="44.376" filterUnits="userSpaceOnUse" color-interpolation-filters="sRGB">
<feFlood flood-opacity="0" result="BackgroundImageFix"/>
<feBlend mode="normal" in="SourceGraphic" in2="BackgroundImageFix" result="shape"/>
<feGaussianBlur stdDeviation="5" result="effect1_foregroundBlur"/>
</filter>
<linearGradient id="paint0_linear" x1="6.23804" y1="23.8179" x2="78.8443" y2="92.4812" gradientUnits="userSpaceOnUse">
<stop stop-color="#6A120C"/>
<stop offset="0.43781" stop-color="#B21F15"/>
<stop offset="0.79575" stop-color="#EE4C24"/>
<stop offset="1" stop-color="#FF7E00"/>
</linearGradient>
<linearGradient id="paint1_linear" x1="15.9488" y1="57.4743" x2="81.74" y2="75.9547" gradientUnits="userSpaceOnUse">
<stop stop-color="#6ED1B1"/>
<stop offset="1" stop-color="#FFCB99"/>
</linearGradient>
<linearGradient id="paint2_linear" x1="21.9643" y1="76.9268" x2="64.8054" y2="22.914" gradientUnits="userSpaceOnUse">
<stop stop-color="#2BADB4"/>
<stop offset="1" stop-color="#6ED1B1"/>
</linearGradient>
<linearGradient id="paint3_linear" x1="18.7186" y1="89.071" x2="47.6494" y2="51.8679" gradientUnits="userSpaceOnUse">
<stop stop-color="#2BADB4"/>
<stop offset="1" stop-color="#6ED1B1"/>
</linearGradient>
<linearGradient id="paint4_linear" x1="68.496" y1="67.7471" x2="94.1976" y2="31.341" gradientUnits="userSpaceOnUse">
<stop stop-color="#2BADB4"/>
<stop offset="1" stop-color="#6ED1B1"/>
</linearGradient>
<linearGradient id="paint5_linear" x1="59.8818" y1="48.4599" x2="59.3834" y2="37.4356" gradientUnits="userSpaceOnUse">
<stop stop-color="#2BADB4"/>
<stop offset="1" stop-color="#6ED1B1"/>
</linearGradient>
</defs>
</svg>
