<svg width="100" height="100" viewBox="0 0 100 100" fill="none" xmlns="http://www.w3.org/2000/svg">
<g opacity="0.45" filter="url(#filter0_f)">
<path d="M50.5988 93.0737C64.622 93.0737 75.99 91.0333 75.99 88.5162C75.99 85.9992 64.622 83.9587 50.5988 83.9587C36.5756 83.9587 25.2075 85.9992 25.2075 88.5162C25.2075 91.0333 36.5756 93.0737 50.5988 93.0737Z" fill="#115B79"/>
</g>
<path d="M43.9275 13.5787C44.9537 12.6537 46.535 12.7375 47.4587 13.7637L55.6087 22.815C56.4562 23.7587 56.465 25.1875 55.6275 26.14L47.4775 35.4025C46.565 36.4375 44.9862 36.54 43.9487 35.6275C42.9125 34.715 42.8113 33.135 43.7238 32.0987L48.845 26.2775C36.265 26.88 26.25 37.27 26.25 50C26.25 63.1162 36.8837 73.75 50 73.75C63.1162 73.75 73.75 63.1162 73.75 50C73.75 48.6187 74.8688 47.5 76.25 47.5C77.6312 47.5 78.75 48.6187 78.75 50C78.75 65.8787 65.8787 78.75 50 78.75C34.1213 78.75 21.25 65.8787 21.25 50C21.25 34.9425 32.825 22.59 47.5625 21.3525L43.7425 17.1087C42.8187 16.0837 42.9012 14.5025 43.9275 13.5787Z" fill="url(#paint0_linear)"/>
<path d="M39.0997 43.0215C41.5104 42.0475 43.5299 41.7304 45.1594 42.0697C46.7889 42.409 47.9684 43.4828 48.6988 45.2908C49.1544 46.4185 49.2659 47.4385 49.0321 48.3514C48.7983 49.2642 48.2759 50.1169 47.4649 50.9124C47.9519 51.1835 48.4769 51.5052 49.042 51.8796C49.6071 52.2539 50.1765 52.6521 50.7522 53.076C51.328 53.5 51.901 53.9506 52.4723 54.4303C53.0436 54.9099 53.5865 55.3862 54.1021 55.8615L50.0457 57.5004L48.5071 56.2615C47.987 55.842 47.4655 55.442 46.943 55.0599C46.4206 54.6778 45.9124 54.3209 45.4189 53.9905C44.9255 53.66 44.45 53.3708 43.9907 53.125L42.2059 53.8461L44.5753 59.7105L40.9593 61.1715L34.5629 45.3398C35.2887 44.8673 36.0594 44.4292 36.8772 44.0273C37.695 43.6255 38.4357 43.2898 39.0997 43.0215ZM40.5539 46.0201C40.3789 46.0908 40.2169 46.1603 40.0691 46.2281L39.8563 46.3289C39.6538 46.4282 39.4633 46.5241 39.284 46.6141L41.0446 50.9718L42.0645 50.5598C43.424 50.0105 44.3287 49.4468 44.7791 48.8698C45.2295 48.2928 45.2886 47.5949 44.9576 46.7755C44.6391 45.9874 44.1151 45.5479 43.3862 45.4555C42.6572 45.3631 41.7129 45.5518 40.5539 46.0201ZM61.5742 45.859C61.1434 44.7928 60.5584 44.0355 59.8208 43.588C59.0832 43.1405 58.2419 43.1069 57.2996 43.4876C56.9902 43.6127 56.7097 43.7394 56.456 43.8689C56.2023 43.9984 55.9975 44.1121 55.8398 44.2123L58.359 50.4476C58.6319 50.4991 58.9604 50.5012 59.3455 50.4534C59.7307 50.4057 60.1006 50.3102 60.4564 50.1664C62.094 49.5048 62.4672 48.0692 61.5742 45.859ZM65.06 44.3428C65.4407 45.285 65.6714 46.1895 65.7519 47.0562C65.8324 47.9229 65.7612 48.7242 65.5374 49.4617C65.3136 50.1992 64.932 50.8563 64.3929 51.4341C63.8538 52.0118 63.1512 52.475 62.2854 52.8248C61.8068 53.0182 61.3395 53.1531 60.8848 53.2289C60.4301 53.3048 59.975 53.3363 59.5203 53.3218L61.3746 57.9114L57.9208 59.3068L51.4308 43.2434C51.7027 43.0256 52.0213 42.7931 52.3893 42.546C52.7573 42.2989 53.148 42.0547 53.5636 41.8154C53.9792 41.576 54.4072 41.3438 54.8472 41.1215C55.2872 40.8993 55.7162 40.703 56.1334 40.5345C57.1383 40.1285 58.095 39.9172 59.0049 39.9001C59.9147 39.883 60.7507 40.0401 61.5134 40.3696C62.2761 40.6991 62.9589 41.2011 63.5636 41.8736C64.1683 42.546 64.6667 43.3692 65.06 44.3428Z" fill="url(#paint1_linear)"/>
<defs>
<filter id="filter0_f" x="18.9575" y="77.7087" width="63.2825" height="21.615" filterUnits="userSpaceOnUse" color-interpolation-filters="sRGB">
<feFlood flood-opacity="0" result="BackgroundImageFix"/>
<feBlend mode="normal" in="SourceGraphic" in2="BackgroundImageFix" result="shape"/>
<feGaussianBlur stdDeviation="3.125" result="effect1_foregroundBlur"/>
</filter>
<linearGradient id="paint0_linear" x1="51.2903" y1="44.734" x2="32.8471" y2="83.5142" gradientUnits="userSpaceOnUse">
<stop stop-color="white"/>
<stop offset="1" stop-color="#9FBDC9"/>
</linearGradient>
<linearGradient id="paint1_linear" x1="54.6755" y1="45.4305" x2="52.437" y2="63.5169" gradientUnits="userSpaceOnUse">
<stop stop-color="white"/>
<stop offset="1" stop-color="#9FBDC9"/>
</linearGradient>
</defs>
</svg>
