<svg width="100" height="100" viewBox="0 0 100 100" fill="none" xmlns="http://www.w3.org/2000/svg">
<mask id="mask0" mask-type="alpha" maskUnits="userSpaceOnUse" x="6" y="20" width="78" height="72">
<path d="M48.015 91.875C71.041 91.875 83.125 82.229 83.125 67.759C83.125 44.119 66.285 49.642 56.795 42.054C49.644 36.338 48.014 20 32.03 20C15.323 20 5.28504 30.583 6.32404 50.476C7.36304 70.369 24.99 91.875 48.015 91.875Z" fill="white"/>
</mask>
<g mask="url(#mask0)">
<path d="M48.015 91.875C71.041 91.875 83.125 82.229 83.125 67.759C83.125 44.119 66.285 49.642 56.795 42.054C49.644 36.338 48.014 20 32.03 20C15.323 20 5.28504 30.583 6.32404 50.476C7.36304 70.369 24.99 91.875 48.015 91.875Z" fill="url(#paint0_linear)"/>
<path d="M39.9404 35.0443L22.3807 43.2326C17.3753 45.5666 15.2098 51.5164 17.5438 56.5218L38.6747 101.837C41.0088 106.843 46.9586 109.008 51.964 106.674L69.5237 98.4859C74.5291 96.1518 76.6947 90.202 74.3606 85.1966L53.2297 39.8812C50.8956 34.8758 44.9458 32.7103 39.9404 35.0443Z" fill="#9EE0CB" stroke="#0D4860" stroke-width="6.875"/>
<path d="M42.4409 30.6693L24.8812 38.8576C19.8758 41.1916 17.7102 47.1414 20.0443 52.1468L41.1752 97.4622C43.5093 102.468 49.4591 104.633 54.4645 102.299L72.0242 94.1109C77.0296 91.7768 79.1951 85.827 76.8611 80.8216L55.7302 35.5062C53.3961 30.5008 47.4463 28.3353 42.4409 30.6693Z" fill="#9EE0CB" stroke="url(#paint1_linear)" stroke-width="6.875"/>
</g>
<mask id="mask1" mask-type="alpha" maskUnits="userSpaceOnUse" x="20" y="7" width="52" height="54">
<path d="M20.625 7.5H71.875V60.625H20.625V7.5Z" fill="white"/>
</mask>
<g mask="url(#mask1)">
<path d="M42.4407 30.6693L24.8809 38.8576C19.8755 41.1916 17.71 47.1414 20.0441 52.1468L41.175 97.4622C43.509 102.468 49.4588 104.633 54.4642 102.299L72.0239 94.1109C77.0293 91.7768 79.1949 85.827 76.8608 80.8216L55.7299 35.5062C53.3959 30.5008 47.4461 28.3353 42.4407 30.6693Z" fill="#9EE0CB" stroke="url(#paint2_linear)" stroke-width="6.875"/>
</g>
<g opacity="0.5" filter="url(#filter0_f)">
<path d="M60.938 67.501C66.9789 67.501 71.876 65.9618 71.876 64.063C71.876 62.1642 66.9789 60.625 60.938 60.625C54.8971 60.625 50 62.1642 50 64.063C50 65.9618 54.8971 67.501 60.938 67.501Z" fill="#031218"/>
</g>
<path d="M55.625 30.625H87.5C89.571 30.625 91.25 32.304 91.25 34.375V52.5C91.25 54.571 89.571 56.25 87.5 56.25H65.983L58.206 63.053V56.25H55.625C53.554 56.25 51.875 54.571 51.875 52.5V34.375C51.875 32.304 53.554 30.625 55.625 30.625Z" fill="url(#paint3_linear)"/>
<path fill-rule="evenodd" clip-rule="evenodd" d="M60.4951 43.1201C60.5951 43.0301 60.7201 42.9331 60.8701 42.8281C61.0201 42.7231 61.1721 42.6181 61.3281 42.5131C61.4831 42.4081 61.6401 42.3131 61.8001 42.2281C61.9601 42.1431 62.1001 42.0811 62.2201 42.0411L62.5801 41.9211L63.1801 43.7811L62.8201 43.9011C62.6901 43.9411 62.5401 43.9711 62.3701 43.9911C62.2001 44.0111 62.0201 44.0231 61.8301 44.0281C61.6401 44.0331 61.4551 44.0361 61.2751 44.0361H60.7951C60.9151 44.1161 61.0471 44.2081 61.1931 44.3131C61.3381 44.4181 61.4831 44.5281 61.6271 44.6431C61.7731 44.7581 61.9101 44.8761 62.0401 44.9961C62.1701 45.1161 62.2751 45.2311 62.3551 45.3411L62.5951 45.6561L61.0051 46.7811L60.7801 46.4811C60.7001 46.3811 60.6231 46.2511 60.5471 46.0911C60.4721 45.9311 60.4001 45.7631 60.3301 45.5881C60.2601 45.4131 60.2001 45.2411 60.1501 45.0711L60.0151 44.6061L59.8801 45.0711C59.8301 45.2411 59.7701 45.4131 59.7001 45.5881C59.6301 45.7631 59.5581 45.9311 59.4821 46.0911C59.4071 46.2511 59.3301 46.3811 59.2501 46.4811L59.0251 46.7811L57.4351 45.6561L57.6751 45.3411C57.7551 45.2311 57.8601 45.1161 57.9901 44.9961C58.1201 44.8761 58.2571 44.7581 58.4031 44.6431C58.5481 44.5281 58.6931 44.4181 58.8371 44.3131C58.9831 44.2081 59.1151 44.1161 59.2351 44.0361H58.7551C58.5751 44.0361 58.3901 44.0331 58.2001 44.0281C58.0101 44.0231 57.8301 44.0111 57.6601 43.9911C57.4901 43.9711 57.3401 43.9411 57.2101 43.9011L56.8501 43.7811L57.4501 41.9211L57.8101 42.0411C57.9301 42.0811 58.0701 42.1431 58.2301 42.2281C58.3901 42.3131 58.5471 42.4081 58.7031 42.5131C58.8581 42.6181 59.0071 42.7231 59.1531 42.8281C59.2981 42.9331 59.4251 43.0311 59.5351 43.1211C59.4851 42.9911 59.4331 42.8381 59.3781 42.6631C59.3221 42.4881 59.2701 42.3111 59.2201 42.1311C59.1701 41.9511 59.1281 41.7731 59.0931 41.5981C59.0571 41.4231 59.0401 41.2711 59.0401 41.1411V40.7661H60.9901V41.1411C60.9901 41.2711 60.9731 41.4231 60.9371 41.5981C60.9021 41.7731 60.8601 41.9511 60.8101 42.1311C60.7601 42.3111 60.7081 42.4881 60.6531 42.6631C60.5971 42.8381 60.5451 42.9911 60.4951 43.1211V43.1201ZM68.0251 43.1201C68.1251 43.0301 68.2501 42.9331 68.4001 42.8281C68.5501 42.7231 68.7021 42.6181 68.8571 42.5131C69.0131 42.4081 69.1701 42.3131 69.3301 42.2281C69.4901 42.1431 69.6301 42.0811 69.7501 42.0411L70.1101 41.9211L70.7101 43.7811L70.3501 43.9011C70.2201 43.9411 70.0701 43.9711 69.9001 43.9911C69.7301 44.0111 69.5501 44.0231 69.3601 44.0281C69.1701 44.0331 68.9851 44.0361 68.8051 44.0361H68.3251C68.4451 44.1161 68.5771 44.2081 68.7221 44.3131C68.8681 44.4181 69.0121 44.5281 69.1581 44.6431C69.3031 44.7581 69.4401 44.8761 69.5701 44.9961C69.7001 45.1161 69.8051 45.2311 69.8851 45.3411L70.1251 45.6561L68.5351 46.7811L68.3101 46.4811C68.2301 46.3811 68.1531 46.2511 68.0771 46.0911C68.0021 45.9311 67.9301 45.7631 67.8601 45.5881C67.7901 45.4131 67.7301 45.2411 67.6801 45.0711L67.5451 44.6061L67.4101 45.0711C67.3601 45.2411 67.3001 45.4131 67.2301 45.5881C67.1601 45.7631 67.0881 45.9311 67.0121 46.0911C66.9371 46.2511 66.8601 46.3811 66.7801 46.4811L66.5551 46.7811L64.9651 45.6561L65.2051 45.3411C65.2851 45.2311 65.3901 45.1161 65.5201 44.9961C65.6501 44.8761 65.7871 44.7581 65.9331 44.6431C66.0781 44.5281 66.2231 44.4181 66.3671 44.3131C66.5131 44.2081 66.6451 44.1161 66.7651 44.0361H66.2851C66.1051 44.0361 65.9201 44.0331 65.7301 44.0281C65.5401 44.0231 65.3601 44.0111 65.1901 43.9911C65.0201 43.9711 64.8701 43.9411 64.7401 43.9011L64.3801 43.7811L64.9801 41.9211L65.3401 42.0411C65.4601 42.0811 65.6001 42.1431 65.7601 42.2281C65.9201 42.3131 66.0771 42.4081 66.2321 42.5131C66.3881 42.6181 66.5371 42.7231 66.6821 42.8281C66.8281 42.9331 66.9551 43.0311 67.0651 43.1211C67.0151 42.9911 66.9631 42.8381 66.9081 42.6631C66.8521 42.4881 66.8001 42.3111 66.7501 42.1311C66.7001 41.9511 66.6581 41.7731 66.6231 41.5981C66.5871 41.4231 66.5701 41.2711 66.5701 41.1411V40.7661H68.5201V41.1411C68.5201 41.2711 68.5031 41.4231 68.4681 41.5981C68.4321 41.7731 68.3901 41.9511 68.3401 42.1311C68.2901 42.3111 68.2381 42.4881 68.1831 42.6631C68.1271 42.8381 68.0751 42.9911 68.0251 43.1211V43.1201ZM75.5551 43.1201C75.6551 43.0301 75.7801 42.9331 75.9301 42.8281C76.0801 42.7231 76.2321 42.6181 76.3871 42.5131C76.5431 42.4081 76.7001 42.3131 76.8601 42.2281C77.0201 42.1431 77.1601 42.0811 77.2801 42.0411L77.6401 41.9211L78.2401 43.7811L77.8801 43.9011C77.7501 43.9411 77.6001 43.9711 77.4301 43.9911C77.2601 44.0111 77.0801 44.0231 76.8901 44.0281C76.7001 44.0331 76.5151 44.0361 76.3351 44.0361H75.8551C75.9751 44.1161 76.1071 44.2081 76.2521 44.3131C76.3981 44.4181 76.5421 44.5281 76.6881 44.6431C76.8331 44.7581 76.9701 44.8761 77.1001 44.9961C77.2301 45.1161 77.3351 45.2311 77.4151 45.3411L77.6551 45.6561L76.0651 46.7811L75.8401 46.4811C75.7601 46.3811 75.6831 46.2511 75.6071 46.0911C75.5321 45.9311 75.4601 45.7631 75.3901 45.5881C75.3201 45.4131 75.2601 45.2411 75.2101 45.0711L75.0751 44.6061L74.9401 45.0711C74.8901 45.2411 74.8301 45.4131 74.7601 45.5881C74.6901 45.7631 74.6181 45.9311 74.5421 46.0911C74.4671 46.2511 74.3901 46.3811 74.3101 46.4811L74.0851 46.7811L72.4951 45.6561L72.7351 45.3411C72.8151 45.2311 72.9201 45.1161 73.0501 44.9961C73.1801 44.8761 73.3171 44.7581 73.4631 44.6431C73.6081 44.5281 73.7531 44.4181 73.8971 44.3131C74.0431 44.2081 74.1751 44.1161 74.2951 44.0361H73.8151C73.6351 44.0361 73.4501 44.0331 73.2601 44.0281C73.0701 44.0231 72.8901 44.0111 72.7201 43.9911C72.5501 43.9711 72.4001 43.9411 72.2701 43.9011L71.9101 43.7811L72.5101 41.9211L72.8701 42.0411C72.9901 42.0811 73.1301 42.1431 73.2901 42.2281C73.4501 42.3131 73.6071 42.4081 73.7621 42.5131C73.9181 42.6181 74.0671 42.7231 74.2121 42.8281C74.3581 42.9331 74.4851 43.0311 74.5951 43.1211C74.5451 42.9911 74.4931 42.8381 74.4381 42.6631C74.3821 42.4881 74.3301 42.3111 74.2801 42.1311C74.2301 41.9511 74.1881 41.7731 74.1531 41.5981C74.1171 41.4231 74.1001 41.2711 74.1001 41.1411V40.7661H76.0501V41.1411C76.0501 41.2711 76.0331 41.4231 75.9981 41.5981C75.9621 41.7731 75.9201 41.9511 75.8701 42.1311C75.8201 42.3111 75.7681 42.4881 75.7131 42.6631C75.6571 42.8381 75.6051 42.9911 75.5551 43.1211V43.1201ZM83.0851 43.1201C83.1851 43.0301 83.3101 42.9331 83.4601 42.8281C83.6101 42.7231 83.7621 42.6181 83.9181 42.5131C84.0731 42.4081 84.2301 42.3131 84.3901 42.2281C84.5501 42.1431 84.6901 42.0811 84.8101 42.0411L85.1701 41.9211L85.7701 43.7811L85.4101 43.9011C85.2801 43.9411 85.1301 43.9711 84.9601 43.9911C84.7901 44.0111 84.6101 44.0231 84.4201 44.0281C84.2301 44.0331 84.0451 44.0361 83.8651 44.0361H83.3851C83.5051 44.1161 83.6371 44.2081 83.7821 44.3131C83.9281 44.4181 84.0721 44.5281 84.2181 44.6431C84.3631 44.7581 84.5001 44.8761 84.6301 44.9961C84.7601 45.1161 84.8651 45.2311 84.9451 45.3411L85.1851 45.6561L83.5951 46.7811L83.3701 46.4811C83.2901 46.3811 83.2131 46.2511 83.1371 46.0911C83.0621 45.9311 82.9901 45.7631 82.9201 45.5881C82.8501 45.4131 82.7901 45.2411 82.7401 45.0711L82.6051 44.6061L82.4701 45.0711C82.4201 45.2411 82.3601 45.4131 82.2901 45.5881C82.2201 45.7631 82.1481 45.9311 82.0721 46.0911C81.9971 46.2511 81.9201 46.3811 81.8401 46.4811L81.6151 46.7811L80.0251 45.6561L80.2651 45.3411C80.3451 45.2311 80.4501 45.1161 80.5801 44.9961C80.7101 44.8761 80.8471 44.7581 80.9931 44.6431C81.1381 44.5281 81.2831 44.4181 81.4271 44.3131C81.5731 44.2081 81.7051 44.1161 81.8251 44.0361H81.3451C81.1651 44.0361 80.9801 44.0331 80.7901 44.0281C80.6001 44.0231 80.4201 44.0111 80.2501 43.9911C80.0801 43.9711 79.9301 43.9411 79.8001 43.9011L79.4401 43.7811L80.0401 41.9211L80.4001 42.0411C80.5201 42.0811 80.6601 42.1431 80.8201 42.2281C80.9801 42.3131 81.1371 42.4081 81.2931 42.5131C81.4481 42.6181 81.5971 42.7231 81.7431 42.8281C81.8881 42.9331 82.0151 43.0311 82.1251 43.1211C82.0751 42.9911 82.0231 42.8381 81.9681 42.6631C81.9121 42.4881 81.8601 42.3111 81.8101 42.1311C81.7601 41.9511 81.7181 41.7731 81.6831 41.5981C81.6471 41.4231 81.6301 41.2711 81.6301 41.1411V40.7661H83.5801V41.1411C83.5801 41.2711 83.5631 41.4231 83.5281 41.5981C83.4921 41.7731 83.4501 41.9511 83.4001 42.1311C83.3501 42.3111 83.2981 42.4881 83.2431 42.6631C83.1871 42.8381 83.1351 42.9911 83.0851 43.1211V43.1201Z" fill="white"/>
<defs>
<filter id="filter0_f" x="42.5" y="53.125" width="36.876" height="21.876" filterUnits="userSpaceOnUse" color-interpolation-filters="sRGB">
<feFlood flood-opacity="0" result="BackgroundImageFix"/>
<feBlend mode="normal" in="SourceGraphic" in2="BackgroundImageFix" result="shape"/>
<feGaussianBlur stdDeviation="3.75" result="effect1_foregroundBlur"/>
</filter>
<linearGradient id="paint0_linear" x1="6.25049" y1="24.5231" x2="78.6129" y2="92.178" gradientUnits="userSpaceOnUse">
<stop stop-color="#6A120C"/>
<stop offset="0.43781" stop-color="#B21F15"/>
<stop offset="0.79575" stop-color="#EE4C24"/>
<stop offset="1" stop-color="#FF7E00"/>
</linearGradient>
<linearGradient id="paint1_linear" x1="33.6611" y1="34.7634" x2="63.2443" y2="98.205" gradientUnits="userSpaceOnUse">
<stop stop-color="#1E7E99"/>
<stop offset="1" stop-color="#0D4860"/>
</linearGradient>
<linearGradient id="paint2_linear" x1="33.6608" y1="34.7634" x2="63.2441" y2="98.205" gradientUnits="userSpaceOnUse">
<stop stop-color="#1E7E99"/>
<stop offset="1" stop-color="#0D4860"/>
</linearGradient>
<linearGradient id="paint3_linear" x1="51.875" y1="35.842" x2="86.1304" y2="64.0526" gradientUnits="userSpaceOnUse">
<stop stop-color="#F8091E"/>
<stop offset="1" stop-color="#A9085A"/>
</linearGradient>
</defs>
</svg>
