<svg width="100" height="100" viewBox="0 0 100 100" fill="none" xmlns="http://www.w3.org/2000/svg">
<path d="M48.0149 91.875C74.4719 95 82.6559 78.75 82.6559 69.887C82.6559 50.476 66.2849 49.642 56.7939 42.054C49.6459 36.338 47.0269 20 30.3799 20C13.6729 20 5.28486 30.583 6.32386 50.476C7.36286 70.369 21.5579 88.75 48.0149 91.875Z" fill="url(#paint0_linear)"/>
<path d="M18.9129 78.247L14.83 76.7041L18.9129 75.1626L20.4551 71.0791L21.9973 75.1626L26.0801 76.7041L21.9973 78.247L20.4551 82.3292L18.9129 78.247Z" stroke="#FFB166" stroke-width="0.625" stroke-linecap="round" stroke-linejoin="round"/>
<path d="M66.3604 75.3893L65 74.8745L66.3604 74.3612L66.8745 73L67.3886 74.3612L68.749 74.8745L67.3886 75.3893L66.8745 76.7491L66.3604 75.3893Z" stroke="#FFB166" stroke-width="0.625" stroke-linecap="round" stroke-linejoin="round"/>
<path d="M34.3582 21.0966L33.5676 21.2818L34.2175 20.7961L33.4927 20.4305L34.3037 20.4764L33.9834 19.7304L34.5753 20.2855L34.8093 19.5084L34.9055 20.3145L35.5843 19.8705L35.1403 20.5493L35.9456 20.6447L35.1685 20.8788L35.7243 21.4713L34.9783 21.151L35.0236 21.9614L34.658 21.2366L34.1722 21.8864L34.3582 21.0966Z" fill="white"/>
<path d="M78.3006 72.7352L77.51 72.9205L78.1599 72.4347L77.4351 72.0691L78.2461 72.1151L77.9258 71.3691L78.5177 71.9242L78.7517 71.1471L78.8479 71.9532L79.5267 71.5091L79.0826 72.1879L79.888 72.2834L79.1109 72.5175L79.6667 73.11L78.9207 72.7897L78.966 73.6L78.6004 72.8753L78.1146 73.5251L78.3006 72.7352Z" fill="white"/>
<path d="M43.3006 85.8602L42.51 86.0455L43.1599 85.5597L42.4351 85.1942L43.2461 85.2401L42.9258 84.4941L43.5177 85.0492L43.7517 84.2721L43.8479 85.0782L44.5267 84.6341L44.0826 85.3129L44.888 85.4084L44.1109 85.6425L44.6667 86.235L43.9207 85.9147L43.966 86.725L43.6004 86.0003L43.1146 86.6501L43.3006 85.8602Z" fill="white"/>
<path d="M88.388 44.4159L87.2022 44.6938L88.1773 43.9648L87.0912 43.4161L88.3067 43.4847L87.8266 42.3653L88.714 43.199L89.0654 42.033L89.209 43.2428L90.2279 42.576L89.5604 43.5943L90.7703 43.7378L89.6042 44.0893L90.4379 44.9767L89.3193 44.4973L89.3872 45.7121L88.8384 44.6259L88.1094 45.601L88.388 44.4159Z" fill="white"/>
<path d="M72.4941 30.5687L70.9067 29.9683L72.4941 29.3694L73.0938 27.7812L73.6934 29.3694L75.2808 29.9683L73.6934 30.5687L73.0938 32.1554L72.4941 30.5687Z" stroke="#FFB166" stroke-width="0.625" stroke-linecap="round" stroke-linejoin="round"/>
<g opacity="0.3" filter="url(#filter0_f)">
<path d="M50 82C63.8071 82 75 76.8513 75 70.5C75 64.1487 63.8071 59 50 59C36.1929 59 25 64.1487 25 70.5C25 76.8513 36.1929 82 50 82Z" fill="#062430"/>
</g>
<path d="M62.2305 27.6328C62.2305 30.3301 61.4304 32.9668 59.9314 35.2092C58.4324 37.4515 56.3019 39.1989 53.8096 40.2301C51.3172 41.2612 48.5749 41.5299 45.9298 41.0021C43.2847 40.4742 40.8556 39.1736 38.9499 37.2648C37.0442 35.356 35.7476 32.9247 35.2241 30.2787C34.7006 27.6328 34.9738 24.891 36.009 22.4003C37.0443 19.9096 38.7951 17.782 41.04 16.2867C43.2848 14.7914 45.9228 13.9956 48.6201 14C52.2318 14.0059 55.6937 15.4449 58.2455 18.0009C60.7973 20.5569 62.2305 24.0211 62.2305 27.6328Z" fill="url(#paint1_linear)"/>
<path d="M72.1054 65.2433V70.8351C68.1168 73.3184 63.7557 75.1459 59.1883 76.248C53.4158 77.6679 47.4176 77.9196 41.5465 76.9881C35.6753 76.0566 30.0496 73.9608 25 70.8239V65.2321C25 58.9856 27.4814 52.9948 31.8984 48.5779C36.3154 44.1609 42.3061 41.6794 48.5527 41.6794C54.7993 41.6794 60.79 44.1609 65.207 48.5779C69.624 52.9948 72.1054 58.9856 72.1054 65.2321V65.2433Z" fill="url(#paint2_linear)"/>
<defs>
<filter id="filter0_f" x="15" y="49" width="70" height="43" filterUnits="userSpaceOnUse" color-interpolation-filters="sRGB">
<feFlood flood-opacity="0" result="BackgroundImageFix"/>
<feBlend mode="normal" in="SourceGraphic" in2="BackgroundImageFix" result="shape"/>
<feGaussianBlur stdDeviation="5" result="effect1_foregroundBlur"/>
</filter>
<linearGradient id="paint0_linear" x1="6.23779" y1="23.8179" x2="78.844" y2="92.4812" gradientUnits="userSpaceOnUse">
<stop stop-color="#0D4860"/>
<stop offset="1" stop-color="#1E7E99"/>
</linearGradient>
<linearGradient id="paint1_linear" x1="34.9648" y1="13.0272" x2="62.2305" y2="41.2657" gradientUnits="userSpaceOnUse">
<stop stop-color="#F8091E"/>
<stop offset="1" stop-color="#A9085A"/>
</linearGradient>
<linearGradient id="paint2_linear" x1="25" y1="40.4" x2="59.2461" y2="86.991" gradientUnits="userSpaceOnUse">
<stop stop-color="#F8091E"/>
<stop offset="1" stop-color="#A9085A"/>
</linearGradient>
</defs>
</svg>
