<svg width="100" height="100" viewBox="0 0 100 100" fill="none" xmlns="http://www.w3.org/2000/svg">
<g clip-path="url(#clip0)">
<path d="M50.8691 93.5791C82.6171 97.3291 92.4371 77.8291 92.4371 67.1931C92.4371 43.9001 72.7921 42.8991 61.4031 33.7931C52.8251 26.9341 49.6831 7.3291 29.7061 7.3291C9.65807 7.3291 -0.409928 20.0291 0.838072 43.9001C2.08507 67.7721 19.1201 89.8291 50.8681 93.5791H50.8691Z" fill="url(#paint0_linear)"/>
<g opacity="0.3" filter="url(#filter0_f)">
<path d="M61.5 70.3291C79.3112 70.3291 93.75 63.7813 93.75 55.7041C93.75 47.6269 79.3112 41.0791 61.5 41.0791C43.6888 41.0791 29.25 47.6269 29.25 55.7041C29.25 63.7813 43.6888 70.3291 61.5 70.3291Z" fill="#062430"/>
</g>
<path opacity="0.8" d="M55.5 65.8291C69.9975 65.8291 81.75 54.0766 81.75 39.5791C81.75 25.0816 69.9975 13.3291 55.5 13.3291C41.0025 13.3291 29.25 25.0816 29.25 39.5791C29.25 54.0766 41.0025 65.8291 55.5 65.8291Z" fill="url(#paint1_linear)"/>
<path d="M44.5381 37.1259C43.9401 36.5519 42.9911 36.5719 42.4181 37.1699C41.8441 37.7679 41.8641 38.7179 42.4621 39.2909L51.2521 47.7209C51.8341 48.2769 52.7501 48.2769 53.3301 47.7199L68.4861 33.1599C69.0841 32.5869 69.1031 31.6369 68.5291 31.0399C67.9551 30.4419 67.0051 30.4229 66.4081 30.9969L52.2901 44.5589L44.5381 37.1259Z" fill="white"/>
<path d="M12.9456 77.2255L8.0461 75.375L12.9456 73.5245L14.7961 68.625L16.6466 73.5245L21.5462 75.375L16.6466 77.2255L14.7961 82.1251L12.9456 77.2255Z" stroke="#F8B7A7" stroke-width="1.5" stroke-linecap="round" stroke-linejoin="round"/>
<path d="M68.5648 71.1274L66.9314 70.5108L68.5648 69.8942L69.1814 68.2607L69.7987 69.8935L71.4314 70.5108L69.798 71.1274L69.1814 72.7608L68.5648 71.1274Z" stroke="#FFB166" stroke-width="0.75" stroke-linecap="round" stroke-linejoin="round"/>
<path d="M35.4596 9.11156L34.5114 9.3343L35.2928 8.75094L34.4223 8.31182L35.3953 8.36698L35.0106 7.47178L35.7213 8.13858L36.002 7.20591L36.1166 8.17323L36.9318 7.63937L36.398 8.45466L37.366 8.56992L36.4333 8.85064L37.1001 9.56128L36.2049 9.17662L36.2594 10.1489L35.821 9.27915L35.2369 10.0598L35.4596 9.11156Z" fill="white"/>
<path d="M84.2094 70.6116L83.2612 70.8343L84.0425 70.2509L83.1721 69.8118L84.1451 69.867L83.7604 68.9718L84.471 69.6386L84.7518 68.7059L84.8663 69.6732L85.6816 69.1394L85.1477 69.9547L86.1158 70.0699L85.1831 70.3506L85.8499 71.0613L84.9547 70.6766L85.0091 71.6489L84.5707 70.7791L83.9867 71.5598L84.2094 70.6116Z" fill="white"/>
<path d="M42.2096 86.3616L41.2614 86.5843L42.0428 86.0009L41.1723 85.5618L42.1453 85.617L41.7606 84.7218L42.4713 85.3886L42.752 84.4559L42.8666 85.4232L43.6818 84.8894L43.148 85.7047L44.116 85.8199L43.1833 86.1006L43.8501 86.8113L42.9549 86.4266L43.0094 87.3989L42.571 86.5291L41.9869 87.3098L42.2096 86.3616Z" fill="white"/>
<path d="M96.3147 36.6273L94.892 36.9611L96.0622 36.0864L94.7576 35.4281L96.2171 35.5101L95.6408 34.1673L96.7057 35.1686L97.1279 33.7692L97.3004 35.2202L98.5223 34.4197L97.7218 35.6416L99.1728 35.8141L97.7734 36.2363L98.7747 37.3012L97.4319 36.7249L97.5139 38.1844L96.8556 36.8798L95.9809 38.05L96.3147 36.6273Z" fill="white"/>
<path d="M77.2423 20.0109L75.3374 19.291L77.243 18.5719L77.9622 16.6663L78.682 18.5712L80.5869 19.291L78.682 20.0109L77.9622 21.9158L77.2423 20.0109Z" stroke="#FFB166" stroke-width="0.75" stroke-linecap="round" stroke-linejoin="round"/>
</g>
<defs>
<filter id="filter0_f" x="17.25" y="29.0791" width="88.5" height="53.25" filterUnits="userSpaceOnUse" color-interpolation-filters="sRGB">
<feFlood flood-opacity="0" result="BackgroundImageFix"/>
<feBlend mode="normal" in="SourceGraphic" in2="BackgroundImageFix" result="shape"/>
<feGaussianBlur stdDeviation="6" result="effect1_foregroundBlur"/>
</filter>
<linearGradient id="paint0_linear" x1="-4.21456" y1="9.29336" x2="93.9962" y2="101.998" gradientUnits="userSpaceOnUse">
<stop stop-color="#284050"/>
<stop offset="0.51386" stop-color="#0EB37E"/>
<stop offset="1" stop-color="#FFCB99"/>
</linearGradient>
<linearGradient id="paint1_linear" x1="29.25" y1="13.3291" x2="81.4334" y2="65.5125" gradientUnits="userSpaceOnUse">
<stop stop-color="#6ED1B1"/>
<stop offset="1" stop-color="#FFCB99"/>
</linearGradient>
<clipPath id="clip0">
<rect width="100" height="100" fill="white"/>
</clipPath>
</defs>
</svg>
