<svg width="64" height="64" viewBox="0 0 64 64" fill="none" xmlns="http://www.w3.org/2000/svg">
<path d="M30.5692 58.8C45.3058 58.8 53.0396 52.6266 53.0396 43.3658C53.0396 28.2362 42.262 31.7709 36.1884 26.9146C31.6117 23.2564 30.5685 12.8 20.3388 12.8C9.64628 12.8 3.22196 19.5732 3.88692 32.3047C4.55188 45.0362 15.8332 58.8 30.5692 58.8Z" fill="url(#paint0_linear)"/>
<g opacity="0.3" filter="url(#filter0_f)">
<path d="M30.08 51.1452C37.8562 51.1452 44.16 48.2798 44.16 44.7452C44.16 41.2106 37.8562 38.3452 30.08 38.3452C22.3038 38.3452 16 41.2106 16 44.7452C16 48.2798 22.3038 51.1452 30.08 51.1452Z" fill="#062430"/>
</g>
<mask id="mask0" mask-type="alpha" maskUnits="userSpaceOnUse" x="3" y="4" width="59" height="56">
<path d="M30.5692 59.12C45.3058 59.12 61.4398 52.9465 61.4398 43.6857C61.4398 28.5561 61.4398 4.47998 61.4398 4.47998C61.4398 4.47998 30.5685 4.47998 20.3388 4.47998C9.64628 4.47998 3.22196 19.8931 3.88692 32.6246C4.55188 45.3561 15.8332 59.12 30.5692 59.12Z" fill="url(#paint1_linear)"/>
</mask>
<g mask="url(#mask0)">
<g clip-path="url(#clip0)">
<path d="M30.9782 13.8193L29.3159 14.2646L33.919 31.4434L35.5812 30.998C36.3882 30.7818 36.8784 30.0094 36.6796 29.2673L32.7948 14.7689C32.5959 14.0268 31.7852 13.603 30.9782 13.8193Z" fill="#D54C3F"/>
<path d="M33.9194 31.443L15.2251 36.4521L11.6519 23.1167L33.8036 31.0111L33.9194 31.443Z" fill="#E3E3E3"/>
<path d="M15.1865 36.3083L15.2251 36.4523L33.9194 31.4432L30.3076 17.9638L15.1865 36.3083Z" fill="#F3F3F3"/>
<path d="M8.97164 19.7157C8.16461 19.9319 7.67442 20.7043 7.87326 21.4464L11.7581 35.9448C11.9569 36.6869 12.7676 37.1107 13.5747 36.8945L15.2249 36.4523L10.6218 19.2735L8.97164 19.7157Z" fill="#D54C3F"/>
<path d="M15.2251 36.4521L33.9194 31.443L30.3462 18.1076L15.2251 36.4521Z" fill="#EAEAEA"/>
<path d="M20.0138 16.8875L9.0164 19.8343C8.20937 20.0505 7.70714 20.8261 7.90895 21.5793C8.02469 22.0113 8.36336 22.3597 8.81707 22.5112L22.759 27.1328L32.5222 16.1594C32.8394 15.8014 32.9585 15.3303 32.8427 14.8983C32.6439 14.1562 31.8181 13.7246 31.0111 13.9408L20.0138 16.8875Z" fill="#BA4E44"/>
<path opacity="0.04" d="M20.0138 16.8875L9.0164 19.8343C8.20937 20.0505 7.70714 20.8261 7.90895 21.5793C8.02469 22.0113 8.36336 22.3597 8.81707 22.5112L28.6223 32.8744L35.5845 31.0088C36.3915 30.7926 36.8817 30.0202 36.6829 29.2781L32.8307 14.9015C32.6318 14.1594 31.8061 13.7278 30.9991 13.944L20.0138 16.8875Z" fill="#020202"/>
<path d="M19.981 16.7657L8.98369 19.7124C8.17665 19.9287 7.67739 20.7154 7.87623 21.4575C7.99197 21.8894 8.33064 22.2379 8.78435 22.3894L22.7262 27.011L32.4895 16.0376C32.8067 15.6796 32.9257 15.2084 32.81 14.7765C32.6112 14.0344 31.7854 13.6027 30.9784 13.819L19.981 16.7657Z" fill="#DD4E42"/>
<path d="M30.5205 13.9419L19.9809 16.7659L9.4292 19.5933L21.8417 23.7106L30.5205 13.9419Z" fill="#EFEFEF"/>
</g>
<g clip-path="url(#clip1)">
<path d="M17.7878 55.1668L27.3344 44.2092L13.588 39.493C13.1809 39.3542 12.7686 39.7165 12.8765 40.1192L16.8585 54.9802C16.9664 55.3829 17.505 55.4917 17.7878 55.1668Z" fill="url(#paint2_linear)"/>
<path d="M41.0176 48.9424L27.2712 44.2261L36.8178 33.2685C37.101 32.9449 37.6392 33.0525 37.7471 33.4552L41.7291 48.3161C41.837 48.7189 41.425 49.0824 41.0176 48.9424Z" fill="url(#paint3_linear)"/>
<path d="M41.7159 48.0145L41.6516 47.7746C41.6084 47.613 41.486 47.4846 41.323 47.4283L28.1164 42.8619C27.3878 42.5389 26.4503 42.7901 25.9808 43.4341L16.8294 53.9914C16.7163 54.1216 16.6749 54.2952 16.7179 54.4556L16.7822 54.6955C16.9294 55.2449 17.5148 55.5649 18.0903 55.4107L40.9406 49.288C41.5162 49.1338 41.8631 48.5639 41.7159 48.0145Z" fill="#FDD538"/>
<path d="M41.7828 48.263L41.7185 48.0231C41.6752 47.8615 41.5529 47.7331 41.3899 47.6769L28.1833 43.1104C27.4547 42.7874 26.5172 43.0386 26.0477 43.6826L16.8963 54.2399C16.7832 54.3701 16.7418 54.5438 16.7848 54.7041L16.8491 54.944C16.9963 55.4934 17.5817 55.8135 18.1572 55.6592L41.0075 49.5365C41.5831 49.3823 41.93 48.8124 41.7828 48.263Z" fill="url(#paint4_linear)"/>
<path opacity="0.5" d="M12.8861 40.1553L13.1469 41.1285C13.1918 41.2963 13.3223 41.4292 13.4954 41.4814L26.2387 45.3394C27.1573 45.7207 28.2433 45.4297 28.8495 44.6398L37.9565 34.9271C38.079 34.7957 38.1269 34.615 38.0819 34.4472L37.8211 33.4739C37.6739 32.9245 37.0885 32.6045 36.513 32.7587L13.6614 38.8818C13.0858 39.036 12.7389 39.6059 12.8861 40.1553Z" fill="#F7BF20"/>
<path d="M12.8861 40.1553L12.9504 40.3952C12.9936 40.5567 13.116 40.6852 13.279 40.7414L26.4856 45.3079C27.2142 45.6309 28.1517 45.3797 28.6212 44.7357L37.7743 34.1792C37.8873 34.049 37.9287 33.8754 37.8857 33.7151L37.8211 33.4739C37.6739 32.9245 37.0885 32.6045 36.513 32.7587L13.6614 38.8818C13.0858 39.036 12.7389 39.6059 12.8861 40.1553Z" fill="url(#paint5_linear)"/>
</g>
<g clip-path="url(#clip2)">
<path fill-rule="evenodd" clip-rule="evenodd" d="M45.5893 15.3156C40.5796 16.658 37.6477 22.011 39.0515 27.2499C39.6081 29.3274 40.7666 31.0814 42.274 32.3564L42.0846 36.1877L45.2614 34.0838C46.9613 34.6915 48.8337 34.8096 50.6802 34.3148C55.6877 32.973 58.6211 27.6196 57.2175 22.3815C55.814 17.1434 50.5969 13.9738 45.5893 15.3156Z" fill="url(#paint6_linear)"/>
<path fill-rule="evenodd" clip-rule="evenodd" d="M58.3536 21.9911C59.9465 27.9356 56.6297 33.9909 50.9454 35.514C49.14 35.9977 47.3143 35.9665 45.6111 35.5077L40.4237 38.9439L40.7336 32.6708C39.3613 31.2992 38.3125 29.5414 37.7677 27.5079C36.1742 21.5611 39.4912 15.5066 45.1763 13.9833C50.8606 12.4602 56.7604 16.0451 58.3536 21.9911ZM45.6357 15.698C40.8625 16.9769 38.0693 22.0769 39.4066 27.0679C39.937 29.0474 41.0401 30.7178 42.4765 31.9332L42.2967 35.5832L45.3236 33.579C46.9427 34.1579 48.7274 34.2705 50.4859 33.7993C55.2569 32.5209 58.0516 27.4206 56.7145 22.4303C55.3771 17.4393 50.4067 14.4196 45.6357 15.698ZM53.9226 25.8361C53.8293 25.7428 53.6433 25.7223 53.3567 25.6576C53.0686 25.5933 51.6568 25.2873 51.4018 25.2613C51.1475 25.2351 50.9658 25.2367 50.8695 25.5454C50.7718 25.8546 50.4477 26.5786 50.3469 26.7942C50.2478 27.0103 50.1062 27.0706 49.8189 27.0061C49.5308 26.9418 48.6422 26.8803 47.4385 26.2405C46.5016 25.7411 45.7635 25.0138 45.5448 24.7894C45.3276 24.5646 45.4213 24.3873 45.5112 24.2217C45.5929 24.0724 45.6814 23.8459 45.7662 23.6586C45.8515 23.4702 45.8635 23.3479 45.9005 23.1493C45.9376 22.9507 45.8547 22.8082 45.7556 22.6933C45.658 22.578 44.8047 21.4148 44.4528 20.9423C44.1027 20.471 43.897 20.5468 43.749 20.5865C43.6025 20.6257 43.3425 20.745 43.3425 20.745C43.3425 20.745 42.854 20.9463 42.694 21.2721C42.534 21.598 42.0532 22.4111 42.401 23.7088C42.7489 25.0074 43.9883 26.0207 44.162 26.162C44.3361 26.3048 46.6913 28.6227 49.5399 28.9914C52.3878 29.3602 52.2935 29.0082 52.7444 28.8394C53.195 28.6723 54.0662 27.8017 54.1111 27.1286C54.1565 26.4569 54.015 25.9289 53.9226 25.8361Z" fill="white"/>
</g>
</g>
<mask id="mask1" mask-type="alpha" maskUnits="userSpaceOnUse" x="3" y="12" width="51" height="47">
<path d="M30.5692 58.8C45.3058 58.8 53.0396 52.6266 53.0396 43.3658C53.0396 28.2362 42.262 31.7709 36.1884 26.9146C31.6117 23.2564 30.5685 12.8 20.3388 12.8C9.64628 12.8 3.22196 19.5732 3.88692 32.3047C4.55188 45.0362 15.8332 58.8 30.5692 58.8Z" fill="url(#paint7_linear)"/>
</mask>
<g mask="url(#mask1)">
<path d="M30.5692 58.8C45.3058 58.8 53.0396 52.6266 53.0396 43.3658C53.0396 28.2362 42.262 31.7709 36.1884 26.9146C31.6117 23.2564 30.5685 12.8 20.3388 12.8C9.64628 12.8 3.22196 19.5732 3.88692 32.3047C4.55188 45.0362 15.8332 58.8 30.5692 58.8Z" fill="url(#paint8_linear)"/>
<g clip-path="url(#clip3)">
<path d="M30.9782 13.8193L29.3159 14.2646L33.919 31.4434L35.5812 30.998C36.3882 30.7818 36.8784 30.0094 36.6796 29.2673L32.7948 14.7689C32.5959 14.0268 31.7852 13.603 30.9782 13.8193Z" fill="#D54C3F"/>
<path d="M33.9194 31.443L15.2251 36.4521L11.6519 23.1167L33.8036 31.0111L33.9194 31.443Z" fill="#E3E3E3"/>
<path d="M15.1865 36.3083L15.2251 36.4523L33.9194 31.4432L30.3076 17.9638L15.1865 36.3083Z" fill="#F3F3F3"/>
<path d="M8.97164 19.7157C8.16461 19.9319 7.67442 20.7043 7.87326 21.4464L11.7581 35.9448C11.9569 36.6869 12.7677 37.1107 13.5747 36.8945L15.2249 36.4523L10.6218 19.2735L8.97164 19.7157Z" fill="#D54C3F"/>
<path d="M15.2251 36.4521L33.9194 31.443L30.3462 18.1076L15.2251 36.4521Z" fill="#EAEAEA"/>
<path d="M20.0138 16.8875L9.0164 19.8343C8.20937 20.0505 7.70714 20.8261 7.90895 21.5793C8.02469 22.0113 8.36336 22.3597 8.81707 22.5112L22.759 27.1328L32.5222 16.1594C32.8394 15.8014 32.9585 15.3303 32.8427 14.8983C32.6439 14.1562 31.8181 13.7246 31.0111 13.9408L20.0138 16.8875Z" fill="#BA4E44"/>
<path opacity="0.04" d="M20.0138 16.8875L9.0164 19.8343C8.20937 20.0505 7.70714 20.8261 7.90895 21.5793C8.02469 22.0113 8.36336 22.3597 8.81707 22.5112L28.6223 32.8744L35.5845 31.0088C36.3915 30.7926 36.8817 30.0202 36.6829 29.2781L32.8307 14.9015C32.6318 14.1594 31.8061 13.7278 30.9991 13.944L20.0138 16.8875Z" fill="#020202"/>
<path d="M19.981 16.7657L8.98369 19.7124C8.17665 19.9287 7.67739 20.7154 7.87623 21.4575C7.99197 21.8894 8.33064 22.2379 8.78435 22.3894L22.7262 27.011L32.4895 16.0376C32.8067 15.6796 32.9257 15.2084 32.81 14.7765C32.6112 14.0344 31.7854 13.6027 30.9784 13.819L19.981 16.7657Z" fill="#DD4E42"/>
<path d="M30.5205 13.9419L19.9809 16.7659L9.4292 19.5933L21.8417 23.7106L30.5205 13.9419Z" fill="#EFEFEF"/>
</g>
<g clip-path="url(#clip4)">
<path d="M17.7878 55.1668L27.3344 44.2092L13.588 39.493C13.1809 39.3542 12.7686 39.7165 12.8765 40.1192L16.8585 54.9802C16.9664 55.3829 17.505 55.4917 17.7878 55.1668Z" fill="url(#paint9_linear)"/>
<path d="M41.0176 48.9424L27.2712 44.2261L36.8178 33.2685C37.101 32.9449 37.6392 33.0525 37.7471 33.4552L41.7291 48.3161C41.837 48.7189 41.425 49.0824 41.0176 48.9424Z" fill="url(#paint10_linear)"/>
<path d="M41.7159 48.0145L41.6516 47.7746C41.6084 47.613 41.486 47.4846 41.323 47.4283L28.1164 42.8619C27.3878 42.5389 26.4503 42.7901 25.9808 43.4341L16.8294 53.9914C16.7163 54.1216 16.6749 54.2952 16.7179 54.4556L16.7822 54.6955C16.9294 55.2449 17.5148 55.5649 18.0903 55.4107L40.9406 49.288C41.5162 49.1338 41.8631 48.5639 41.7159 48.0145Z" fill="#FDD538"/>
<path d="M41.7828 48.263L41.7185 48.0231C41.6752 47.8615 41.5529 47.7331 41.3899 47.6769L28.1833 43.1104C27.4547 42.7874 26.5172 43.0386 26.0477 43.6826L16.8963 54.2399C16.7832 54.3701 16.7418 54.5438 16.7848 54.7041L16.8491 54.944C16.9963 55.4934 17.5817 55.8135 18.1572 55.6592L41.0075 49.5365C41.5831 49.3823 41.93 48.8124 41.7828 48.263Z" fill="url(#paint11_linear)"/>
<path opacity="0.5" d="M12.8861 40.1553L13.1469 41.1285C13.1918 41.2963 13.3223 41.4292 13.4954 41.4814L26.2387 45.3394C27.1573 45.7207 28.2433 45.4297 28.8495 44.6398L37.9565 34.9271C38.079 34.7957 38.1269 34.615 38.0819 34.4472L37.8211 33.4739C37.6739 32.9245 37.0885 32.6045 36.513 32.7587L13.6614 38.8818C13.0858 39.036 12.7389 39.6059 12.8861 40.1553Z" fill="#F7BF20"/>
<path d="M12.8861 40.1553L12.9504 40.3952C12.9936 40.5567 13.116 40.6852 13.279 40.7414L26.4856 45.3079C27.2142 45.6309 28.1517 45.3797 28.6212 44.7357L37.7743 34.1792C37.8873 34.049 37.9287 33.8754 37.8857 33.7151L37.8211 33.4739C37.6739 32.9245 37.0885 32.6045 36.513 32.7587L13.6614 38.8818C13.0858 39.036 12.7389 39.6059 12.8861 40.1553Z" fill="url(#paint12_linear)"/>
</g>
<g clip-path="url(#clip5)">
<path fill-rule="evenodd" clip-rule="evenodd" d="M45.5893 15.3156C40.5796 16.658 37.6477 22.011 39.0515 27.2499C39.6081 29.3274 40.7666 31.0814 42.274 32.3564L42.0846 36.1877L45.2614 34.0838C46.9613 34.6915 48.8337 34.8096 50.6802 34.3148C55.6877 32.973 58.6211 27.6196 57.2175 22.3815C55.814 17.1434 50.5969 13.9738 45.5893 15.3156Z" fill="url(#paint13_linear)"/>
<path fill-rule="evenodd" clip-rule="evenodd" d="M58.3536 21.9911C59.9465 27.9356 56.6297 33.9909 50.9454 35.514C49.14 35.9977 47.3143 35.9665 45.6111 35.5077L40.4237 38.9439L40.7336 32.6708C39.3613 31.2992 38.3126 29.5414 37.7677 27.5079C36.1742 21.5611 39.4912 15.5066 45.1763 13.9833C50.8606 12.4602 56.7604 16.0451 58.3536 21.9911ZM45.6357 15.698C40.8625 16.9769 38.0693 22.0769 39.4066 27.0679C39.937 29.0474 41.0401 30.7178 42.4765 31.9332L42.2967 35.5832L45.3236 33.579C46.9427 34.1579 48.7274 34.2705 50.4859 33.7993C55.2569 32.5209 58.0516 27.4206 56.7145 22.4303C55.3771 17.4393 50.4067 14.4196 45.6357 15.698ZM53.9226 25.8361C53.8293 25.7428 53.6433 25.7223 53.3567 25.6576C53.0686 25.5933 51.6568 25.2873 51.4018 25.2613C51.1475 25.2351 50.9658 25.2367 50.8696 25.5454C50.7718 25.8546 50.4477 26.5786 50.3469 26.7942C50.2478 27.0103 50.1062 27.0706 49.8189 27.0061C49.5308 26.9418 48.6422 26.8803 47.4385 26.2406C46.5016 25.7411 45.7635 25.0138 45.5448 24.7894C45.3276 24.5646 45.4213 24.3873 45.5112 24.2217C45.5929 24.0724 45.6814 23.8459 45.7662 23.6586C45.8515 23.4702 45.8635 23.3479 45.9005 23.1493C45.9376 22.9507 45.8547 22.8082 45.7556 22.6933C45.658 22.578 44.8047 21.4148 44.4528 20.9423C44.1027 20.471 43.897 20.5468 43.749 20.5865C43.6025 20.6257 43.3425 20.745 43.3425 20.745C43.3425 20.745 42.854 20.9463 42.694 21.2721C42.534 21.598 42.0532 22.4111 42.401 23.7088C42.7489 25.0074 43.9883 26.0207 44.162 26.162C44.3361 26.3048 46.6913 28.6227 49.5399 28.9914C52.3878 29.3602 52.2935 29.0082 52.7444 28.8394C53.195 28.6723 54.0662 27.8017 54.1111 27.1286C54.1565 26.4569 54.015 25.9289 53.9226 25.8361Z" fill="white"/>
</g>
</g>
<path d="M12.1043 50.0782L9.49128 49.0907L12.1043 48.1042L13.0913 45.4907L14.0783 48.1042L16.6913 49.0907L14.0783 50.0782L13.0913 52.6908L12.1043 50.0782Z" stroke="#FFB166" stroke-width="0.625" stroke-linecap="round" stroke-linejoin="round"/>
<path d="M39.2706 53.3693L38.3999 53.0398L39.2706 52.7112L39.5996 51.8401L39.9286 52.7112L40.7993 53.0398L39.9286 53.3693L39.5996 54.2395L39.2706 53.3693Z" stroke="#FFB166" stroke-width="0.625" stroke-linecap="round" stroke-linejoin="round"/>
<path d="M24.1122 13.7505L23.6063 13.8691L24.0222 13.5582L23.5583 13.3242L24.0774 13.3536L23.8724 12.8762L24.2511 13.2314L24.4009 12.7341L24.4625 13.25L24.8969 12.9658L24.6127 13.4002L25.1282 13.4613L24.6308 13.6111L24.9865 13.9903L24.5091 13.7853L24.5381 14.304L24.3041 13.8401L23.9932 14.256L24.1122 13.7505Z" fill="white"/>
<path d="M50.1122 46.5505L49.6063 46.6691L50.0222 46.3582L49.5583 46.1242L50.0774 46.1537L49.8724 45.6762L50.2511 46.0315L50.4009 45.5341L50.4625 46.05L50.8969 45.7658L50.6127 46.2003L51.1282 46.2614L50.6308 46.4112L50.9865 46.7904L50.5091 46.5854L50.5381 47.104L50.3041 46.6402L49.9932 47.056L50.1122 46.5505Z" fill="white"/>
<path d="M27.7123 54.9505L27.2064 55.069L27.6223 54.7581L27.1584 54.5242L27.6775 54.5536L27.4725 54.0761L27.8512 54.4314L28.001 53.934L28.0626 54.4499L28.497 54.1657L28.2128 54.6002L28.7283 54.6613L28.2309 54.8111L28.5866 55.1903L28.1092 54.9853L28.1382 55.5039L27.9042 55.0401L27.5933 55.456L27.7123 54.9505Z" fill="white"/>
<path d="M38.4244 21.8535L37.6655 22.0313L38.2896 21.5647L37.5945 21.2136L38.3724 21.2575L38.0651 20.5411L38.6331 21.0746L38.858 20.3284L38.9498 21.1027L39.602 20.6759L39.1748 21.3276L39.9491 21.4195L39.2028 21.6444L39.7364 22.2123L39.0204 21.9055L39.0639 22.683L38.7127 21.9879L38.2461 22.6119L38.4244 21.8535Z" fill="white"/>
<path d="M12.5362 26.7439L11.5202 26.3597L12.5362 25.9764L12.9199 24.96L13.3037 25.9764L14.3197 26.3597L13.3037 26.7439L12.9199 27.7594L12.5362 26.7439Z" stroke="#FFB166" stroke-width="0.625" stroke-linecap="round" stroke-linejoin="round"/>
<defs>
<filter id="filter0_f" x="6" y="28.3452" width="48.16" height="32.8" filterUnits="userSpaceOnUse" color-interpolation-filters="sRGB">
<feFlood flood-opacity="0" result="BackgroundImageFix"/>
<feBlend mode="normal" in="SourceGraphic" in2="BackgroundImageFix" result="shape"/>
<feGaussianBlur stdDeviation="5" result="effect1_foregroundBlur"/>
</filter>
<linearGradient id="paint0_linear" x1="53.1198" y1="58.8801" x2="3.83984" y2="12.8" gradientUnits="userSpaceOnUse">
<stop stop-color="#1E7E99"/>
<stop offset="1" stop-color="#0D4860"/>
</linearGradient>
<linearGradient id="paint1_linear" x1="53.1195" y1="59.2" x2="3.83952" y2="13.1199" gradientUnits="userSpaceOnUse">
<stop stop-color="#1E7E99"/>
<stop offset="1" stop-color="#0D4860"/>
</linearGradient>
<linearGradient id="paint2_linear" x1="18.9839" y1="37.9779" x2="23.2069" y2="53.7384" gradientUnits="userSpaceOnUse">
<stop stop-color="#F7DD52"/>
<stop offset="1" stop-color="#FCC534"/>
</linearGradient>
<linearGradient id="paint3_linear" x1="31.3873" y1="34.6544" x2="35.6103" y2="50.4149" gradientUnits="userSpaceOnUse">
<stop stop-color="#F7DD52"/>
<stop offset="1" stop-color="#FCC534"/>
</linearGradient>
<linearGradient id="paint4_linear" x1="27.0275" y1="43.0619" x2="29.5298" y2="52.4005" gradientUnits="userSpaceOnUse">
<stop offset="1.24601e-07" stop-color="#FCDC0A"/>
<stop offset="1" stop-color="#F5AD1A"/>
</linearGradient>
<linearGradient id="paint5_linear" x1="25.0813" y1="35.7999" x2="27.6297" y2="45.3108" gradientUnits="userSpaceOnUse">
<stop offset="2.44409e-07" stop-color="#FEF052"/>
<stop offset="1" stop-color="#FED130"/>
</linearGradient>
<linearGradient id="paint6_linear" x1="52.9403" y1="15.1329" x2="39.2077" y2="38.2209" gradientUnits="userSpaceOnUse">
<stop stop-color="#4ED74F"/>
<stop offset="1" stop-color="#13A54F"/>
</linearGradient>
<linearGradient id="paint7_linear" x1="53.1198" y1="58.8801" x2="3.83984" y2="12.8" gradientUnits="userSpaceOnUse">
<stop stop-color="#1E7E99"/>
<stop offset="1" stop-color="#0D4860"/>
</linearGradient>
<linearGradient id="paint8_linear" x1="53.1198" y1="58.8801" x2="3.83984" y2="12.8" gradientUnits="userSpaceOnUse">
<stop stop-color="#1E7E99"/>
<stop offset="1" stop-color="#0D4860"/>
</linearGradient>
<linearGradient id="paint9_linear" x1="18.9839" y1="37.9779" x2="23.2069" y2="53.7384" gradientUnits="userSpaceOnUse">
<stop stop-color="#F7DD52"/>
<stop offset="1" stop-color="#FCC534"/>
</linearGradient>
<linearGradient id="paint10_linear" x1="31.3873" y1="34.6544" x2="35.6103" y2="50.4149" gradientUnits="userSpaceOnUse">
<stop stop-color="#F7DD52"/>
<stop offset="1" stop-color="#FCC534"/>
</linearGradient>
<linearGradient id="paint11_linear" x1="27.0275" y1="43.0619" x2="29.5298" y2="52.4005" gradientUnits="userSpaceOnUse">
<stop offset="1.24601e-07" stop-color="#FCDC0A"/>
<stop offset="1" stop-color="#F5AD1A"/>
</linearGradient>
<linearGradient id="paint12_linear" x1="25.0813" y1="35.7999" x2="27.6297" y2="45.3108" gradientUnits="userSpaceOnUse">
<stop offset="2.44409e-07" stop-color="#FEF052"/>
<stop offset="1" stop-color="#FED130"/>
</linearGradient>
<linearGradient id="paint13_linear" x1="52.9403" y1="15.1329" x2="39.2077" y2="38.2209" gradientUnits="userSpaceOnUse">
<stop stop-color="#4ED74F"/>
<stop offset="1" stop-color="#13A54F"/>
</linearGradient>
<clipPath id="clip0">
<rect width="28.16" height="27.52" fill="white" transform="translate(5.11963 15.7026) rotate(-15)"/>
</clipPath>
<clipPath id="clip1">
<rect width="28.16" height="26.88" fill="white" transform="translate(10.2544 34.8667) rotate(-15)"/>
</clipPath>
<clipPath id="clip2">
<rect width="23.68" height="24.96" fill="white" transform="translate(33.2798 16.0942) rotate(-15)"/>
</clipPath>
<clipPath id="clip3">
<rect width="28.16" height="27.52" fill="white" transform="translate(5.11963 15.7026) rotate(-15)"/>
</clipPath>
<clipPath id="clip4">
<rect width="28.16" height="26.88" fill="white" transform="translate(10.2544 34.8667) rotate(-15)"/>
</clipPath>
<clipPath id="clip5">
<rect width="23.68" height="24.96" fill="white" transform="translate(33.2798 16.0942) rotate(-15)"/>
</clipPath>
</defs>
</svg>
