<svg width="100" height="100" viewBox="0 0 100 100" fill="none" xmlns="http://www.w3.org/2000/svg">
<path d="M48.0151 91.875C74.4721 95 82.6561 78.75 82.6561 69.887C82.6561 50.476 66.2851 49.642 56.7941 42.054C49.6461 36.338 47.0271 20 30.3801 20C13.6731 20 5.28511 30.583 6.32411 50.476C7.36311 70.369 21.5581 88.75 48.0151 91.875Z" fill="url(#paint0_linear)"/>
<g opacity="0.1" filter="url(#filter0_f)">
<path d="M56.875 72.501C71.7177 72.501 83.75 67.0442 83.75 60.313C83.75 53.5818 71.7177 48.125 56.875 48.125C42.0323 48.125 30 53.5818 30 60.313C30 67.0442 42.0323 72.501 56.875 72.501Z" fill="#062430"/>
</g>
<path opacity="0.8" d="M51.875 68.75C63.9562 68.75 73.75 58.9562 73.75 46.875C73.75 34.7938 63.9562 25 51.875 25C39.7938 25 30 34.7938 30 46.875C30 58.9562 39.7938 68.75 51.875 68.75Z" fill="url(#paint1_linear)"/>
<path d="M43.9201 37.152L61.5981 54.83L59.8301 56.598L42.1521 38.92L43.9201 37.152Z" fill="white"/>
<path d="M59.8301 37.152L42.1521 54.83L43.9201 56.598L61.5981 38.92L59.8301 37.152Z" fill="white"/>
<defs>
<filter id="filter0_f" x="20" y="38.125" width="73.75" height="44.376" filterUnits="userSpaceOnUse" color-interpolation-filters="sRGB">
<feFlood flood-opacity="0" result="BackgroundImageFix"/>
<feBlend mode="normal" in="SourceGraphic" in2="BackgroundImageFix" result="shape"/>
<feGaussianBlur stdDeviation="5" result="effect1_foregroundBlur"/>
</filter>
<linearGradient id="paint0_linear" x1="6.23804" y1="20" x2="78.3939" y2="96.2991" gradientUnits="userSpaceOnUse">
<stop stop-color="#EE4C24"/>
<stop offset="1" stop-color="#FF7E00"/>
</linearGradient>
<linearGradient id="paint1_linear" x1="30" y1="25" x2="73.75" y2="68.75" gradientUnits="userSpaceOnUse">
<stop stop-color="#FF9733"/>
<stop offset="1" stop-color="#FF7E00"/>
</linearGradient>
</defs>
</svg>
