<svg width="100" height="100" viewBox="0 0 100 100" fill="none" xmlns="http://www.w3.org/2000/svg">
<g clip-path="url(#clip0)">
<path d="M48.0637 91.9669C71.1125 91.9669 83.2081 82.3106 83.2081 67.8269C83.2081 44.1625 66.3512 49.6919 56.8518 42.0956C49.695 36.3744 48.0631 20.02 32.0625 20.02C15.3381 20.02 5.28997 30.6138 6.32997 50.5263C7.36997 70.4388 25.0143 91.9669 48.0637 91.9669Z" fill="url(#paint0_linear)"/>
<mask id="mask0" mask-type="alpha" maskUnits="userSpaceOnUse" x="15" y="21" width="64" height="64">
<path d="M15.1963 74.2349L44.125 21.0449L78.975 55.993L26.2088 84.7443C24.5732 84.0268 22.5482 82.4724 20.1338 80.0799C17.7188 77.6881 16.0732 75.7393 15.1963 74.2349Z" fill="white"/>
</mask>
<g mask="url(#mask0)">
<path d="M15.1963 74.2349L44.125 21.0449L78.975 55.993L26.2088 84.7443C24.5732 84.0268 22.5482 82.4724 20.1338 80.0799C17.7188 77.6881 16.0732 75.7393 15.1963 74.2349Z" fill="url(#paint1_linear)"/>
<path d="M35.762 28.7786C37.6013 37.0243 41.6544 44.2806 47.9211 50.5473C54.1874 56.8136 60.5584 61.0677 67.0333 63.3088L60.0365 70.3092C52.6167 68.2033 46.0128 64.2563 40.2251 58.4687C34.437 52.6805 30.3155 45.6431 27.86 37.3558L35.762 28.7786Z" fill="#A82219"/>
<path d="M21.1931 42.5427C24.181 49.623 28.8091 56.2963 35.0753 62.5626C41.3421 68.8294 48.6589 74.1 57.0257 78.3753L53.0204 83.8337C43.5368 79.6145 35.9009 74.6109 30.1128 68.8227C24.3251 63.0351 20.0679 55.9662 17.342 47.6153L21.1926 42.5422L21.1931 42.5427Z" fill="#A82219"/>
</g>
<path d="M57.9185 41.8484C67.447 51.377 76.7559 57.5169 78.7105 55.5623C80.6651 53.6077 74.5252 44.2988 64.9966 34.7703C55.4681 25.2417 46.1592 19.1018 44.2046 21.0564C42.25 23.011 48.3899 32.3199 57.9185 41.8484Z" fill="#5F130E"/>
<path d="M51.675 28.9026C54.8088 25.7463 55.0813 20.8645 52.4938 14.2563" stroke="#FF7E00" stroke-width="1.852" stroke-linecap="round" stroke-linejoin="round"/>
<path d="M61.1218 40.1157C63.4506 38.1695 64.7206 36.7588 64.9318 35.8845C66.7487 28.3607 64.1762 26.2682 61.9356 28.7563C57.9887 33.1401 69.8875 38.5626 71.5456 25.5013C72.6506 16.7945 74.2468 10.4976 76.3362 6.61133" stroke="#F4837B" stroke-width="1.852" stroke-linecap="round" stroke-linejoin="round"/>
<path d="M73.8237 46.9739C77.74 45.472 81.6187 45.2682 85.4594 46.3639C89.2994 47.4595 91.8693 49.4001 93.1693 52.1851" stroke="#0EB37E" stroke-width="1.852" stroke-linecap="round" stroke-linejoin="round"/>
<path d="M73.9762 40.1289C73.8156 35.9507 75.1875 34.6832 78.0931 36.3257C80.9987 37.9682 83.0194 36.9382 84.1562 33.2364C85.075 29.7939 87.3519 28.9332 90.9894 30.6545C94.6269 32.3757 96.555 30.917 96.775 26.2764" stroke="#115B79" stroke-width="1.852" stroke-linecap="round" stroke-linejoin="round"/>
<path d="M52.563 29.7838C52.0755 30.2738 51.2837 30.2769 50.793 29.79C50.303 29.3025 50.2999 28.5106 50.7868 28.02C53.5099 25.2775 53.7543 20.9063 51.3287 14.7119C51.0762 14.0681 51.3937 13.3431 52.0374 13.0906C52.6812 12.8388 53.4062 13.1556 53.6587 13.7994C56.4087 20.8213 56.1074 26.2138 52.563 29.7838Z" fill="#FF7E00"/>
<path d="M70.3023 25.3443C71.4254 16.4974 73.0554 10.0693 75.2323 6.01932C75.5592 5.41057 76.3179 5.18182 76.9267 5.50932C77.5354 5.8362 77.7642 6.59495 77.4367 7.20307C75.4367 10.9262 73.8729 17.0906 72.7848 25.6593C72.1098 30.9762 69.6248 34.1668 66.4398 34.8231C66.3567 35.2606 66.2586 35.7124 66.1461 36.1781C65.8473 37.4162 64.4673 38.9487 61.9223 41.0762C61.3923 41.5193 60.6036 41.4487 60.1598 40.9181C59.7167 40.3881 59.7873 39.5993 60.3173 39.1556C62.4298 37.3899 63.5905 36.1012 63.7142 35.5906C63.7773 35.3281 63.8355 35.0718 63.888 34.8218C60.4517 34.1237 58.5061 30.6943 61.0042 27.9193C62.6367 26.1068 64.8392 25.9556 66.0248 27.9193C66.6111 28.8893 66.8648 30.3006 66.7811 32.0818C68.4848 31.2649 69.8298 29.0656 70.3023 25.3443ZM63.883 29.2131C63.6861 28.8874 63.488 28.9006 62.8642 29.5943C61.9055 30.6587 62.5967 31.9693 64.2598 32.3443C64.3761 30.8606 64.2286 29.7849 63.883 29.2131Z" fill="#F4837B"/>
<path d="M74.2718 48.1418C73.6268 48.3887 72.9031 48.0668 72.6556 47.4212C72.4081 46.7762 72.7306 46.0524 73.3756 45.8049C77.5418 44.2068 81.6975 43.9893 85.8025 45.1599C89.9693 46.3493 92.8375 48.5143 94.3031 51.6555C94.5956 52.2818 94.3243 53.0262 93.6981 53.318C93.0718 53.6105 92.3275 53.3399 92.0356 52.7137C90.9018 50.2849 88.6293 48.5693 85.1156 47.5668C81.5393 46.5462 77.9387 46.7355 74.2718 48.1418Z" fill="#0EB37E"/>
<path d="M75.2269 40.0794C75.2532 40.7707 74.715 41.3519 74.0244 41.3782C73.3338 41.4051 72.7525 40.8669 72.7263 40.1763C72.5325 35.1357 74.81 33.0313 78.7088 35.2357C80.8657 36.4544 82.0432 35.8544 82.9475 32.9138C84.0788 28.6701 87.2175 27.4844 91.525 29.5226C94.2857 30.8294 95.3444 30.0288 95.525 26.2169C95.5575 25.5269 96.1438 24.9938 96.8338 25.0263C97.5244 25.0588 98.0575 25.6451 98.025 26.3351C97.7663 31.8038 94.9682 33.9207 90.4544 31.7851C87.4869 30.3807 86.07 30.9163 85.3525 33.6038C83.9963 38.0207 81.1319 39.4801 77.4775 37.4144C75.5657 36.3332 75.0994 36.7644 75.2269 40.0801V40.0794Z" fill="#115B79"/>
<path d="M63.1882 16.2662C64.2247 16.2662 65.065 15.4259 65.065 14.3893C65.065 13.3528 64.2247 12.5125 63.1882 12.5125C62.1516 12.5125 61.3113 13.3528 61.3113 14.3893C61.3113 15.4259 62.1516 16.2662 63.1882 16.2662Z" fill="#3EC297"/>
<path d="M86.9618 56.3062C87.9984 56.3062 88.8387 55.4659 88.8387 54.4294C88.8387 53.3928 87.9984 52.5525 86.9618 52.5525C85.9253 52.5525 85.085 53.3928 85.085 54.4294C85.085 55.4659 85.9253 56.3062 86.9618 56.3062Z" fill="#FFB166"/>
<path d="M91.3412 16.2662C92.3778 16.2662 93.2181 15.4259 93.2181 14.3893C93.2181 13.3528 92.3778 12.5125 91.3412 12.5125C90.3047 12.5125 89.4644 13.3528 89.4644 14.3893C89.4644 15.4259 90.3047 16.2662 91.3412 16.2662Z" fill="#EE3124"/>
</g>
<defs>
<linearGradient id="paint0_linear" x1="6.25635" y1="24.5476" x2="78.2544" y2="91.8622" gradientUnits="userSpaceOnUse">
<stop stop-color="#6ED1B1"/>
<stop offset="1" stop-color="#FFCB99"/>
</linearGradient>
<linearGradient id="paint1_linear" x1="38.6216" y1="22.8298" x2="66.446" y2="77.8933" gradientUnits="userSpaceOnUse">
<stop stop-color="#A31D23"/>
<stop offset="1" stop-color="#EC3F29"/>
</linearGradient>
<clipPath id="clip0">
<rect width="100" height="100" fill="white"/>
</clipPath>
</defs>
</svg>
