<svg width="100" height="100" viewBox="0 0 100 100" fill="none" xmlns="http://www.w3.org/2000/svg">
<g opacity="0.45" filter="url(#filter0_f)">
<path d="M45.9733 87.7837C58.7603 87.7837 69.1262 85.9232 69.1262 83.6281C69.1262 81.333 58.7603 79.4724 45.9733 79.4724C33.1862 79.4724 22.8203 81.333 22.8203 83.6281C22.8203 85.9232 33.1862 87.7837 45.9733 87.7837Z" fill="#115B79"/>
</g>
<path d="M56.0449 12.9287L20.8636 18.5009C17.6252 19.0138 15.4158 22.0548 15.9287 25.2931L23.1725 71.0289C23.6854 74.2673 26.7264 76.4767 29.9648 75.9638L65.1462 70.3916C68.3845 69.8787 70.594 66.8377 70.081 63.5994L62.8372 17.8636C62.3243 14.6252 59.2833 12.4158 56.0449 12.9287Z" fill="url(#paint0_linear)"/>
<path d="M46.0184 21.7295L23.7369 25.2585C22.7653 25.4124 22.1025 26.3247 22.2564 27.2962C22.4103 28.2677 23.3226 28.9305 24.2941 28.7766L46.5756 25.2476C47.5471 25.0937 48.2099 24.1814 48.0561 23.2099C47.9022 22.2384 46.9899 21.5756 46.0184 21.7295Z" fill="#D4D8DC"/>
<path d="M37.937 31.4244L25.0371 33.4675C24.0656 33.6214 23.4028 34.5337 23.5567 35.5052C23.7106 36.4767 24.6229 37.1395 25.5944 36.9856L38.4942 34.9425C39.4657 34.7886 40.1285 33.8763 39.9747 32.9048C39.8208 31.9333 38.9085 31.2705 37.937 31.4244Z" fill="#D4D8DC"/>
<path d="M48.619 38.1474L26.3374 41.6765C25.3659 41.8303 24.7031 42.7426 24.857 43.7141C25.0108 44.6857 25.9231 45.3485 26.8947 45.1946L49.1762 41.6656C50.1477 41.5117 50.8105 40.5994 50.6567 39.6279C50.5028 38.6564 49.5905 37.9935 48.619 38.1474Z" fill="#D4D8DC"/>
<path d="M59.3007 44.8705L27.6375 49.8855C26.666 50.0393 26.0032 50.9516 26.157 51.9231C26.3109 52.8946 27.2232 53.5575 28.1947 53.4036L59.858 48.3886C60.8295 48.2348 61.4923 47.3225 61.3384 46.3509C61.1845 45.3794 60.2722 44.7166 59.3007 44.8705Z" fill="#D4D8DC"/>
<path d="M47.7012 55.1226L28.9378 58.0944C27.9663 58.2483 27.3034 59.1606 27.4573 60.1321C27.6112 61.1036 28.5235 61.7664 29.495 61.6126L48.2584 58.6407C49.2299 58.4869 49.8927 57.5746 49.7389 56.6031C49.585 55.6316 48.6727 54.9687 47.7012 55.1226Z" fill="#D4D8DC"/>
<path d="M49.0015 63.3316L30.2381 66.3034C29.2666 66.4573 28.6037 67.3696 28.7576 68.3411C28.9115 69.3126 29.8238 69.9754 30.7953 69.8216L49.5587 66.8497C50.5302 66.6959 51.193 65.7836 51.0392 64.8121C50.8853 63.8405 49.973 63.1777 49.0015 63.3316Z" fill="#D4D8DC"/>
<g opacity="0.3" filter="url(#filter1_f)">
<path d="M69.943 66.0414C78.2631 66.0414 85.0079 64.3967 85.0079 62.3678C85.0079 60.3389 78.2631 58.6942 69.943 58.6942C61.6229 58.6942 54.8782 60.3389 54.8782 62.3678C54.8782 64.3967 61.6229 66.0414 69.943 66.0414Z" fill="#062430"/>
</g>
<path d="M58.262 57.958L62.5957 57.5068L62.4853 62.0234L58.0399 64.0205C57.4415 64.2901 56.7386 64.0229 56.4703 63.4245C56.3385 63.1312 56.3314 62.7976 56.4501 62.4984L58.262 57.958Z" fill="#A9B2B9"/>
<path d="M79.4298 36.7285L83.627 40.9269L62.6385 61.9154L62.6243 61.9023L62.5875 61.9498C62.147 62.3915 60.9371 61.9047 59.8234 60.861L59.6488 60.6912C58.4888 59.5324 57.926 58.2168 58.3903 57.7526C58.414 57.7288 58.4401 57.7063 58.4698 57.6885L79.4298 36.7285Z" fill="url(#paint1_linear)"/>
<path d="M80.6053 39.735C81.7645 40.8942 83.0801 41.458 83.5438 40.9943C84.0075 40.5306 83.4437 39.215 82.2845 38.0558C81.1253 36.8966 79.8097 36.3328 79.346 36.7965C78.8823 37.2602 79.4461 38.5758 80.6053 39.735Z" fill="url(#paint2_radial)"/>
<defs>
<filter id="filter0_f" x="16.8203" y="73.4724" width="58.3059" height="20.3113" filterUnits="userSpaceOnUse" color-interpolation-filters="sRGB">
<feFlood flood-opacity="0" result="BackgroundImageFix"/>
<feBlend mode="normal" in="SourceGraphic" in2="BackgroundImageFix" result="shape"/>
<feGaussianBlur stdDeviation="3" result="effect1_foregroundBlur"/>
</filter>
<filter id="filter1_f" x="49.8782" y="53.6942" width="40.1297" height="17.3472" filterUnits="userSpaceOnUse" color-interpolation-filters="sRGB">
<feFlood flood-opacity="0" result="BackgroundImageFix"/>
<feBlend mode="normal" in="SourceGraphic" in2="BackgroundImageFix" result="shape"/>
<feGaussianBlur stdDeviation="2.5" result="effect1_foregroundBlur"/>
</filter>
<linearGradient id="paint0_linear" x1="28.9863" y1="76.1188" x2="19.8851" y2="18.6558" gradientUnits="userSpaceOnUse">
<stop stop-color="#E4E4E4"/>
<stop offset="1" stop-color="white"/>
</linearGradient>
<linearGradient id="paint1_linear" x1="58.2275" y1="36.7445" x2="83.6118" y2="62.112" gradientUnits="userSpaceOnUse">
<stop stop-color="#F8091E"/>
<stop offset="1" stop-color="#A9085A"/>
</linearGradient>
<radialGradient id="paint2_radial" cx="0" cy="0" r="1" gradientUnits="userSpaceOnUse" gradientTransform="translate(63.3812 31.3275) rotate(89.9994) scale(8.39563 4.86953)">
<stop stop-color="#470C08"/>
<stop offset="0.66884" stop-color="#B21F15"/>
<stop offset="1" stop-color="#BE3C1C"/>
</radialGradient>
</defs>
</svg>
