<svg width="100" height="100" viewBox="0 0 100 100" fill="none" xmlns="http://www.w3.org/2000/svg">
<g clip-path="url(#clip0)">
<mask id="mask0" mask-type="alpha" maskUnits="userSpaceOnUse" x="8" y="9" width="84" height="84">
<path d="M50 93C73.196 93 92 74.196 92 51C92 27.804 73.196 9 50 9C26.804 9 8 27.804 8 51C8 74.196 26.804 93 50 93Z" fill="white"/>
</mask>
<g mask="url(#mask0)">
<path d="M50 93C73.196 93 92 74.196 92 51C92 27.804 73.196 9 50 9C26.804 9 8 27.804 8 51C8 74.196 26.804 93 50 93Z" fill="url(#paint0_linear)"/>
<g opacity="0.3" filter="url(#filter0_f)">
<path d="M39.375 59.376C53.3892 59.376 64.75 56.6055 64.75 53.188C64.75 49.7705 53.3892 47 39.375 47C25.3608 47 14 49.7705 14 53.188C14 56.6055 25.3608 59.376 39.375 59.376Z" fill="#062430"/>
</g>
<path d="M22.4129 67.2472L18.33 65.7043L22.4129 64.1628L23.9551 60.0792L25.4973 64.1628L29.5801 65.7043L25.4973 67.2472L23.9551 71.3293L22.4129 67.2472Z" stroke="#FFB166" stroke-width="0.625" stroke-linecap="round" stroke-linejoin="round"/>
<path d="M68.763 62.166L67.4026 61.6513L68.763 61.1379L69.2771 59.7767L69.7912 61.1379L71.1516 61.6513L69.7912 62.166L69.2771 63.5258L68.763 62.166Z" stroke="#FFB166" stroke-width="0.625" stroke-linecap="round" stroke-linejoin="round"/>
<path d="M41.1758 10.4852L40.3853 10.6705L41.0351 10.1847L40.3103 9.81915L41.1214 9.86511L40.8011 9.11911L41.3929 9.67419L41.627 8.89708L41.7231 9.70318L42.4019 9.25912L41.9579 9.93794L42.7633 10.0334L41.9862 10.2675L42.5419 10.86L41.796 10.5397L41.8412 11.35L41.4756 10.6253L40.9898 11.2751L41.1758 10.4852Z" fill="white"/>
<path d="M81.8008 61.7352L81.0103 61.9205L81.6601 61.4347L80.9353 61.0691L81.7464 61.1151L81.4261 60.3691L82.0179 60.9242L82.2519 60.1471L82.3481 60.9532L83.0269 60.5091L82.5829 61.1879L83.3883 61.2834L82.6112 61.5175L83.167 62.11L82.421 61.7897L82.4662 62.6L82.1006 61.8752L81.6148 62.5251L81.8008 61.7352Z" fill="white"/>
<path d="M46.8008 74.8602L46.0103 75.0455L46.6601 74.5597L45.9353 74.1941L46.7464 74.2401L46.426 73.4941L47.0179 74.0492L47.252 73.2721L47.3481 74.0782L48.0269 73.6341L47.5829 74.3129L48.3883 74.4084L47.6112 74.6425L48.1669 75.235L47.421 74.9147L47.4662 75.725L47.1006 75.0003L46.6148 75.6501L46.8008 74.8602Z" fill="white"/>
<path d="M91.888 33.4161L90.7022 33.694L91.6773 32.9649L90.5912 32.4162L91.8067 32.4848L91.3266 31.3654L92.214 32.1991L92.5654 31.0331L92.709 32.243L93.7279 31.5762L93.0604 32.5944L94.2703 32.7379L93.1042 33.0894L93.9379 33.9768L92.8193 33.4974L92.8872 34.7122L92.3384 33.6261L91.6094 34.6012L91.888 33.4161Z" fill="white"/>
<path d="M74.4944 27.6937L72.9069 27.0933L74.4944 26.4944L75.094 24.9062L75.6936 26.4944L77.2811 27.0933L75.6936 27.6937L75.094 29.2804L74.4944 27.6937Z" stroke="#FFB166" stroke-width="0.625" stroke-linecap="round" stroke-linejoin="round"/>
</g>
<g opacity="0.3" filter="url(#filter1_f)">
<path d="M69.375 87.376C80.6278 87.376 89.75 85.501 89.75 83.188C89.75 80.875 80.6278 79 69.375 79C58.1222 79 49 80.875 49 83.188C49 85.501 58.1222 87.376 69.375 87.376Z" fill="#062430"/>
</g>
<path d="M34.311 48.8974L15.233 54.6335L22.2849 36.0008L10.9342 19.6292L30.8336 20.5786L42.8974 4.72419L48.1436 23.9433L66.9498 30.5175L50.2927 41.4449L49.8521 61.3628L34.311 48.8974Z" fill="url(#paint1_linear)"/>
<path d="M81.1702 82.0648L72.2412 88.9733L72.189 77.6838L62.8595 71.3273L73.5799 67.789L76.7422 56.9522L83.4201 66.0539L94.7042 65.7122L88.1114 74.8763L91.9226 85.5029L81.1702 82.0648Z" fill="url(#paint2_linear)"/>
<path d="M63.5851 18.0324L59.1212 21.487L59.0945 15.8419L54.4297 12.6637L59.7901 10.895L61.3711 5.47611L64.7102 10.0274L70.3521 9.85612L67.0557 14.4381L68.9614 19.752L63.5851 18.0324Z" fill="url(#paint3_linear)"/>
<path d="M20.5851 85.0324L16.1212 88.487L16.0945 82.8419L11.4297 79.6637L16.7901 77.895L18.3711 72.4761L21.7102 77.0274L27.3521 76.8561L24.0557 81.4381L25.9614 86.752L20.5851 85.0324Z" fill="url(#paint4_linear)"/>
<path d="M85.8815 16.1795L82.3489 17.1087L83.7609 13.74L81.7856 10.6668L85.426 10.9685L87.7373 8.14095L88.5752 11.6955L91.9794 13.0203L88.8568 14.9164L88.6492 18.5632L85.8815 16.1795Z" fill="url(#paint5_linear)"/>
</g>
<defs>
<filter id="filter0_f" x="4" y="37" width="70.75" height="32.376" filterUnits="userSpaceOnUse" color-interpolation-filters="sRGB">
<feFlood flood-opacity="0" result="BackgroundImageFix"/>
<feBlend mode="normal" in="SourceGraphic" in2="BackgroundImageFix" result="shape"/>
<feGaussianBlur stdDeviation="5" result="effect1_foregroundBlur"/>
</filter>
<filter id="filter1_f" x="39" y="69" width="60.75" height="28.376" filterUnits="userSpaceOnUse" color-interpolation-filters="sRGB">
<feFlood flood-opacity="0" result="BackgroundImageFix"/>
<feBlend mode="normal" in="SourceGraphic" in2="BackgroundImageFix" result="shape"/>
<feGaussianBlur stdDeviation="5" result="effect1_foregroundBlur"/>
</filter>
<linearGradient id="paint0_linear" x1="8" y1="9" x2="92" y2="93" gradientUnits="userSpaceOnUse">
<stop stop-color="#080C10"/>
<stop offset="1" stop-color="#115B79"/>
</linearGradient>
<linearGradient id="paint1_linear" x1="18.6119" y1="0.00355872" x2="47.7846" y2="60.9494" gradientUnits="userSpaceOnUse">
<stop stop-color="#FFB500"/>
<stop offset="1" stop-color="#FF7E00"/>
</linearGradient>
<linearGradient id="paint2_linear" x1="62.9359" y1="59.3866" x2="90.7452" y2="85.7042" gradientUnits="userSpaceOnUse">
<stop stop-color="#FFB500"/>
<stop offset="1" stop-color="#FF7E00"/>
</linearGradient>
<linearGradient id="paint3_linear" x1="54.468" y1="6.69332" x2="68.3731" y2="19.8522" gradientUnits="userSpaceOnUse">
<stop stop-color="#FFB500"/>
<stop offset="1" stop-color="#FF7E00"/>
</linearGradient>
<linearGradient id="paint4_linear" x1="11.468" y1="73.6933" x2="25.3731" y2="86.8522" gradientUnits="userSpaceOnUse">
<stop stop-color="#FFB500"/>
<stop offset="1" stop-color="#FF7E00"/>
</linearGradient>
<linearGradient id="paint5_linear" x1="83.3178" y1="7.12062" x2="88.2731" y2="18.4742" gradientUnits="userSpaceOnUse">
<stop stop-color="#FFB500"/>
<stop offset="1" stop-color="#FF7E00"/>
</linearGradient>
<clipPath id="clip0">
<rect width="100" height="100" fill="white"/>
</clipPath>
</defs>
</svg>
