<svg width="64" height="64" viewBox="0 0 64 64" fill="none" xmlns="http://www.w3.org/2000/svg">
<mask id="mask0" mask-type="alpha" maskUnits="userSpaceOnUse" x="4" y="3" width="50" height="57">
<path d="M31.2175 58.7999C48.15 60.7999 53.3878 50.3999 53.3878 44.7276C53.3878 32.3046 53.3878 3.52002 53.3878 3.52002H4.53522C4.53522 3.52002 3.87035 19.5731 4.53531 32.3046C5.20027 45.0361 14.2851 56.7999 31.2175 58.7999Z" fill="url(#paint0_linear)"/>
</mask>
<g mask="url(#mask0)">
<g opacity="0.9">
<rect x="13.5327" y="14.0808" width="21.3699" height="48.2349" rx="5" transform="rotate(-14.3076 13.5327 14.0808)" fill="url(#paint1_linear)"/>
<path d="M14.438 17.6306C13.938 15.6701 15.122 13.6755 17.0825 13.1755L29.0027 59.9143C27.0422 60.4143 25.0476 59.2303 24.5476 57.2699L14.438 17.6306Z" fill="url(#paint2_linear)"/>
<path d="M35.1451 12.3496C34.6451 10.3891 32.6505 9.20514 30.69 9.70514L42.6102 56.444C44.5707 55.944 45.7546 53.9493 45.2546 51.9888L35.1451 12.3496Z" fill="url(#paint3_linear)"/>
</g>
<g opacity="0.9">
<rect x="17.0176" y="14.6941" width="22.3168" height="50.3808" rx="5" transform="rotate(-14.3076 17.0176 14.6941)" fill="url(#paint4_linear)"/>
<path d="M17.9612 18.3987C17.439 16.3511 18.6756 14.2678 20.7232 13.7456L33.1733 62.562C31.1256 63.0842 29.0424 61.8476 28.5201 59.8L17.9612 18.3987Z" fill="url(#paint5_linear)"/>
<path d="M39.5886 12.8829C39.0664 10.8352 36.9831 9.59864 34.9355 10.1209L47.3856 58.9373C49.4332 58.4151 50.6698 56.3318 50.1476 54.2841L39.5886 12.8829Z" fill="url(#paint6_linear)"/>
</g>
<path d="M13.3335 20.8953L37.5313 14.7239C40.207 14.0415 42.9294 15.6574 43.6118 18.3332L51.0691 47.5729C51.7515 50.2486 50.1356 52.971 47.4598 53.6534L23.262 59.8248L13.3335 20.8953Z" fill="url(#paint7_linear)"/>
<mask id="mask1" mask-type="alpha" maskUnits="userSpaceOnUse" x="26" y="29" width="14" height="14">
<ellipse cx="33.0497" cy="36.2689" rx="6.37709" ry="6.37709" transform="rotate(-14.3076 33.0497 36.2689)" fill="#C4C4C4"/>
</mask>
<g mask="url(#mask1)">
<ellipse cx="30.8431" cy="27.6177" rx="6.37709" ry="6.37709" transform="rotate(-14.3076 30.8431 27.6177)" stroke="#4CBFB3"/>
<ellipse cx="35.2557" cy="44.9197" rx="6.37709" ry="6.37709" transform="rotate(-14.3076 35.2557 44.9197)" stroke="#4CBFB3"/>
<path d="M26.8701 37.8447L39.2287 34.6928" stroke="#4CBFB3"/>
<path d="M31.4741 30.0896L34.626 42.4482" stroke="#4CBFB3"/>
</g>
<ellipse cx="33.0497" cy="36.2689" rx="6.37709" ry="6.37709" transform="rotate(-14.3076 33.0497 36.2689)" stroke="#4CBFB3"/>
<ellipse cx="33.0499" cy="36.269" rx="3.18855" ry="6.37708" transform="rotate(-14.3077 33.0499 36.269)" stroke="#4CBFB3"/>
<ellipse cx="33.0497" cy="36.2689" rx="6.37709" ry="6.37709" transform="rotate(-14.3076 33.0497 36.2689)" stroke="#4CBFB3"/>
<rect x="32.1787" y="48.3374" width="7.0148" height="1.27542" transform="rotate(-14.3076 32.1787 48.3374)" fill="url(#paint8_linear)"/>
<rect width="12.1165" height="1.91312" transform="matrix(0.968983 -0.247128 0.247129 0.968983 30.1802 50.8213)" fill="url(#paint9_linear)"/>
<rect x="19.3804" y="23.9602" width="19.769" height="3.18855" transform="rotate(-14.3076 19.3804 23.9602)" fill="url(#paint10_linear)"/>
<g opacity="0.3" filter="url(#filter0_f)">
<path d="M23.2247 59.0683C32.152 56.5618 39.0233 53.227 38.5721 51.62C38.1209 50.0129 30.5181 50.7421 21.5907 53.2486C12.6633 55.7552 5.79205 59.0899 6.24326 60.6969C6.69447 62.304 14.2973 61.5748 23.2247 59.0683Z" fill="#062430"/>
</g>
<rect x="4.625" y="42.2856" width="27.3516" height="18.56" rx="2" transform="rotate(-15.6831 4.625 42.2856)" fill="#9ED4E0" fill-opacity="0.9"/>
<rect x="25.1514" y="43.1177" width="5.86105" height="8.79158" transform="rotate(-15.6831 25.1514 43.1177)" fill="white"/>
<rect x="8.61914" y="49.2812" width="15.6295" height="1.95368" transform="rotate(-15.6831 8.61914 49.2812)" fill="white"/>
<rect x="9.6748" y="53.043" width="12.6989" height="1.95369" transform="rotate(-15.6831 9.6748 53.043)" fill="white"/>
<rect x="11.2661" y="42.4502" width="14.6526" height="1.46526" transform="rotate(-15.6831 11.2661 42.4502)" fill="white"/>
<g opacity="0.3" filter="url(#filter1_f)">
<path d="M48.5582 61.7353C57.4855 59.2288 64.3568 55.894 63.9056 54.287C63.4544 52.6799 55.8516 53.4091 46.9242 55.9156C37.9968 58.4222 31.1255 61.7569 31.5768 63.3639C32.028 64.971 39.6308 64.2418 48.5582 61.7353Z" fill="#062430"/>
</g>
<rect opacity="0.9" x="29.9585" y="44.9526" width="27.3516" height="18.56" rx="2" transform="rotate(-15.6831 29.9585 44.9526)" fill="#D7F2FA"/>
<rect x="33.5566" y="50.5376" width="5.86105" height="8.79158" transform="rotate(-15.6831 33.5566 50.5376)" fill="white"/>
<rect x="41.4761" y="49.8359" width="15.6295" height="1.95368" transform="rotate(-15.6831 41.4761 49.8359)" fill="white"/>
<rect x="42.5322" y="53.5977" width="12.6989" height="1.95369" transform="rotate(-15.6831 42.5322 53.5977)" fill="white"/>
<rect x="36.5996" y="45.1172" width="14.6526" height="2.4421" transform="rotate(-15.6831 36.5996 45.1172)" fill="#EE3124"/>
<rect width="4.39579" height="2.44211" transform="matrix(-0.962771 0.270317 0.270317 0.962771 36.5996 45.1172)" fill="url(#paint11_linear)"/>
<rect width="4.39579" height="2.4421" transform="matrix(-0.962771 0.270317 0.270317 0.962771 54.939 39.9683)" fill="url(#paint12_linear)"/>
</g>
<mask id="mask2" mask-type="alpha" maskUnits="userSpaceOnUse" x="4" y="12" width="50" height="48">
<path d="M31.2173 58.8001C48.1498 60.8001 53.3875 50.4001 53.3875 44.7277C53.3875 32.3047 42.9101 31.7709 36.8359 26.9146C32.2611 23.2564 30.585 12.8 19.9309 12.8C9.23843 12.8 3.87011 19.5732 4.53507 32.3047C5.20003 45.0362 14.2848 56.8001 31.2173 58.8001Z" fill="white"/>
</mask>
<g mask="url(#mask2)">
<path d="M31.2173 58.8001C48.1498 60.8001 53.3875 50.4001 53.3875 44.7277C53.3875 32.3047 42.9101 31.7709 36.8359 26.9146C32.2611 23.2564 30.585 12.8 19.9309 12.8C9.23843 12.8 3.87011 19.5732 4.53507 32.3047C5.20003 45.0362 14.2848 56.8001 31.2173 58.8001Z" fill="url(#paint13_linear)"/>
<g opacity="0.9">
<rect x="13.5317" y="14.0811" width="21.3699" height="48.2349" rx="5" transform="rotate(-14.3076 13.5317 14.0811)" fill="url(#paint14_linear)"/>
<path d="M14.4371 17.6308C13.9371 15.6703 15.121 13.6757 17.0815 13.1757L29.0017 59.9146C27.0412 60.4146 25.0466 59.2306 24.5466 57.2701L14.4371 17.6308Z" fill="url(#paint15_linear)"/>
<path d="M35.1441 12.3498C34.6441 10.3893 32.6495 9.20538 30.689 9.70538L42.6092 56.4442C44.5697 55.9442 45.7537 53.9496 45.2537 51.9891L35.1441 12.3498Z" fill="url(#paint16_linear)"/>
</g>
<g opacity="0.9">
<path d="M18.2503 19.5363C17.5679 16.8605 19.1838 14.1382 21.8596 13.4558L33.7973 10.4112C36.473 9.72876 39.1954 11.3447 39.8778 14.0205L49.8566 53.147C50.539 55.8228 48.9231 58.5452 46.2473 59.2276L34.3096 62.2722C31.6339 62.9546 28.9115 61.3387 28.2291 58.6629L18.2503 19.5363Z" fill="url(#paint17_linear)"/>
<path d="M17.9602 18.399C17.438 16.3513 18.6746 14.2681 20.7222 13.7458L33.1723 62.5622C31.1247 63.0845 29.0414 61.8479 28.5192 59.8002L17.9602 18.399Z" fill="url(#paint18_linear)"/>
<path d="M39.5877 12.8831C39.0654 10.8355 36.9822 9.59889 34.9345 10.1211L47.3846 58.9375C49.4322 58.4153 50.6688 56.332 50.1466 54.2844L39.5877 12.8831Z" fill="url(#paint19_linear)"/>
</g>
<path d="M13.3325 20.8955L37.5303 14.7241C40.2061 14.0417 42.9284 15.6576 43.6108 18.3334L51.0681 47.5731C51.7505 50.2489 50.1346 52.9712 47.4588 53.6537L23.2611 59.825L13.3325 20.8955Z" fill="url(#paint20_linear)"/>
<mask id="mask3" mask-type="alpha" maskUnits="userSpaceOnUse" x="26" y="29" width="14" height="14">
<ellipse cx="33.0487" cy="36.2691" rx="6.37709" ry="6.37709" transform="rotate(-14.3076 33.0487 36.2691)" fill="#C4C4C4"/>
</mask>
<g mask="url(#mask3)">
<ellipse cx="30.8422" cy="27.618" rx="6.37709" ry="6.37709" transform="rotate(-14.3076 30.8422 27.618)" stroke="#4CBFB3"/>
<ellipse cx="35.2548" cy="44.9202" rx="6.37709" ry="6.37709" transform="rotate(-14.3076 35.2548 44.9202)" stroke="#4CBFB3"/>
<path d="M26.8691 37.845L39.2277 34.6931" stroke="#4CBFB3"/>
<path d="M31.4731 30.0898L34.6251 42.4484" stroke="#4CBFB3"/>
</g>
<ellipse cx="33.0487" cy="36.2691" rx="6.37709" ry="6.37709" transform="rotate(-14.3076 33.0487 36.2691)" stroke="#4CBFB3"/>
<ellipse cx="33.0489" cy="36.2692" rx="3.18855" ry="6.37708" transform="rotate(-14.3077 33.0489 36.2692)" stroke="#4CBFB3"/>
<ellipse cx="33.0487" cy="36.2691" rx="6.37709" ry="6.37709" transform="rotate(-14.3076 33.0487 36.2691)" stroke="#4CBFB3"/>
<rect x="32.1777" y="48.3374" width="7.0148" height="1.27542" transform="rotate(-14.3076 32.1777 48.3374)" fill="url(#paint21_linear)"/>
<rect width="12.1165" height="1.91312" transform="matrix(0.968983 -0.247128 0.247129 0.968983 30.1792 50.8218)" fill="url(#paint22_linear)"/>
<rect x="19.3794" y="23.9604" width="19.769" height="3.18855" transform="rotate(-14.3076 19.3794 23.9604)" fill="url(#paint23_linear)"/>
<g opacity="0.3" filter="url(#filter2_f)">
<path d="M23.2237 59.0688C32.1511 56.5623 39.0223 53.2275 38.5711 51.6205C38.1199 50.0134 30.5171 50.7426 21.5897 53.2491C12.6624 55.7557 5.79107 59.0904 6.24229 60.6974C6.6935 62.3045 14.2963 61.5753 23.2237 59.0688Z" fill="#062430"/>
</g>
<rect x="4.62402" y="42.2861" width="27.3516" height="18.56" rx="4" transform="rotate(-15.6831 4.62402 42.2861)" fill="#9ED4E0" fill-opacity="0.9"/>
<rect x="25.1504" y="43.1182" width="5.86106" height="8.79158" transform="rotate(-15.6831 25.1504 43.1182)" fill="white"/>
<rect x="8.61816" y="49.2817" width="15.6295" height="1.95368" transform="rotate(-15.6831 8.61816 49.2817)" fill="white"/>
<rect x="9.67383" y="53.0435" width="12.6989" height="1.95369" transform="rotate(-15.6831 9.67383 53.0435)" fill="white"/>
<rect x="11.2651" y="42.4507" width="14.6526" height="1.46526" transform="rotate(-15.6831 11.2651 42.4507)" fill="white"/>
<g opacity="0.3" filter="url(#filter3_f)">
<path d="M48.5572 61.7353C57.4846 59.2288 64.3558 55.894 63.9046 54.287C63.4534 52.6799 55.8506 53.4091 46.9232 55.9156C37.9958 58.4222 31.1246 61.7569 31.5758 63.3639C32.027 64.971 39.6298 64.2418 48.5572 61.7353Z" fill="#062430"/>
</g>
<rect opacity="0.9" x="29.9575" y="44.9526" width="27.3516" height="18.56" rx="4" transform="rotate(-15.6831 29.9575 44.9526)" fill="#D7F2FA"/>
<rect x="33.5557" y="50.5376" width="5.86105" height="8.79158" transform="rotate(-15.6831 33.5557 50.5376)" fill="white"/>
<rect x="41.4751" y="49.8359" width="15.6295" height="1.95368" transform="rotate(-15.6831 41.4751 49.8359)" fill="white"/>
<rect x="42.5312" y="53.5977" width="12.6989" height="1.95369" transform="rotate(-15.6831 42.5312 53.5977)" fill="white"/>
<rect x="36.5986" y="45.1172" width="14.6526" height="2.4421" transform="rotate(-15.6831 36.5986 45.1172)" fill="#EE3124"/>
<rect width="4.39579" height="2.44211" transform="matrix(-0.962771 0.270317 0.270317 0.962771 36.5986 45.1172)" fill="url(#paint24_linear)"/>
<rect width="4.39579" height="2.4421" transform="matrix(-0.962771 0.270317 0.270317 0.962771 54.938 39.9683)" fill="url(#paint25_linear)"/>
</g>
<path d="M46.396 19.564L45.38 19.1798L46.396 18.7965L46.7798 17.78L47.1635 18.7965L48.1795 19.1798L47.1635 19.564L46.7798 20.5795L46.396 19.564Z" stroke="#FFB166" stroke-width="0.625" stroke-linecap="round" stroke-linejoin="round"/>
<path d="M56.5685 28.4262L55.8096 28.6041L56.4336 28.1375L55.7385 27.7863L56.5164 27.8302L56.2092 27.1138L56.7771 27.6474L57.002 26.9011L57.0939 27.6755L57.746 27.2487L57.3188 27.9004L58.0931 27.9922L57.3469 28.2171L57.8804 28.7851L57.1645 28.4783L57.2079 29.2557L56.8568 28.5606L56.3902 29.1847L56.5685 28.4262Z" fill="white"/>
<path d="M27.7123 54.9507L27.2064 55.0693L27.6223 54.7584L27.1584 54.5244L27.6775 54.5538L27.4725 54.0764L27.8512 54.4316L28.001 53.9343L28.0626 54.4502L28.497 54.166L28.2128 54.6004L28.7283 54.6615L28.2309 54.8113L28.5866 55.1906L28.1092 54.9855L28.1382 55.5042L27.9042 55.0403L27.5933 55.4562L27.7123 54.9507Z" fill="white"/>
<path d="M50.1122 46.5503L49.6063 46.6689L50.0222 46.358L49.5583 46.124L50.0774 46.1534L49.8724 45.676L50.2511 46.0312L50.4009 45.5339L50.4625 46.0498L50.8969 45.7656L50.6127 46.2L51.1282 46.2611L50.6308 46.4109L50.9865 46.7902L50.5091 46.5851L50.5381 47.1038L50.3041 46.6399L49.9932 47.0558L50.1122 46.5503Z" fill="white"/>
<path d="M24.1122 13.7505L23.6063 13.8691L24.0222 13.5582L23.5583 13.3242L24.0774 13.3536L23.8724 12.8762L24.2511 13.2314L24.4009 12.7341L24.4625 13.25L24.8969 12.9658L24.6127 13.4002L25.1282 13.4613L24.6308 13.6111L24.9865 13.9904L24.5091 13.7853L24.5381 14.304L24.3041 13.8401L23.9932 14.256L24.1122 13.7505Z" fill="white"/>
<path d="M41.7687 46.8265L40.898 46.4971L41.7687 46.1685L42.0977 45.2974L42.4267 46.1685L43.2974 46.4971L42.4267 46.8265L42.0977 47.6968L41.7687 46.8265Z" stroke="#FFB166" stroke-width="0.625" stroke-linecap="round" stroke-linejoin="round"/>
<path d="M12.1043 50.0782L9.49129 49.0907L12.1043 48.1042L13.0913 45.4907L14.0783 48.1042L16.6913 49.0907L14.0783 50.0782L13.0913 52.6908L12.1043 50.0782Z" stroke="#FFB166" stroke-width="0.625" stroke-linecap="round" stroke-linejoin="round"/>
<defs>
<filter id="filter0_f" x="-3.77783" y="40.7666" width="52.3709" height="30.7837" filterUnits="userSpaceOnUse" color-interpolation-filters="sRGB">
<feFlood flood-opacity="0" result="BackgroundImageFix"/>
<feBlend mode="normal" in="SourceGraphic" in2="BackgroundImageFix" result="shape"/>
<feGaussianBlur stdDeviation="5" result="effect1_foregroundBlur"/>
</filter>
<filter id="filter1_f" x="21.5557" y="43.4336" width="52.3709" height="30.7837" filterUnits="userSpaceOnUse" color-interpolation-filters="sRGB">
<feFlood flood-opacity="0" result="BackgroundImageFix"/>
<feBlend mode="normal" in="SourceGraphic" in2="BackgroundImageFix" result="shape"/>
<feGaussianBlur stdDeviation="5" result="effect1_foregroundBlur"/>
</filter>
<filter id="filter2_f" x="-3.77881" y="40.7671" width="52.3709" height="30.7837" filterUnits="userSpaceOnUse" color-interpolation-filters="sRGB">
<feFlood flood-opacity="0" result="BackgroundImageFix"/>
<feBlend mode="normal" in="SourceGraphic" in2="BackgroundImageFix" result="shape"/>
<feGaussianBlur stdDeviation="5" result="effect1_foregroundBlur"/>
</filter>
<filter id="filter3_f" x="21.5547" y="43.4336" width="52.3709" height="30.7837" filterUnits="userSpaceOnUse" color-interpolation-filters="sRGB">
<feFlood flood-opacity="0" result="BackgroundImageFix"/>
<feBlend mode="normal" in="SourceGraphic" in2="BackgroundImageFix" result="shape"/>
<feGaussianBlur stdDeviation="5" result="effect1_foregroundBlur"/>
</filter>
<linearGradient id="paint0_linear" x1="4.47975" y1="15.2434" x2="50.9477" y2="59.1879" gradientUnits="userSpaceOnUse">
<stop stop-color="#6A120C"/>
<stop offset="0.43781" stop-color="#B21F15"/>
<stop offset="0.79575" stop-color="#EE4C24"/>
<stop offset="1" stop-color="#FF7E00"/>
</linearGradient>
<linearGradient id="paint1_linear" x1="23.6712" y1="7.18828" x2="51.5864" y2="26.9531" gradientUnits="userSpaceOnUse">
<stop stop-color="#F9E0C2"/>
<stop offset="1" stop-color="#FFCB99"/>
</linearGradient>
<linearGradient id="paint2_linear" x1="19.4174" y1="37.1544" x2="22.9672" y2="36.2491" gradientUnits="userSpaceOnUse">
<stop stop-color="#FEC787"/>
<stop offset="1" stop-color="#F0CF8D"/>
</linearGradient>
<linearGradient id="paint3_linear" x1="40.1244" y1="31.8734" x2="36.5746" y2="32.7787" gradientUnits="userSpaceOnUse">
<stop stop-color="#FEC787"/>
<stop offset="1" stop-color="#F0CF8D"/>
</linearGradient>
<linearGradient id="paint4_linear" x1="15.1992" y1="8.6426" x2="43.7588" y2="20.2419" gradientUnits="userSpaceOnUse">
<stop stop-color="#6ED1B1"/>
<stop offset="1" stop-color="#FFCB99"/>
</linearGradient>
<linearGradient id="paint5_linear" x1="28.1351" y1="46.998" x2="18.9731" y2="42.0285" gradientUnits="userSpaceOnUse">
<stop stop-color="#2BADB4"/>
<stop offset="1" stop-color="#6ED1B1"/>
</linearGradient>
<linearGradient id="paint6_linear" x1="44.3544" y1="42.8614" x2="50.0173" y2="34.111" gradientUnits="userSpaceOnUse">
<stop stop-color="#2BADB4"/>
<stop offset="1" stop-color="#6ED1B1"/>
</linearGradient>
<linearGradient id="paint7_linear" x1="27.8548" y1="17.1918" x2="46.8368" y2="86.0357" gradientUnits="userSpaceOnUse">
<stop stop-color="#1E7E99"/>
<stop offset="1" stop-color="#0D4860"/>
</linearGradient>
<linearGradient id="paint8_linear" x1="42.2855" y1="50.3779" x2="34.2382" y2="44.7511" gradientUnits="userSpaceOnUse">
<stop stop-color="#2BADB4"/>
<stop offset="1" stop-color="#6ED1B1"/>
</linearGradient>
<linearGradient id="paint9_linear" x1="13.6033" y1="2.1154" x2="3.92839" y2="-4.98543" gradientUnits="userSpaceOnUse">
<stop stop-color="#2BADB4"/>
<stop offset="1" stop-color="#6ED1B1"/>
</linearGradient>
<linearGradient id="paint10_linear" x1="47.747" y1="28.2874" x2="26.7451" y2="13.8733" gradientUnits="userSpaceOnUse">
<stop stop-color="#2BADB4"/>
<stop offset="1" stop-color="#6ED1B1"/>
</linearGradient>
<linearGradient id="paint11_linear" x1="0" y1="2.44211" x2="2.07349" y2="-1.29017" gradientUnits="userSpaceOnUse">
<stop stop-color="#EE8524"/>
<stop offset="1" stop-color="#FFE999"/>
</linearGradient>
<linearGradient id="paint12_linear" x1="0" y1="2.4421" x2="2.07348" y2="-1.29017" gradientUnits="userSpaceOnUse">
<stop stop-color="#EE8524"/>
<stop offset="1" stop-color="#FFE999"/>
</linearGradient>
<linearGradient id="paint13_linear" x1="4.47998" y1="15.2435" x2="50.948" y2="59.188" gradientUnits="userSpaceOnUse">
<stop stop-color="#6A120C"/>
<stop offset="0.43781" stop-color="#B21F15"/>
<stop offset="0.79575" stop-color="#EE4C24"/>
<stop offset="1" stop-color="#FF7E00"/>
</linearGradient>
<linearGradient id="paint14_linear" x1="23.6702" y1="7.18852" x2="51.5855" y2="26.9533" gradientUnits="userSpaceOnUse">
<stop stop-color="#F9E0C2"/>
<stop offset="1" stop-color="#FFCB99"/>
</linearGradient>
<linearGradient id="paint15_linear" x1="19.4164" y1="37.1547" x2="22.9662" y2="36.2493" gradientUnits="userSpaceOnUse">
<stop stop-color="#FEC787"/>
<stop offset="1" stop-color="#F0CF8D"/>
</linearGradient>
<linearGradient id="paint16_linear" x1="40.1234" y1="31.8736" x2="36.5736" y2="32.779" gradientUnits="userSpaceOnUse">
<stop stop-color="#FEC787"/>
<stop offset="1" stop-color="#F0CF8D"/>
</linearGradient>
<linearGradient id="paint17_linear" x1="13.8092" y1="9.10569" x2="44.2484" y2="13.3903" gradientUnits="userSpaceOnUse">
<stop stop-color="#6ED1B1"/>
<stop offset="1" stop-color="#FFCB99"/>
</linearGradient>
<linearGradient id="paint18_linear" x1="28.1341" y1="46.9982" x2="18.9721" y2="42.0288" gradientUnits="userSpaceOnUse">
<stop stop-color="#2BADB4"/>
<stop offset="1" stop-color="#6ED1B1"/>
</linearGradient>
<linearGradient id="paint19_linear" x1="44.3534" y1="42.8617" x2="50.0163" y2="34.1113" gradientUnits="userSpaceOnUse">
<stop stop-color="#2BADB4"/>
<stop offset="1" stop-color="#6ED1B1"/>
</linearGradient>
<linearGradient id="paint20_linear" x1="27.8539" y1="17.192" x2="46.8358" y2="86.0359" gradientUnits="userSpaceOnUse">
<stop stop-color="#1E7E99"/>
<stop offset="1" stop-color="#0D4860"/>
</linearGradient>
<linearGradient id="paint21_linear" x1="42.2845" y1="50.3779" x2="34.2372" y2="44.7511" gradientUnits="userSpaceOnUse">
<stop stop-color="#2BADB4"/>
<stop offset="1" stop-color="#6ED1B1"/>
</linearGradient>
<linearGradient id="paint22_linear" x1="13.6034" y1="2.1154" x2="3.92839" y2="-4.98543" gradientUnits="userSpaceOnUse">
<stop stop-color="#2BADB4"/>
<stop offset="1" stop-color="#6ED1B1"/>
</linearGradient>
<linearGradient id="paint23_linear" x1="47.7461" y1="28.2876" x2="26.7441" y2="13.8736" gradientUnits="userSpaceOnUse">
<stop stop-color="#2BADB4"/>
<stop offset="1" stop-color="#6ED1B1"/>
</linearGradient>
<linearGradient id="paint24_linear" x1="0" y1="2.44211" x2="2.07349" y2="-1.29017" gradientUnits="userSpaceOnUse">
<stop stop-color="#EE8524"/>
<stop offset="1" stop-color="#FFE999"/>
</linearGradient>
<linearGradient id="paint25_linear" x1="0" y1="2.4421" x2="2.07348" y2="-1.29017" gradientUnits="userSpaceOnUse">
<stop stop-color="#EE8524"/>
<stop offset="1" stop-color="#FFE999"/>
</linearGradient>
</defs>
</svg>
