<svg width="100" height="100" viewBox="0 0 100 100" fill="none" xmlns="http://www.w3.org/2000/svg">
<g opacity="0.3" filter="url(#filter0_f)">
<path d="M51.25 92.5775C63.6764 92.5775 73.75 90.6188 73.75 88.2025C73.75 85.7863 63.6764 83.8275 51.25 83.8275C38.8236 83.8275 28.75 85.7863 28.75 88.2025C28.75 90.6188 38.8236 92.5775 51.25 92.5775Z" fill="#080C10"/>
</g>
<path d="M57.1459 10.0232L60.3203 24.6611C61.7575 31.2885 58.5907 37.8459 52.9705 40.9625C59.3712 41.4507 64.9677 46.0911 66.4046 52.7172L69.579 67.3551L40.4529 73.7267L37.2785 59.0888L37.2027 58.7157C35.9608 52.2155 39.115 45.8461 44.6292 42.7859C38.3467 42.3089 32.8405 37.8328 31.2785 31.404L31.1942 31.0327L28.0198 16.3948L57.1459 10.0232Z" fill="url(#paint0_linear)"/>
<path d="M43.2211 15.5644C51.3192 13.8293 57.6471 11.3382 57.3549 10.0003C57.0627 8.66242 50.261 8.98436 42.1629 10.7194C34.0648 12.4544 27.7369 14.9455 28.0291 16.2834C28.3213 17.6213 35.123 17.2994 43.2211 15.5644Z" fill="#407B93"/>
<path d="M55.4359 73.0304C63.534 71.2954 69.8619 68.8043 69.5697 67.4664C69.2775 66.1285 62.4758 66.4504 54.3777 68.1855C46.2796 69.9205 39.9517 72.4116 40.244 73.7495C40.5362 75.0874 47.3379 74.7655 55.4359 73.0304Z" fill="#407B93"/>
<path d="M41.8745 69.0565C42.2628 70.8322 43.8746 72.0725 45.6926 71.9924C48.4844 71.8683 51.5827 71.4365 54.9882 70.6944C58.3936 69.9524 61.3906 69.0572 63.98 68.0075C65.6661 67.324 66.6139 65.5273 66.2253 63.7503L64.2137 54.5566L64.2078 54.5235C63.6873 52.1432 61.1504 54.3665 55.3385 51.6344L54.9462 51.4446C48.8574 48.4199 46.2888 50.6616 39.8569 59.8297L41.8745 69.0565Z" fill="url(#paint1_linear)"/>
<path d="M39.7471 35.9665C43.6693 35.6153 46.7984 35.1865 49.1338 34.6826C50.7196 34.3405 52.2619 33.8935 53.7596 33.3419C54.4069 33.1045 55.1259 33.433 55.365 34.0745C55.5241 34.4971 55.4379 34.9727 55.142 35.3145C53.02 37.7652 50.6896 39.2656 48.1516 39.8132C45.439 40.3984 42.4884 39.8977 39.3006 38.3095C38.6834 38.0022 38.4345 37.2575 38.7439 36.6449C38.937 36.2605 39.3169 36.0047 39.7471 35.9665Z" fill="url(#paint2_linear)"/>
<path d="M49.7532 49.3353C50.4253 49.1887 50.851 48.5249 50.7042 47.8528C50.5575 47.1806 49.8937 46.7545 49.2217 46.9011C48.5497 47.0478 48.1239 47.7115 48.2707 48.3837C48.4175 49.0559 49.0812 49.482 49.7532 49.3353Z" fill="url(#paint3_linear)"/>
<path d="M50.9376 45.8888C51.6096 45.7422 52.0354 45.0784 51.8886 44.4062C51.7418 43.734 51.078 43.308 50.406 43.4546C49.734 43.6012 49.3082 44.265 49.455 44.9372C49.6018 45.6094 50.2656 46.0354 50.9376 45.8888Z" fill="url(#paint4_linear)"/>
<path d="M47.231 43.4818C47.903 43.3352 48.3288 42.6714 48.182 41.9992C48.0352 41.3271 47.3715 40.901 46.6995 41.0476C46.0274 41.1943 45.6017 41.858 45.7484 42.5302C45.8952 43.2024 46.559 43.6284 47.231 43.4818Z" fill="url(#paint5_linear)"/>
<defs>
<filter id="filter0_f" x="24.75" y="79.8275" width="53" height="16.75" filterUnits="userSpaceOnUse" color-interpolation-filters="sRGB">
<feFlood flood-opacity="0" result="BackgroundImageFix"/>
<feBlend mode="normal" in="SourceGraphic" in2="BackgroundImageFix" result="shape"/>
<feGaussianBlur stdDeviation="2" result="effect1_foregroundBlur"/>
</filter>
<linearGradient id="paint0_linear" x1="47.3795" y1="35.3276" x2="55.0797" y2="70.527" gradientUnits="userSpaceOnUse">
<stop stop-color="white"/>
<stop offset="1" stop-color="#9FBDC9"/>
</linearGradient>
<linearGradient id="paint1_linear" x1="42.1792" y1="70.45" x2="59.6656" y2="47.5466" gradientUnits="userSpaceOnUse">
<stop stop-color="#6A120C"/>
<stop offset="0.43781" stop-color="#B21F15"/>
<stop offset="0.79575" stop-color="#EE4C24"/>
<stop offset="1" stop-color="#FF7E00"/>
</linearGradient>
<linearGradient id="paint2_linear" x1="45.0384" y1="37.3636" x2="51.1566" y2="39.6849" gradientUnits="userSpaceOnUse">
<stop stop-color="#A31D23"/>
<stop offset="1" stop-color="#EC3F29"/>
</linearGradient>
<linearGradient id="paint3_linear" x1="48.0049" y1="47.1666" x2="50.9706" y2="49.069" gradientUnits="userSpaceOnUse">
<stop stop-color="#6A120C"/>
<stop offset="0.43781" stop-color="#B21F15"/>
<stop offset="0.79575" stop-color="#EE4C24"/>
<stop offset="1" stop-color="#FF7E00"/>
</linearGradient>
<linearGradient id="paint4_linear" x1="49.1892" y1="43.7201" x2="52.1549" y2="45.6225" gradientUnits="userSpaceOnUse">
<stop stop-color="#6A120C"/>
<stop offset="0.43781" stop-color="#B21F15"/>
<stop offset="0.79575" stop-color="#EE4C24"/>
<stop offset="1" stop-color="#FF7E00"/>
</linearGradient>
<linearGradient id="paint5_linear" x1="45.4827" y1="41.3131" x2="48.4484" y2="43.2155" gradientUnits="userSpaceOnUse">
<stop stop-color="#6A120C"/>
<stop offset="0.43781" stop-color="#B21F15"/>
<stop offset="0.79575" stop-color="#EE4C24"/>
<stop offset="1" stop-color="#FF7E00"/>
</linearGradient>
</defs>
</svg>
