<svg width="100" height="100" viewBox="0 0 100 100" fill="none" xmlns="http://www.w3.org/2000/svg">
<path d="M48.0151 91.875C74.4721 95 82.6561 78.75 82.6561 69.887C82.6561 50.476 66.2851 49.642 56.7941 42.054C49.6461 36.338 47.0271 20 30.3801 20C13.6731 20 5.28511 30.583 6.32411 50.476C7.36311 70.369 21.5581 88.75 48.0151 91.875Z" fill="url(#paint0_linear)"/>
<g opacity="0.1" filter="url(#filter0_f)">
<path d="M49.875 74.376C64.7177 74.376 76.75 68.9192 76.75 62.188C76.75 55.4568 64.7177 50 49.875 50C35.0323 50 23 55.4568 23 62.188C23 68.9192 35.0323 74.376 49.875 74.376Z" fill="#062430"/>
</g>
<path d="M49.875 71.75C61.9562 71.75 71.75 61.9562 71.75 49.875C71.75 37.7938 61.9562 28 49.875 28C37.7938 28 28 37.7938 28 49.875C28 61.9562 37.7938 71.75 49.875 71.75Z" fill="#FF9733"/>
<path d="M57.9551 40.277L59.7231 42.045L51.7671 49.999L59.7231 57.955L57.9551 59.723L49.9991 51.767L42.0451 59.723L40.2771 57.955L48.2321 49.999L40.2771 42.045L42.0451 40.277L49.9991 48.232L57.9551 40.277Z" fill="white"/>
<defs>
<filter id="filter0_f" x="13" y="40" width="73.75" height="44.376" filterUnits="userSpaceOnUse" color-interpolation-filters="sRGB">
<feFlood flood-opacity="0" result="BackgroundImageFix"/>
<feBlend mode="normal" in="SourceGraphic" in2="BackgroundImageFix" result="shape"/>
<feGaussianBlur stdDeviation="5" result="effect1_foregroundBlur"/>
</filter>
<linearGradient id="paint0_linear" x1="6.23804" y1="21.5119" x2="78.703" y2="92.4866" gradientUnits="userSpaceOnUse">
<stop stop-color="#EE3124"/>
<stop offset="1" stop-color="#FF9733"/>
</linearGradient>
</defs>
</svg>
