<svg width="100" height="100" viewBox="0 0 100 100" fill="none" xmlns="http://www.w3.org/2000/svg">
<path d="M20 23H81V78H20V23Z" fill="white"/>
<path fill-rule="evenodd" clip-rule="evenodd" d="M76.041 18C79.335 18 82.03 20.675 82.03 23.944V75.364C82.03 78.632 79.335 81.307 76.041 81.307H24.238C20.945 81.307 18.25 78.632 18.25 75.363V23.944C18.25 20.674 20.945 18 24.238 18H76.041ZM50.854 65.587C35.66 66.976 27.18 69.159 27.18 69.159L29.917 70.575C30.46 70.855 31.095 70.938 31.698 70.804C34.104 70.27 39.427 68.834 50.686 67.31C64.832 65.396 75.276 65.404 75.276 65.404L75.304 65.388C75.304 65.388 66.047 64.198 50.854 65.587ZM48.187 49.037H45.6C45.371 49.037 45.178 49.216 45.147 49.456C44.939 51.081 44.188 56.926 44.057 57.736C43.904 58.678 43.874 60.036 42.557 60.846C41.9 61.251 41.564 61.328 41.303 61.456C41.171 61.522 41.022 61.592 41.086 61.836L41.752 64.016C41.872 64.375 41.962 64.455 42.196 64.402C43.038 64.214 45.071 63.578 46.066 62.152C47.362 60.294 47.54 57.009 47.769 55.339C47.957 53.964 48.37 50.578 48.509 49.427C48.535 49.22 48.383 49.037 48.186 49.037H48.187ZM63.724 57.471C62.481 57.471 61.657 58.248 61.445 59.207C61.235 60.166 62.08 60.944 63.127 60.944C64.175 60.944 65.137 60.231 65.347 59.272C65.559 58.313 64.772 57.472 63.724 57.472V57.471ZM39.23 45.564H37.057C36.395 45.564 35.793 45.951 35.519 46.553L29.686 59.503C29.602 59.691 29.74 59.903 29.946 59.902L32.976 59.884C33.184 59.883 33.371 59.759 33.452 59.568L34.459 57.201C34.486 57.137 34.549 57.095 34.619 57.095H38.287C38.377 57.095 38.453 57.163 38.462 57.253L38.68 59.493C38.706 59.753 38.925 59.952 39.187 59.952H42.16C42.407 59.952 42.595 59.73 42.555 59.487L40.389 46.545C40.295 45.979 39.804 45.565 39.229 45.565L39.23 45.564ZM54.966 49.074C52.663 49.236 50.064 50.258 49.576 54.617C49.09 58.977 51.167 59.817 54.154 59.942C56.343 60.033 58.06 59.456 58.822 59.141C59.087 59.031 59.272 58.796 59.311 58.521L60.414 50.128C60.458 49.795 60.284 49.691 59.936 49.608C59.013 49.386 57.461 48.899 54.966 49.074ZM56.588 52.136L55.983 56.68C55.983 56.68 54.555 57.146 53.87 56.653C53.184 56.16 53.127 55.146 53.527 53.694C53.927 52.242 54.927 51.996 55.355 51.969C55.783 51.941 56.588 52.136 56.588 52.136ZM65.597 47.053H63.139C62.872 47.053 62.649 47.178 62.623 47.486L61.91 56.085C61.893 56.296 62.037 56.479 62.22 56.479H64.055C64.202 56.479 64.329 56.359 64.359 56.193L65.859 47.583C65.922 47.253 65.825 47.053 65.597 47.053ZM37.667 49.715L38.047 53.901C38.057 54.014 37.968 54.111 37.854 54.111H35.914C35.842 54.111 35.792 54.039 35.819 53.972L37.507 49.692C37.539 49.611 37.66 49.628 37.667 49.715ZM48.137 44.572C47.057 44.572 46.305 45.349 46.077 46.308C45.848 47.268 46.545 48.045 47.454 48.045C48.363 48.045 49.231 47.331 49.459 46.372C49.688 45.413 49.045 44.572 48.136 44.572H48.137ZM70.08 33.657H66.935C66.761 33.657 66.595 33.734 66.483 33.867L62.9 38.108L66.41 45.836C66.472 45.973 66.607 46.06 66.756 46.06H69.598C69.89 46.06 70.082 45.755 69.96 45.488L66.611 38.208L70.274 34.099C70.426 33.929 70.306 33.657 70.08 33.657ZM34.968 29.688H31.96C31.772 29.688 31.612 29.83 31.588 30.021L30.182 40.808C29.931 42.595 31.633 44.076 33.408 44.076H39.376C39.522 44.076 39.646 43.966 39.667 43.82L40.077 40.988C40.099 40.838 39.984 40.702 39.834 40.702H34.556C34.179 40.702 33.89 40.362 33.944 39.983L35.341 30.126C35.374 29.895 35.198 29.688 34.969 29.688H34.968ZM45.694 33.658H43.146C42.977 33.658 42.835 33.794 42.811 33.978L41.569 43.782C41.549 43.937 41.659 44.076 41.802 44.076H44.428C44.615 44.076 44.773 43.925 44.799 43.721L46.029 34.076C46.055 33.854 45.898 33.657 45.694 33.657V33.658ZM53.183 33.161C49.549 33.173 48.819 33.434 48.347 33.889C47.945 34.277 47.856 35.046 47.758 35.507C47.666 35.939 46.657 42.977 46.528 43.881C47.062 43.561 47.485 43.275 48.388 43.308C49.333 43.342 50.048 44.027 50.048 44.027L51.162 36.101C52.667 35.837 53.453 36.166 53.715 36.594C53.977 37.024 53.845 38.111 53.682 39.099C53.55 39.898 53.162 42.649 53.017 43.68C52.987 43.89 53.149 44.076 53.359 44.076H56.224C56.381 44.076 56.514 43.96 56.538 43.803C56.694 42.772 57.246 39.078 57.413 37.583C57.61 35.837 56.892 33.149 53.183 33.161ZM63.7 29.192H60.573C60.477 29.192 60.396 29.265 60.383 29.362L58.438 43.83C58.421 43.96 58.519 44.077 58.648 44.077H61.736C61.841 44.077 61.931 43.997 61.946 43.889L63.892 29.417C63.908 29.299 63.818 29.193 63.702 29.193L63.7 29.192ZM44.662 29.192C43.584 29.192 42.832 29.97 42.602 30.928C42.374 31.888 43.072 32.665 43.98 32.665C44.889 32.665 45.757 31.951 45.986 30.992C46.214 30.033 45.571 29.192 44.662 29.192Z" fill="#E62B1E"/>
</svg>
