<svg width="120" height="34" viewBox="0 0 120 34" fill="none" xmlns="http://www.w3.org/2000/svg">
<path d="M99.7726 32.0845C99.7726 32.3998 99.6714 32.6416 99.4689 32.8097C99.2734 32.9709 99.0499 33.0515 98.7985 33.0515C98.5472 33.0515 98.3202 32.9709 98.1177 32.8097C97.9222 32.6416 97.8245 32.3998 97.8245 32.0845C97.8245 31.7692 97.9222 31.531 98.1177 31.3698C98.3202 31.2016 98.5472 31.1176 98.7985 31.1176C99.0499 31.1176 99.2734 31.2016 99.4689 31.3698C99.6714 31.531 99.7726 31.7692 99.7726 32.0845Z" fill="white"/>
<path d="M100.242 30.1506C100.242 29.7512 100.305 29.3764 100.431 29.026C100.563 28.6687 100.752 28.3604 100.996 28.1011C101.241 27.8348 101.537 27.6246 101.886 27.4705C102.236 27.3163 102.634 27.2393 103.081 27.2393C103.374 27.2393 103.643 27.2673 103.887 27.3233C104.131 27.3724 104.369 27.446 104.599 27.5441L104.275 28.7948C104.128 28.7387 103.967 28.6897 103.793 28.6476C103.618 28.6056 103.423 28.5846 103.206 28.5846C102.745 28.5846 102.4 28.7282 102.169 29.0155C101.946 29.3028 101.834 29.6812 101.834 30.1506C101.834 30.6481 101.939 31.0335 102.148 31.3067C102.365 31.58 102.738 31.7166 103.269 31.7166C103.458 31.7166 103.66 31.6991 103.877 31.6641C104.093 31.6291 104.292 31.573 104.474 31.4959L104.694 32.7782C104.512 32.8553 104.285 32.9218 104.013 32.9779C103.74 33.0339 103.44 33.062 103.112 33.062C102.609 33.062 102.176 32.9884 101.813 32.8412C101.45 32.6871 101.15 32.4804 100.912 32.2211C100.682 31.9619 100.511 31.6571 100.399 31.3067C100.294 30.9494 100.242 30.564 100.242 30.1506Z" fill="white"/>
<path d="M110.628 30.1401C110.628 30.5745 110.565 30.9739 110.44 31.3383C110.314 31.6956 110.132 32.0039 109.895 32.2632C109.658 32.5154 109.371 32.7116 109.036 32.8518C108.708 32.9919 108.338 33.062 107.926 33.062C107.521 33.062 107.151 32.9919 106.816 32.8518C106.487 32.7116 106.205 32.5154 105.967 32.2632C105.73 32.0039 105.545 31.6956 105.412 31.3383C105.279 30.9739 105.213 30.5745 105.213 30.1401C105.213 29.7057 105.279 29.3098 105.412 28.9524C105.552 28.5951 105.74 28.2903 105.978 28.038C106.222 27.7858 106.508 27.5896 106.837 27.4495C107.172 27.3093 107.535 27.2393 107.926 27.2393C108.324 27.2393 108.687 27.3093 109.015 27.4495C109.35 27.5896 109.637 27.7858 109.874 28.038C110.111 28.2903 110.296 28.5951 110.429 28.9524C110.562 29.3098 110.628 29.7057 110.628 30.1401ZM109.036 30.1401C109.036 29.6566 108.938 29.2783 108.743 29.005C108.554 28.7247 108.282 28.5846 107.926 28.5846C107.57 28.5846 107.294 28.7247 107.098 29.005C106.903 29.2783 106.805 29.6566 106.805 30.1401C106.805 30.6236 106.903 31.009 107.098 31.2962C107.294 31.5765 107.57 31.7166 107.926 31.7166C108.282 31.7166 108.554 31.5765 108.743 31.2962C108.938 31.009 109.036 30.6236 109.036 30.1401Z" fill="white"/>
<path d="M114.864 29.9824C114.864 29.478 114.798 29.1206 114.665 28.9104C114.539 28.7002 114.319 28.5951 114.005 28.5951C113.907 28.5951 113.806 28.6021 113.701 28.6161C113.597 28.6231 113.495 28.6336 113.398 28.6476V32.9148H111.837V27.5756C111.97 27.5406 112.123 27.5055 112.298 27.4705C112.479 27.4284 112.668 27.3934 112.864 27.3654C113.066 27.3303 113.272 27.3058 113.481 27.2918C113.691 27.2708 113.897 27.2603 114.099 27.2603C114.497 27.2603 114.819 27.3128 115.063 27.4179C115.314 27.516 115.52 27.6351 115.681 27.7753C115.904 27.6141 116.159 27.488 116.446 27.3969C116.739 27.3058 117.008 27.2603 117.252 27.2603C117.692 27.2603 118.052 27.3233 118.331 27.4495C118.617 27.5686 118.844 27.7402 119.012 27.9645C119.179 28.1887 119.295 28.4549 119.357 28.7633C119.42 29.0716 119.452 29.4149 119.452 29.7933V32.9148H117.891V29.9824C117.891 29.478 117.825 29.1206 117.692 28.9104C117.566 28.7002 117.346 28.5951 117.032 28.5951C116.948 28.5951 116.83 28.6161 116.676 28.6581C116.529 28.7002 116.407 28.7527 116.309 28.8158C116.358 28.977 116.39 29.1486 116.404 29.3308C116.418 29.506 116.425 29.6952 116.425 29.8984V32.9148H114.864V29.9824Z" fill="white"/>
<path fill-rule="evenodd" clip-rule="evenodd" d="M100.348 21.1877V24.4935H95.3513V19.1344C95.9672 19.623 96.7788 20.4488 96.7788 20.4488C96.7788 20.4488 96.3722 18.5507 95.7336 17.0857C95.4036 16.3287 95.0284 15.6093 94.7526 15.1067C94.3065 14.2849 93.8016 13.474 93.2588 12.805C91.797 11.0034 90.2558 10.0508 89.5751 9.68648C89.459 9.62436 89.476 9.43948 89.6039 9.40834C90.5143 9.18672 91.8341 8.98592 93.4004 9.57026C95.4317 10.3281 96.7579 11.8032 97.529 13.2275C99.762 9.04445 108.096 6.00603 112.604 4.85445C112.76 4.81473 112.852 5.04318 112.716 5.12878C111.197 6.0866 107.834 8.41586 104.511 12.1215C100.869 16.1833 100.397 19.9259 100.348 21.1877ZM57.5731 24.4676L64.0782 12.0472C64.3022 11.6048 64.7145 11.3098 65.3153 11.1623C65.4901 11.1187 65.7059 11.0968 65.9626 11.0968C66.2193 11.0968 66.4979 11.1705 66.7983 11.318C67.1041 11.46 67.3445 11.6867 67.5192 11.998L74.4996 24.4676H67.8552L67.339 23.1731H63.7997L63.3572 24.4676H57.5731ZM64.2011 20.576H66.8474L65.5939 17.0367L64.2011 20.576ZM46.4143 11.3836H58.802V15.6275H55.1561V24.4676H50.0602V15.6275H46.4143V11.3836ZM77.0722 11.3836H75.7449V24.4676H80.3411V19.9697L87.0675 24.4676H88.829V11.3836H84.2164V16.4795L77.0722 11.3836ZM102.525 24.4676L109.03 12.0472C109.254 11.6048 109.667 11.3098 110.268 11.1623C110.442 11.1187 110.658 11.0968 110.915 11.0968C111.171 11.0968 111.45 11.1705 111.75 11.318C112.056 11.46 112.297 11.6867 112.471 11.998L119.452 24.4676H112.807L112.291 23.1731H108.752L108.309 24.4676H102.525ZM109.153 20.576H111.8L110.546 17.0367L109.153 20.576ZM20.5501 11.3838V15.4065L23.7044 11.3838H29.0216L24.794 16.8976L29.677 24.4678H23.7044L20.968 19.8388L20.6648 20.3714V24.4678H15.364V11.3838H20.5501ZM37.7634 24.7873C33.4212 24.7873 31.2501 22.9412 31.2501 19.2489V11.3838H36.4198V19.1015C36.4198 19.8771 36.6792 20.3823 37.1981 20.6172C37.3783 20.6991 37.5941 20.7401 37.8453 20.7401C38.5554 20.7401 39.0033 20.4014 39.189 19.7241C39.2436 19.522 39.2709 19.3036 39.2709 19.0687V11.3838H43.8016V19.2489C43.8016 22.9412 41.7889 24.7873 37.7634 24.7873Z" fill="white"/>
<path fill-rule="evenodd" clip-rule="evenodd" d="M29.3948 8.8571C27.0964 6.17103 23.6817 4.46863 19.8694 4.46863C12.9485 4.46863 7.33802 10.0791 7.33802 17C7.33802 18.4248 7.57498 19.7899 8.00993 21.0606C8.32229 21.9731 8.30392 23.0367 7.81684 23.9921L5.3964 28.7396L11.6994 27.7114C12.545 27.5735 13.3674 27.7431 14.0529 28.103C15.7888 29.0146 17.7656 29.5313 19.8694 29.5313C22.5135 29.5313 24.9664 28.7123 26.9882 27.3142H33.1676C30.0888 31.278 25.2769 33.8285 19.8694 33.8285C17.1117 33.8285 14.5033 33.1636 12.2015 31.9836L4.87267 33.1791C1.90228 33.6637 -0.358413 30.5664 1.00858 27.8851L3.87845 22.256C3.33431 20.5996 3.04078 18.832 3.04078 17C3.04078 7.70579 10.5752 0.171387 19.8694 0.171387C26.2097 0.171387 31.7311 3.67772 34.6002 8.8571H29.3948Z" fill="#9A4BFF"/>
</svg>
