<svg width="314" height="320" viewBox="0 0 314 320" fill="none" xmlns="http://www.w3.org/2000/svg">
<g clip-path="url(#clip0_2_123)">
<path d="M280.208 253.072L290.226 252.848L295.16 252.773C296.805 252.773 298.45 252.773 300.02 252.698L299.72 252.997L299.646 244.631L300.02 245.005L290.151 244.93C286.861 244.93 283.572 244.855 280.282 244.781L280.507 244.556C280.507 245.901 280.432 247.32 280.432 248.665L280.208 253.072ZM280.208 253.072L280.133 248.964C280.133 247.544 280.058 246.125 280.058 244.706V244.482H280.282C283.572 244.407 286.861 244.332 290.151 244.332L300.02 244.258H300.393V244.631L300.319 252.997V253.296H300.02C298.375 253.296 296.655 253.296 295.01 253.221L290.001 253.147L280.208 253.072Z" fill="#EBEBEB"/>
<path d="M291.198 263.604L301.216 263.38L306.15 263.305C307.795 263.305 309.44 263.305 311.01 263.231L310.711 263.529L310.636 255.163L311.01 255.537L301.141 255.462C297.851 255.462 294.562 255.387 291.272 255.313L291.497 255.089C291.497 256.433 291.422 257.852 291.422 259.197L291.198 263.604ZM291.198 263.604L291.123 259.496C291.123 258.077 291.048 256.657 291.048 255.238V255.014H291.272C294.562 254.939 297.851 254.865 301.141 254.865L311.01 254.79H311.383V255.163L311.309 263.529V263.828H311.01C309.365 263.828 307.645 263.828 306 263.753L300.991 263.679L291.198 263.604Z" fill="#EBEBEB"/>
<path d="M269.129 263.632H288.941V255.266H269.129V263.632Z" fill="#EBEBEB"/>
<path d="M203.502 62.9692L213.52 62.7451L218.454 62.6704C220.099 62.6704 221.744 62.6704 223.314 62.5957L223.015 62.8945L222.94 54.5285L223.314 54.902L213.445 54.8273C210.156 54.8273 206.866 54.7526 203.577 54.6779L203.801 54.4538C203.801 55.7983 203.726 57.2176 203.726 58.5621L203.502 62.9692ZM203.502 62.9692L203.427 58.8609C203.427 57.4416 203.352 56.0224 203.352 54.6032V54.3791H203.577C206.866 54.3044 210.156 54.2297 213.445 54.2297L223.314 54.155H223.688V54.5285L223.613 62.8945V63.1933H223.314C221.669 63.1933 219.949 63.1933 218.305 63.1186L213.296 63.0439L203.502 62.9692Z" fill="#EBEBEB"/>
<path d="M214.567 73.5014L224.585 73.2773L229.519 73.2026C231.164 73.2026 232.808 73.2026 234.378 73.1279L234.079 73.4267L234.005 65.1354L234.378 65.5089L224.51 65.4342C221.22 65.4342 217.931 65.3595 214.641 65.2848L214.866 65.0607C214.866 66.4052 214.791 67.8245 214.791 69.169L214.567 73.5014ZM214.567 73.5014L214.492 69.3931C214.492 67.9738 214.417 66.5546 214.417 65.1354V64.9113H214.641C217.931 64.8366 221.22 64.7619 224.51 64.7619L234.378 64.6872H234.752V65.0607L234.677 73.4267V73.7255H234.378C232.734 73.7255 231.014 73.7255 229.369 73.6508L224.36 73.5761L214.567 73.5014Z" fill="#EBEBEB"/>
<path d="M192.49 73.4644H212.302V65.0983H192.49V73.4644Z" fill="#EBEBEB"/>
<path d="M13.9762 263.632H33.7881V255.266H13.9762V263.632Z" fill="#EBEBEB"/>
<path d="M13.9762 8.71664L33.7881 8.71664V0.350632L13.9762 0.350632V8.71664Z" fill="#EBEBEB"/>
<path d="M2.91564 19.2717L12.9337 19.0476L17.868 18.9729C19.5128 18.9729 21.1575 18.9729 22.7275 18.8982L22.4285 19.2717L22.3537 10.9057L22.7275 11.2792L12.859 11.2045C9.56945 11.2045 6.27992 11.1298 2.9904 11.0551L3.21468 10.831C3.21468 12.1755 3.13992 13.5948 3.13992 14.9393L2.91564 19.2717ZM2.91564 19.2717L2.84088 15.1634C2.84088 13.7442 2.76611 12.3249 2.76611 10.9057V10.6816H2.9904C6.27992 10.6069 9.56945 10.5322 12.859 10.5322L22.7275 10.4575H23.1014V10.831L23.0266 19.197V19.4958H22.7275C21.0828 19.4958 19.3633 19.4958 17.7185 19.4211L12.7094 19.3464L2.91564 19.2717Z" fill="#EBEBEB"/>
<path d="M291.198 8.7395L301.216 8.51541L306.15 8.44071C307.795 8.44071 309.44 8.44071 311.01 8.36601L310.711 8.6648L310.636 0.298786L311.01 0.746965L301.141 0.672269C297.851 0.672269 294.562 0.597572 291.272 0.522876L291.497 0.298786C291.497 1.64332 291.422 3.06256 291.422 4.4071L291.198 8.7395ZM291.198 8.7395L291.123 4.63119C291.123 3.21195 291.048 1.79272 291.048 0.373483V0.149393H291.272C294.562 0.0746965 297.851 0 301.141 0L311.01 0H311.383V0.373483L311.309 8.7395V9.03828H311.01C309.365 9.03828 307.645 9.03828 306 8.96359L300.991 8.88889L291.198 8.7395Z" fill="#EBEBEB"/>
<path d="M181.148 224.314H161.336V232.68H181.148V224.314Z" fill="#EBEBEB"/>
<path d="M170.083 213.782L160.065 214.006L155.131 214.08C153.486 214.08 151.841 214.08 150.271 214.155L150.57 213.856L150.645 222.222L150.271 221.849L160.14 221.923C163.429 221.923 166.719 221.998 170.008 222.073L169.784 222.297C169.784 220.952 169.859 219.533 169.859 218.189L170.083 213.782ZM170.083 213.782L170.158 217.89C170.158 219.309 170.233 220.728 170.233 222.148V222.372H170.008C166.719 222.446 163.429 222.521 160.14 222.521L150.271 222.596H149.897V222.222L149.972 213.856V213.557H150.271C151.916 213.557 153.636 213.557 155.28 213.632L160.289 213.707L170.083 213.782Z" fill="#EBEBEB"/>
<path d="M272.059 8.59009H90.5366V145.434H272.059V8.59009Z" stroke="#EBEBEB" stroke-miterlimit="10"/>
<path d="M96.9661 12.1008C96.9661 13.0719 96.2185 13.8189 95.2466 13.8189C94.2747 13.8189 93.5271 13.0719 93.5271 12.1008C93.5271 11.1298 94.2747 10.3828 95.2466 10.3828C96.2185 10.3828 96.9661 11.1298 96.9661 12.1008Z" fill="#A6A6A6"/>
<path d="M104.068 12.1008C104.068 13.0719 103.321 13.8189 102.349 13.8189C101.377 13.8189 100.629 13.0719 100.629 12.1008C100.629 11.1298 101.377 10.3828 102.349 10.3828C103.246 10.3828 104.068 11.1298 104.068 12.1008Z" fill="#EBEBEB"/>
<path d="M111.096 12.1008C111.096 13.0719 110.349 13.8189 109.377 13.8189C108.405 13.8189 107.657 13.0719 107.657 12.1008C107.657 11.1298 108.405 10.3828 109.377 10.3828C110.274 10.3828 111.096 11.1298 111.096 12.1008Z" fill="#FFC727"/>
<path d="M90.5366 15.4622H272.059" stroke="#EBEBEB" stroke-miterlimit="10"/>
<path d="M53.2256 44.6115C55.4813 30.0154 45.4671 16.356 30.8583 14.1023C16.2494 11.8485 2.57804 21.854 0.32234 36.45C-1.93336 51.0461 8.08083 64.7055 22.6897 66.9592C37.2985 69.213 50.9699 59.2075 53.2256 44.6115Z" fill="#EBEBEB"/>
<path d="M27.9611 66.6293C42.0409 66.6293 53.4549 55.2253 53.4549 41.1578C53.4549 27.0903 42.0409 15.6863 27.9611 15.6863C13.8813 15.6863 2.46729 27.0903 2.46729 41.1578C2.46729 55.2253 13.8813 66.6293 27.9611 66.6293Z" fill="#DBDBDB"/>
<path d="M27.9612 65.0607C41.1739 65.0607 51.885 54.359 51.885 41.1578C51.885 27.9566 41.1739 17.2549 27.9612 17.2549C14.7484 17.2549 4.03735 27.9566 4.03735 41.1578C4.03735 54.359 14.7484 65.0607 27.9612 65.0607Z" fill="white"/>
<path opacity="0.5" d="M51.3616 36.0784C40.4464 42.6517 22.5783 53.4827 12.5602 59.3838C9.71924 57.0682 7.47638 54.0056 6.05591 50.6443L39.1754 20.0187C45.3059 23.2306 49.8664 29.057 51.3616 36.0784Z" fill="#EBEBEB"/>
<path opacity="0.5" d="M51.8849 41.9795C51.8102 44.7432 51.2121 47.3576 50.3149 49.7479L20.4849 63.7909C19.1392 63.3427 17.943 62.8198 16.7468 62.1475C25.7183 56.9935 42.1659 47.507 51.8849 41.9795Z" fill="#EBEBEB"/>
<path d="M28.1854 18.9729H27.7368V22.5583H28.1854V18.9729Z" fill="#C7C7C7"/>
<path d="M17.0987 21.8612L16.7102 22.0853L18.5045 25.1903L18.893 24.9662L17.0987 21.8612Z" fill="#C7C7C7"/>
<path d="M8.85519 29.8726L8.63086 30.2607L11.7386 32.0538L11.9629 31.6656L8.85519 29.8726Z" fill="#C7C7C7"/>
<path d="M9.42011 40.9337H5.83154V41.3819H9.42011V40.9337Z" fill="#C7C7C7"/>
<path d="M11.7653 50.2352L8.65796 52.0287L8.88233 52.4167L11.9897 50.6233L11.7653 50.2352Z" fill="#C7C7C7"/>
<path d="M18.5223 57.1094L16.7295 60.2155L17.1181 60.4394L18.9109 57.3333L18.5223 57.1094Z" fill="#C7C7C7"/>
<path d="M28.1854 59.6825H27.7368V63.268H28.1854V59.6825Z" fill="#C7C7C7"/>
<path d="M37.4058 57.0671L37.0173 57.2912L38.8116 60.3962L39.2001 60.1721L37.4058 57.0671Z" fill="#C7C7C7"/>
<path d="M44.172 50.2293L43.9478 50.6174L47.0555 52.4101L47.2797 52.022L44.172 50.2293Z" fill="#C7C7C7"/>
<path d="M50.0905 40.9337H46.502V41.3819H50.0905V40.9337Z" fill="#C7C7C7"/>
<path d="M47.0281 29.8433L43.9204 31.636L44.1447 32.0241L47.2524 30.2314L47.0281 29.8433Z" fill="#C7C7C7"/>
<path d="M38.8585 21.8853L37.0657 24.991L37.4542 25.2149L39.2471 22.1092L38.8585 21.8853Z" fill="#C7C7C7"/>
<path d="M28.3348 20.6162L29.0825 42.7264H26.8396L27.7367 20.6162H28.3348Z" fill="#C7C7C7"/>
<path d="M42.091 33.3894L27.2134 42.9505L26.1667 40.9337L41.792 32.8665L42.091 33.3894Z" fill="#A6A6A6"/>
<path d="M28.7833 41.1578C28.7833 41.606 28.4095 41.9048 28.0357 41.9048C27.5871 41.9048 27.2881 41.5313 27.2881 41.1578C27.2881 40.7096 27.6619 40.4108 28.0357 40.4108C28.4095 40.3361 28.7833 40.7096 28.7833 41.1578Z" fill="#C7C7C7"/>
<path d="M285.292 34.2857H251.948V74.6965H285.292V34.2857Z" fill="#EBEBEB"/>
<path d="M281.479 37.9458H255.76V70.9617H281.479V37.9458Z" fill="white"/>
<path d="M256.732 37.9458H255.76V70.9617H256.732V37.9458Z" fill="#DBDBDB"/>
<path d="M286.263 34.2857H285.292V74.6965H286.263V34.2857Z" fill="#DBDBDB"/>
<path d="M270.414 42.5023H264.358V60.5789H270.414V42.5023Z" fill="#DBDBDB"/>
<path d="M277.815 54.8273H261.667V63.6415H277.815V54.8273Z" stroke="#EBEBEB" stroke-miterlimit="10"/>
<path d="M312.953 84.4071H279.61V124.818H312.953V84.4071Z" fill="#EBEBEB"/>
<path d="M309.14 88.0672H283.422V121.083H309.14V88.0672Z" fill="white"/>
<path d="M284.394 88.0672H283.422V121.083H284.394V88.0672Z" fill="#DBDBDB"/>
<path d="M313.925 84.4071H312.953V124.818H313.925V84.4071Z" fill="#DBDBDB"/>
<path d="M299.048 96.5826H293.814V109.729H299.048V96.5826Z" fill="#EBEBEB"/>
<path d="M304.505 104.575H290.525V113.613H304.505V104.575Z" stroke="#DBDBDB" stroke-miterlimit="10"/>
<path d="M2.84095 252.997H90.0881L92.929 197.647H0L2.84095 252.997Z" fill="#EBEBEB"/>
<path d="M6.13037 204.071H84.5556L83.3594 222.67H7.17704L6.13037 204.071Z" stroke="#DBDBDB" stroke-miterlimit="10"/>
<path d="M8.52271 228.049L9.34509 244.706H82.3127L83.3594 228.049H8.52271Z" stroke="#DBDBDB" stroke-miterlimit="10"/>
<path d="M53.8286 215.126H38.1286L37.6052 211.167H54.3519L53.8286 215.126Z" stroke="#DBDBDB" stroke-miterlimit="10"/>
<path d="M53.8286 238.357H38.1286L37.6052 234.398H54.3519L53.8286 238.357Z" stroke="#DBDBDB" stroke-miterlimit="10"/>
<path d="M14.8776 252.997L14.0552 259.048L12.3357 271.148H9.04614V252.997H14.8776Z" fill="#EBEBEB"/>
<path d="M14.8776 252.997L14.0552 259.048H9.04614V252.997H14.8776Z" fill="#DBDBDB"/>
<path d="M77.9766 252.997L78.8737 259.048L80.5185 271.148H83.8827V252.997H77.9766Z" fill="#EBEBEB"/>
<path d="M77.9766 252.997L78.8737 259.048H83.8827V252.997H77.9766Z" fill="#DBDBDB"/>
<path d="M279.011 23.3053H34.9138V186.891H279.011V23.3053Z" fill="#455A64"/>
<path d="M279.011 23.3053H34.9138V30.1027H279.011V23.3053Z" fill="#263238"/>
<path d="M40.2967 26.7414C40.2967 27.6377 39.5491 28.4594 38.5772 28.4594C37.68 28.4594 36.8577 27.7124 36.8577 26.7414C36.8577 25.845 37.6053 25.0233 38.5772 25.0233C39.5491 25.0233 40.2967 25.7703 40.2967 26.7414Z" fill="#C7C7C7"/>
<path d="M47.1749 26.7414C47.1749 27.6377 46.4273 28.4594 45.4554 28.4594C44.5582 28.4594 43.7358 27.7124 43.7358 26.7414C43.7358 25.845 44.4835 25.0233 45.4554 25.0233C46.4273 25.0233 47.1749 25.7703 47.1749 26.7414Z" fill="white"/>
<path d="M54.0528 26.7414C54.0528 27.6377 53.3052 28.4594 52.3333 28.4594C51.4362 28.4594 50.6138 27.7124 50.6138 26.7414C50.6138 25.845 51.3614 25.0233 52.3333 25.0233C53.3052 25.0233 54.0528 25.7703 54.0528 26.7414Z" fill="#FFC727"/>
<path d="M314 271.148L274.75 271.298L235.5 271.373L157 271.522L78.5 271.373L39.25 271.298L0 271.148L39.25 270.924L78.5 270.85L157 270.775L235.5 270.85L274.75 270.924L314 271.148Z" fill="#263238"/>
<path d="M297.852 316.415C297.179 314.248 261.069 263.679 258.527 262.633C257.555 262.26 255.611 260.691 246.565 266.816L227.276 249.935L216.361 285.49L263.91 305.733C263.91 305.733 286.413 318.88 289.329 319.776C292.319 320.672 298.524 318.581 297.852 316.415Z" fill="#EB9481"/>
<path d="M297.852 316.415C297.179 314.248 261.069 263.679 258.527 262.633C257.555 262.26 255.611 260.691 246.565 266.816L227.276 249.935L216.361 285.49L263.91 305.733C263.91 305.733 286.413 318.88 289.329 319.776C292.319 320.672 298.524 318.581 297.852 316.415Z" fill="#EB9481"/>
<path d="M244.546 297.516L263.91 305.733C263.91 305.733 286.413 318.88 289.329 319.776C292.319 320.598 298.524 318.581 297.852 316.34C297.179 314.174 261.069 263.604 258.527 262.558C257.555 262.185 255.611 260.616 246.565 266.741L244.546 264.949V297.516Z" fill="#FFC727"/>
<path d="M248.808 297.666C248.284 296.919 247.686 296.321 247.088 295.724C246.49 295.126 245.817 294.603 244.995 294.155C245.518 294.902 246.116 295.5 246.714 296.097C247.387 296.695 248.06 297.218 248.808 297.666Z" fill="#263238"/>
<path d="M248.808 294.304C248.284 293.557 247.686 292.96 247.088 292.362C246.49 291.765 245.817 291.242 244.995 290.794C245.518 291.541 246.116 292.138 246.714 292.736C247.387 293.333 248.06 293.856 248.808 294.304Z" fill="#263238"/>
<path d="M248.882 290.943C248.359 290.196 247.761 289.599 247.163 289.001C246.565 288.403 245.892 287.881 245.07 287.432C245.593 288.179 246.191 288.777 246.789 289.374C247.462 289.972 248.135 290.495 248.882 290.943Z" fill="#263238"/>
<path d="M248.882 287.582C248.359 286.835 247.761 286.237 247.163 285.64C246.565 285.042 245.892 284.519 245.07 284.071C245.593 284.818 246.191 285.416 246.789 286.013C247.462 286.611 248.135 287.134 248.882 287.582Z" fill="#263238"/>
<path d="M248.957 284.22C248.434 283.473 247.836 282.876 247.238 282.278C246.64 281.681 245.967 281.158 245.144 280.71C245.668 281.457 246.266 282.054 246.864 282.652C247.537 283.175 248.21 283.772 248.957 284.22Z" fill="#263238"/>
<path d="M249.032 280.784C248.509 280.037 247.911 279.44 247.313 278.842C246.714 278.245 246.042 277.722 245.219 277.274C245.743 278.021 246.341 278.618 246.939 279.216C247.537 279.813 248.21 280.411 249.032 280.784Z" fill="#263238"/>
<path d="M249.032 277.423C248.509 276.676 247.911 276.078 247.313 275.481C246.714 274.883 246.042 274.36 245.219 273.912C245.743 274.659 246.341 275.257 246.939 275.854C247.612 276.452 248.284 276.975 249.032 277.423Z" fill="#263238"/>
<path d="M249.107 274.062C248.583 273.315 247.985 272.717 247.387 272.12C246.789 271.522 246.116 270.999 245.294 270.551C245.817 271.298 246.415 271.895 247.013 272.493C247.686 273.091 248.284 273.613 249.107 274.062Z" fill="#263238"/>
<path d="M249.107 270.7C248.583 269.953 247.985 269.356 247.387 268.758C246.789 268.161 246.116 267.638 245.294 267.19C245.817 267.937 246.415 268.534 247.013 269.132C247.686 269.729 248.359 270.252 249.107 270.7Z" fill="#263238"/>
<path d="M152.963 246.723C158.794 262.708 239.762 299.683 239.762 299.683L253.443 257.18L216.286 241.345L295.011 229.841L254.863 214.827C254.863 214.827 247.238 218.039 241.631 216.396C239.163 215.649 186.082 208.329 175.765 210.868C152.963 216.62 147.655 232.082 152.963 246.723Z" fill="#37474F"/>
<path d="M197.82 231.634C199.39 232.157 200.885 233.128 202.381 233.875C203.951 234.697 205.521 235.443 207.165 236.265C207.165 236.265 207.165 236.265 207.24 236.265C206.866 235.966 206.567 235.668 206.193 235.444C204.997 234.472 203.876 233.427 202.53 232.605C202.455 232.53 202.53 232.456 202.605 232.456C203.951 233.277 205.371 234.024 206.567 234.921C207.165 235.369 207.763 235.817 208.287 236.34C208.586 236.639 208.885 236.863 209.184 237.162C209.333 237.311 209.483 237.386 209.632 237.535C210.38 237.908 211.053 238.282 211.801 238.655C213.371 239.552 214.866 240.523 216.436 241.419C216.511 241.494 216.436 241.569 216.361 241.569C214.791 240.822 213.221 240.149 211.651 239.402C210.081 238.655 208.511 237.759 206.941 236.937C205.446 236.116 203.951 235.219 202.455 234.398C200.96 233.576 199.241 232.829 197.895 231.783C197.671 231.709 197.745 231.634 197.82 231.634Z" fill="#263238"/>
<path d="M235.276 289.524C235.65 288.329 235.949 287.134 236.323 285.938C237.07 283.548 237.743 281.083 238.491 278.693C239.986 273.912 241.406 269.132 242.976 264.351C243.873 261.662 244.771 258.973 245.743 256.359C245.817 256.209 246.042 256.284 245.967 256.433C244.771 261.288 243.201 266.144 241.705 270.924C240.21 275.705 238.64 280.486 237.07 285.191C236.622 286.536 236.173 287.88 235.724 289.15C235.276 290.495 234.753 291.839 234.304 293.184C234.304 293.259 234.154 293.184 234.229 293.184C234.678 291.914 234.977 290.719 235.276 289.524Z" fill="#263238"/>
<path d="M278.264 177.255C270.788 191.895 258.676 208.627 254.714 210.868C249.78 213.707 221.594 214.006 220.249 213.856C216.884 213.333 216.286 188.235 219.875 188.683C225.332 189.281 244.845 193.091 246.266 192.194C247.761 191.298 258.452 183.081 269.741 173.669C277.591 167.021 282.974 168.142 278.264 177.255Z" fill="#EB9481"/>
<path d="M223.239 213.184C222.791 213.259 216.585 214.678 212.922 214.753C210.156 214.827 202.306 214.902 201.932 211.914C201.633 209.897 206.268 209.3 209.558 208.777C211.277 208.553 213.595 207.358 213.371 206.237C212.997 204.295 208.586 205.042 205.521 205.864C199.689 207.507 191.54 211.167 189.148 207.806C188.251 206.536 190.045 205.117 192.437 203.847C188.699 205.042 184.811 205.864 183.765 204.444C183.167 203.697 183.316 202.876 183.989 202.054C182.942 202.129 182.045 201.83 181.597 201.008C180.849 199.664 181.746 198.17 183.316 196.751C182.942 196.601 182.643 196.377 182.494 195.854C181.148 191.895 194.755 184.949 198.792 185.023C210.829 185.173 222.641 188.683 222.641 188.683C226.23 193.613 223.239 213.184 223.239 213.184Z" fill="#EB9481"/>
<path d="M209.184 198.543C206.418 198.319 203.502 198.618 200.885 199.514C197.521 200.71 195.054 202.428 192.063 204.071C191.989 204.146 192.063 204.22 192.138 204.22C193.559 203.473 199.315 200.635 200.811 200.037C203.502 198.917 206.343 198.394 209.184 198.543C209.259 198.543 209.259 198.618 209.184 198.543Z" fill="#263238"/>
<path d="M208.287 193.165C205.072 193.24 201.857 193.315 198.717 193.987C195.278 194.734 192.288 196.676 189.372 198.543C187.578 199.664 185.858 200.784 184.139 201.979C184.064 202.054 184.139 202.129 184.213 202.129C187.204 200.261 190.269 198.394 193.409 196.676C196.325 195.033 199.39 194.062 202.754 193.613C204.549 193.389 206.418 193.315 208.287 193.165C208.361 193.165 208.361 193.24 208.287 193.165Z" fill="#263238"/>
<path d="M206.193 188.161C203.128 188.011 200.511 187.862 197.521 188.833C193.633 190.028 189.447 192.642 188.026 193.613C186.381 194.659 184.811 195.705 183.241 196.825C183.167 196.9 183.241 196.975 183.316 196.975C186.83 194.584 190.568 192.418 194.381 190.476C196.175 189.58 198.119 188.833 200.138 188.534C202.156 188.161 204.175 188.161 206.193 188.161C206.193 188.161 206.193 188.235 206.193 188.161Z" fill="#263238"/>
<path d="M267.498 198.618L258.676 179.869C258.676 179.869 264.059 175.387 271.685 170.607C279.311 165.826 283.049 168.441 278.488 179.72C273.928 190.999 267.498 198.618 267.498 198.618Z" fill="#FFC727"/>
<path d="M263.984 176.284C263.984 177.105 263.312 177.778 262.489 177.778C262.19 177.778 261.891 177.703 261.667 177.554C262.34 177.031 263.087 176.508 263.91 175.91C263.984 175.985 263.984 176.134 263.984 176.284ZM276.918 174.79C276.096 174.79 275.423 175.462 275.423 176.284C275.423 177.105 276.096 177.778 276.918 177.778C277.741 177.778 278.413 177.105 278.413 176.284C278.413 175.462 277.741 174.79 276.918 174.79ZM269.741 185.696C268.919 185.696 268.246 186.368 268.246 187.19C268.246 188.011 268.919 188.683 269.741 188.683C270.563 188.683 271.236 188.011 271.236 187.19C271.236 186.368 270.563 185.696 269.741 185.696Z" fill="white"/>
<path d="M261.368 178.599C262.19 179.944 262.788 181.363 263.536 182.708C264.209 184.052 264.882 185.322 265.48 186.667C266.751 189.43 268.021 192.269 269.218 195.033C269.218 195.107 269.143 195.107 269.143 195.107C267.797 192.418 266.451 189.729 265.106 186.965C264.433 185.621 263.835 184.202 263.237 182.857C262.639 181.438 261.891 180.093 261.368 178.599C261.293 178.599 261.368 178.525 261.368 178.599Z" fill="#263238"/>
<path opacity="0.1" d="M278.488 179.72C273.928 190.999 267.498 198.618 267.498 198.618L260.097 182.932L278.638 168.515C280.955 169.337 281.18 172.922 278.488 179.72Z" fill="black"/>
<path d="M311.234 237.46C309.365 238.207 253.817 225.135 253.817 225.135L259.349 205.864C259.349 205.864 255.835 199.888 257.031 193.987C258.601 186.069 272.507 172.4 273.629 171.578C278.04 168.291 282.077 167.694 285.964 169.486C302.188 177.031 311.234 237.46 311.234 237.46Z" fill="#FFC727"/>
<path d="M278.413 176.284C278.413 177.106 277.741 177.778 276.918 177.778C276.096 177.778 275.423 177.106 275.423 176.284C275.423 175.462 276.096 174.79 276.918 174.79C277.741 174.79 278.413 175.462 278.413 176.284ZM292.842 176.134C292.543 175.686 292.319 175.313 292.02 174.939C291.796 174.865 291.646 174.79 291.347 174.79C290.525 174.79 289.852 175.462 289.852 176.284C289.852 177.106 290.525 177.778 291.347 177.778C292.17 177.778 292.842 177.106 292.842 176.284C292.842 176.209 292.842 176.134 292.842 176.134ZM262.489 196.676C261.667 196.676 260.994 197.348 260.994 198.17C260.994 198.992 261.667 199.664 262.489 199.664C263.312 199.664 263.984 198.992 263.984 198.17C263.984 197.348 263.312 196.676 262.489 196.676ZM276.918 196.676C276.096 196.676 275.423 197.348 275.423 198.17C275.423 198.992 276.096 199.664 276.918 199.664C277.741 199.664 278.413 198.992 278.413 198.17C278.413 197.348 277.741 196.676 276.918 196.676ZM291.347 196.676C290.525 196.676 289.852 197.348 289.852 198.17C289.852 198.992 290.525 199.664 291.347 199.664C292.17 199.664 292.842 198.992 292.842 198.17C292.842 197.348 292.17 196.676 291.347 196.676ZM269.741 185.696C268.919 185.696 268.246 186.368 268.246 187.19C268.246 188.011 268.919 188.683 269.741 188.683C270.563 188.683 271.236 188.011 271.236 187.19C271.236 186.368 270.563 185.696 269.741 185.696ZM284.095 185.696C283.273 185.696 282.6 186.368 282.6 187.19C282.6 188.011 283.273 188.683 284.095 188.683C284.918 188.683 285.591 188.011 285.591 187.19C285.591 186.368 284.918 185.696 284.095 185.696ZM297.926 185.845C297.403 186.069 297.104 186.592 297.104 187.19C297.104 188.011 297.777 188.683 298.599 188.683C298.749 188.683 298.898 188.683 299.048 188.609C298.674 187.638 298.3 186.741 297.926 185.845ZM262.489 218.562C261.667 218.562 260.994 219.234 260.994 220.056C260.994 220.878 261.667 221.55 262.489 221.55C263.312 221.55 263.984 220.878 263.984 220.056C263.984 219.234 263.312 218.562 262.489 218.562ZM276.918 218.562C276.096 218.562 275.423 219.234 275.423 220.056C275.423 220.878 276.096 221.55 276.918 221.55C277.741 221.55 278.413 220.878 278.413 220.056C278.413 219.234 277.741 218.562 276.918 218.562ZM291.347 218.562C290.525 218.562 289.852 219.234 289.852 220.056C289.852 220.878 290.525 221.55 291.347 221.55C292.17 221.55 292.842 220.878 292.842 220.056C292.842 219.234 292.17 218.562 291.347 218.562ZM305.776 218.562C304.954 218.562 304.281 219.234 304.281 220.056C304.281 220.878 304.954 221.55 305.776 221.55C306.599 221.55 307.272 220.878 307.272 220.056C307.272 219.234 306.599 218.562 305.776 218.562ZM269.741 207.582C268.919 207.582 268.246 208.254 268.246 209.076C268.246 209.897 268.919 210.57 269.741 210.57C270.563 210.57 271.236 209.897 271.236 209.076C271.236 208.254 270.563 207.582 269.741 207.582ZM284.095 207.582C283.273 207.582 282.6 208.254 282.6 209.076C282.6 209.897 283.273 210.57 284.095 210.57C284.918 210.57 285.591 209.897 285.591 209.076C285.591 208.254 284.918 207.582 284.095 207.582ZM298.524 207.582C297.702 207.582 297.029 208.254 297.029 209.076C297.029 209.897 297.702 210.57 298.524 210.57C299.347 210.57 300.02 209.897 300.02 209.076C300.02 208.254 299.347 207.582 298.524 207.582ZM284.095 229.543C283.273 229.543 282.6 230.215 282.6 231.036C282.6 231.335 282.675 231.559 282.824 231.783C283.572 231.933 284.245 232.082 284.992 232.232C285.366 231.933 285.665 231.485 285.665 231.036C285.591 230.215 284.918 229.543 284.095 229.543ZM298.524 229.543C297.702 229.543 297.029 230.215 297.029 231.036C297.029 231.858 297.702 232.53 298.524 232.53C299.347 232.53 300.02 231.858 300.02 231.036C300.02 230.215 299.347 229.543 298.524 229.543Z" fill="white"/>
<path d="M263.76 204.594C265.704 204.444 267.722 205.042 269.666 205.789C271.61 206.536 276.021 209.076 277.068 209.673V209.748C275.124 209.076 274.825 208.926 272.881 208.03C270.937 207.134 268.993 206.237 267.05 205.565C265.928 205.191 264.881 204.967 263.76 204.818C263.76 204.743 263.685 204.594 263.76 204.594Z" fill="#263238"/>
<path d="M260.545 206.536C262.564 206.013 264.657 206.237 266.676 206.984V207.059C265.629 206.909 264.657 206.835 263.611 206.76C262.564 206.685 261.592 206.685 260.545 206.685C260.471 206.685 260.471 206.611 260.545 206.536Z" fill="#263238"/>
<path d="M262.639 212.288H205.446V214.827H262.639V212.288Z" fill="#C7C7C7"/>
<path d="M205.446 212.288V214.827H239.762L237.818 212.288H205.446Z" fill="#A6A6A6"/>
<path d="M231.313 214.827H175.541L170.906 177.031H226.678L231.313 214.827Z" fill="#A6A6A6"/>
<path d="M228.398 214.827H172.625L167.99 177.031H223.762L228.398 214.827Z" fill="#C7C7C7"/>
<path d="M201.558 195.929C201.558 197.796 200.063 199.29 198.194 199.29C196.325 199.29 194.755 197.796 194.755 195.929C194.755 194.062 196.25 192.568 198.119 192.568C199.988 192.493 201.558 194.062 201.558 195.929Z" fill="white"/>
<path d="M293.067 177.031C299.571 187.787 312.654 224.463 305.029 229.617C297.328 234.771 262.639 220.056 253.293 213.483C250.527 211.541 265.255 194.659 268.919 194.809C271.984 194.958 285.292 204.146 285.815 203.324C286.488 202.428 284.992 194.958 283.572 181.139C282.077 165.229 289.403 170.831 293.067 177.031Z" fill="#EB9481"/>
<path d="M254.938 186.069C247.761 183.753 245.518 184.276 240.509 179.122C237.22 175.761 233.631 176.359 235.052 181.139C237.369 188.833 245.967 193.763 249.481 194.584L254.938 186.069Z" fill="#EB9481"/>
<path d="M273.33 196.527C273.33 196.527 265.854 190.476 258.452 187.339C253.294 185.098 241.631 181.513 228.174 191.373C224.959 193.688 222.043 199.29 228.697 197.348C233.407 196.004 235.949 193.688 238.79 193.464C238.79 193.464 235.949 201.008 238.416 204.146C239.537 205.565 242.603 209.225 245.444 211.839C245.444 211.839 246.191 211.391 247.014 210.644C247.014 210.644 249.556 213.333 255.237 213.782L273.33 196.527Z" fill="#EB9481"/>
<path d="M253.144 185.994C250.378 186.891 244.472 188.908 240.21 192.194C235.5 195.854 227.426 204.146 230.117 207.656C232.136 210.196 235.5 207.283 235.5 207.283C235.5 207.283 232.884 211.391 235.201 213.333C237.295 215.051 239.762 212.661 239.762 212.661C239.762 212.661 238.64 215.425 240.958 216.695C243.799 218.189 245.743 212.138 249.929 211.167C250.976 210.868 253.144 185.994 253.144 185.994Z" fill="#EB9481"/>
<path d="M244.92 196.452C242.453 197.722 237.519 202.054 235.5 207.059C235.425 207.208 235.5 207.283 235.575 207.208C239.014 202.129 243.126 198.095 244.92 196.452C244.995 196.452 244.995 196.527 244.92 196.452Z" fill="#263238"/>
<path d="M248.509 201.382C246.49 202.726 241.631 207.358 239.762 212.512C239.687 212.661 239.762 212.736 239.836 212.586C243.201 207.208 246.789 203.1 248.509 201.382C248.509 201.307 248.584 201.382 248.509 201.382Z" fill="#263238"/>
<path d="M238.715 193.389C236.173 193.688 234.454 194.584 232.136 195.63C231.014 196.153 229.893 196.676 228.697 197.049C227.65 197.423 226.08 197.946 225.183 196.975C224.66 196.377 224.809 195.556 225.108 194.958C225.407 194.211 226.379 193.016 226.903 192.493C226.903 192.493 226.903 192.418 226.828 192.418C226.304 192.866 225.333 193.987 224.959 194.584C224.66 195.107 224.361 195.78 224.435 196.452C224.585 197.871 226.08 198.245 227.276 198.095C227.949 198.021 228.697 197.722 229.295 197.498C229.968 197.274 230.566 196.975 231.164 196.751C232.435 196.153 233.706 195.556 234.977 194.958C236.397 194.286 237.294 194.062 238.79 193.539C238.79 193.464 238.79 193.389 238.715 193.389Z" fill="#263238"/>
<path d="M232.285 200.934C233.108 199.664 237.519 194.584 238.79 193.464C238.79 193.464 238.79 193.389 238.715 193.389C236.547 194.809 232.734 198.992 231.762 200.411C230.79 201.755 229.669 203.548 229.37 205.191C228.921 207.731 230.491 208.478 231.089 208.702C231.762 209.001 232.585 208.926 233.257 208.702C234.08 208.478 234.902 207.806 235.5 207.208C235.5 207.208 235.5 207.134 235.425 207.134C234.379 207.955 232.809 208.702 231.463 208.254C230.865 208.105 230.342 207.731 230.043 207.134C229.744 206.461 229.818 205.714 229.968 205.042C230.491 203.623 231.388 202.204 232.285 200.934Z" fill="#263238"/>
<path d="M285.89 203.249C287.161 203.772 288.357 204.444 289.553 205.266C290.674 206.013 291.796 206.909 292.768 207.88C291.572 207.208 290.375 206.461 289.254 205.714C288.058 204.967 286.936 204.146 285.89 203.249Z" fill="#263238"/>
<path d="M303.833 196.601L283.273 193.912C283.273 193.912 282.451 187.04 282.526 178.002C282.6 168.964 286.862 167.246 293.889 177.18C300.917 187.115 303.833 196.601 303.833 196.601Z" fill="#FFC727"/>
<path d="M292.843 176.284C292.843 177.105 292.17 177.778 291.347 177.778C290.525 177.778 289.852 177.105 289.852 176.284C289.852 175.462 290.525 174.79 291.347 174.79C292.17 174.79 292.843 175.462 292.843 176.284ZM284.096 185.696C283.423 185.696 282.899 186.144 282.675 186.741C282.675 187.115 282.75 187.414 282.75 187.787C282.974 188.31 283.497 188.683 284.096 188.683C284.918 188.683 285.591 188.011 285.591 187.19C285.591 186.368 284.918 185.696 284.096 185.696ZM300.02 187.414C299.87 188.086 299.272 188.609 298.525 188.609C297.702 188.609 297.029 187.936 297.029 187.115C297.029 186.293 297.702 185.621 298.525 185.621C298.749 185.621 298.973 185.696 299.197 185.77L300.02 187.414Z" fill="white"/>
<path d="M283.647 190.85C285.217 190.85 286.712 191.148 288.282 191.298C289.778 191.447 291.198 191.597 292.693 191.821C295.758 192.194 298.749 192.717 301.739 193.24C301.814 193.24 301.814 193.315 301.739 193.315C298.749 193.016 295.684 192.717 292.693 192.269C291.198 192.045 289.703 191.821 288.208 191.597C286.712 191.373 285.142 191.223 283.572 190.924C283.572 190.999 283.647 190.85 283.647 190.85Z" fill="#263238"/>
<path d="M282.825 191.821C282.75 191.074 282.675 190.327 282.675 189.58C282.675 189.43 282.675 189.281 282.675 189.132C282.451 188.235 282.152 187.339 282.002 186.368C282.002 186.368 282.077 186.293 282.077 186.368C282.301 187.04 282.451 187.787 282.6 188.459C282.526 187.339 282.526 186.144 282.526 185.023C282.526 185.023 282.6 184.949 282.6 185.023C282.825 186.517 282.899 188.011 283.049 189.58C283.124 190.327 283.348 193.912 283.423 193.912C283.423 193.912 285.142 194.211 285.217 194.211C285.366 194.286 285.292 194.36 285.217 194.36C285.142 194.36 283.124 194.062 283.124 194.062C282.974 193.987 282.899 192.418 282.825 191.821Z" fill="#263238"/>
<path d="M81.1167 292.586C83.0606 293.782 143.618 307.6 146.309 306.629C147.281 306.256 149.748 306.181 152.514 295.574C153.112 293.259 191.764 274.809 191.764 274.809L151.692 256.881L113.563 278.021C113.563 278.021 87.9948 283.1 85.2286 284.444C82.3877 285.789 79.0982 291.391 81.1167 292.586Z" fill="#EB9481"/>
<path d="M81.1167 292.586C83.0606 293.782 143.618 307.6 146.309 306.629C147.281 306.256 149.748 306.181 152.514 295.574C152.664 294.977 155.953 293.184 160.663 290.943L120.89 273.912L113.563 278.021C113.563 278.021 87.9948 283.1 85.2286 284.444C82.3877 285.789 79.0982 291.391 81.1167 292.586Z" fill="#FFC727"/>
<path d="M157.673 291.018C156.851 291.242 156.028 291.541 155.281 291.914C154.533 292.288 153.785 292.736 153.113 293.259C154.01 293.035 154.757 292.736 155.505 292.362C156.253 291.989 157 291.541 157.673 291.018Z" fill="#263238"/>
<path d="M154.608 289.748C153.711 289.972 152.963 290.271 152.215 290.644C151.468 291.018 150.72 291.466 150.047 291.989C150.945 291.765 151.692 291.466 152.44 291.092C153.113 290.719 153.86 290.271 154.608 289.748Z" fill="#263238"/>
<path d="M151.468 288.478C150.645 288.702 149.823 289.001 149.075 289.374C148.328 289.748 147.58 290.196 146.907 290.719C147.804 290.495 148.552 290.196 149.3 289.823C149.972 289.449 150.795 289.076 151.468 288.478Z" fill="#263238"/>
<path d="M148.328 287.208C147.431 287.432 146.683 287.731 145.935 288.105C145.188 288.478 144.44 288.926 143.767 289.449C144.664 289.225 145.412 288.926 146.16 288.553C146.907 288.179 147.655 287.806 148.328 287.208Z" fill="#263238"/>
<path d="M145.188 285.938C144.365 286.162 143.543 286.461 142.795 286.835C142.048 287.208 141.3 287.656 140.627 288.179C141.524 287.955 142.272 287.656 143.02 287.283C143.767 286.909 144.515 286.536 145.188 285.938Z" fill="#263238"/>
<path d="M142.048 284.669C141.225 284.893 140.403 285.191 139.655 285.565C138.908 285.938 138.16 286.387 137.487 286.909C138.384 286.685 139.132 286.387 139.88 286.013C140.627 285.64 141.375 285.266 142.048 284.669Z" fill="#263238"/>
<path d="M138.908 283.473C138.011 283.697 137.263 283.996 136.515 284.37C135.768 284.743 135.02 285.191 134.347 285.714C135.244 285.49 135.992 285.191 136.74 284.818C137.487 284.444 138.235 283.996 138.908 283.473Z" fill="#263238"/>
<path d="M135.768 282.203C134.945 282.428 134.123 282.726 133.375 283.1C132.628 283.473 131.88 283.922 131.207 284.444C132.104 284.22 132.852 283.922 133.6 283.548C134.347 283.175 135.095 282.726 135.768 282.203Z" fill="#263238"/>
<path d="M132.628 280.934C131.805 281.158 130.983 281.457 130.235 281.83C129.488 282.204 128.74 282.652 128.067 283.175C128.965 282.951 129.712 282.652 130.46 282.278C131.207 281.905 131.955 281.457 132.628 280.934Z" fill="#263238"/>
<path d="M129.488 279.664C128.665 279.888 127.843 280.187 127.095 280.56C126.348 280.934 125.6 281.382 124.927 281.905C125.824 281.681 126.572 281.382 127.32 281.008C128.067 280.635 128.815 280.187 129.488 279.664Z" fill="#263238"/>
<path d="M126.423 278.394C125.525 278.618 124.778 278.917 124.03 279.29C123.283 279.664 122.535 280.112 121.862 280.635C122.759 280.411 123.507 280.112 124.254 279.739C124.927 279.365 125.675 278.917 126.423 278.394Z" fill="#263238"/>
<path d="M123.282 277.124C122.385 277.348 121.638 277.647 120.89 278.021C120.142 278.394 119.395 278.842 118.722 279.365C119.619 279.141 120.367 278.842 121.114 278.469C121.787 278.095 122.61 277.722 123.282 277.124Z" fill="#263238"/>
<path d="M120.143 275.854C119.245 276.078 118.498 276.377 117.75 276.751C117.003 277.124 116.255 277.572 115.582 278.095C116.479 277.871 117.227 277.572 117.974 277.199C118.722 276.825 119.47 276.452 120.143 275.854Z" fill="#263238"/>
<path d="M123.582 270.924L164.402 290.495L231.538 257.33C231.538 257.33 246.939 269.206 263.461 272.344C274.675 274.435 298.225 274.36 307.346 261.288C315.047 250.308 310.486 237.386 310.486 237.386L297.627 231.559C297.627 231.559 267.349 209.897 248.359 207.955C219.501 204.967 123.582 270.924 123.582 270.924Z" fill="#37474F"/>
<path d="M286.338 224.09C288.207 225.21 289.927 226.331 291.796 227.526C293.59 228.646 295.384 229.692 297.104 230.887C298.823 232.157 300.468 233.501 302.113 234.846C302.935 235.518 303.683 236.19 304.505 236.863C305.253 237.535 306.15 238.207 306.748 239.029C306.823 239.104 306.673 239.178 306.599 239.178C305.701 238.73 304.954 237.983 304.131 237.46C303.234 236.863 302.412 236.19 301.515 235.518C299.87 234.248 298.151 233.128 296.506 231.858C294.861 230.663 293.291 229.244 291.646 228.049C290.001 226.629 288.132 225.434 286.338 224.09C286.338 224.09 286.263 224.164 286.338 224.09Z" fill="#263238"/>
<path d="M231.613 257.404C232.136 257.778 236.323 260.915 242.453 264.351L259.499 243.063L231.613 257.404Z" fill="#263238"/>
<path d="M133.45 267.264C134.796 267.787 136.141 268.385 137.412 268.982C138.683 269.58 140.029 270.177 141.3 270.775C143.917 271.97 146.533 273.24 149.15 274.51C154.383 277.049 166.196 283.623 169.111 285.117C169.186 285.117 169.111 285.266 169.037 285.191C163.729 282.876 147.206 274.585 141.973 271.97C140.552 271.223 139.057 270.476 137.637 269.729C136.216 268.982 134.721 268.235 133.301 267.414C133.301 267.339 133.375 267.264 133.45 267.264Z" fill="#263238"/>
<path d="M155.056 250.458C156.178 249.561 179.877 235.294 185.036 232.381C190.12 229.468 195.278 226.704 200.512 224.015C205.745 221.326 210.978 218.861 216.361 216.545C221.669 214.23 227.052 212.138 232.584 210.345C233.257 210.121 234.005 209.897 234.678 209.673C234.753 209.673 234.753 209.748 234.678 209.748C231.912 210.719 229.145 211.839 226.454 212.96C223.763 214.08 221.071 215.201 218.454 216.396C213.146 218.786 207.913 221.326 202.754 223.94C197.596 226.555 192.512 229.393 187.428 232.232C182.344 235.145 177.335 238.058 172.326 241.12C169.784 242.614 155.879 250.308 155.206 250.607C155.056 250.682 154.907 250.532 155.056 250.458Z" fill="#263238"/>
<path d="M192.288 276.527C194.755 275.182 197.371 273.838 199.839 272.568C202.38 271.223 204.922 269.953 207.464 268.683C212.548 266.144 217.632 263.679 222.716 261.288C225.631 259.944 228.472 258.525 231.463 257.33C231.538 257.33 231.612 257.404 231.538 257.404C229.07 258.824 226.529 260.168 223.987 261.438C221.445 262.708 218.903 263.978 216.286 265.247C211.202 267.787 206.193 270.327 201.035 272.642C198.119 273.987 195.203 275.406 192.288 276.676C192.288 276.751 192.213 276.601 192.288 276.527Z" fill="#263238"/>
<path d="M283.647 170.458C283.647 171.503 280.432 178.749 275.946 179.57C274.526 179.795 272.732 171.951 272.732 171.951L272.433 171.429L268.769 163.735L278.115 154.323C278.189 154.248 283.572 170.009 283.647 170.458Z" fill="#EB9481"/>
<path d="M268.844 163.66L272.507 171.354C274.601 169.935 279.012 166.275 280.058 159.627C279.161 156.863 278.339 154.622 278.264 154.323V154.248L277.068 155.369L268.844 163.66Z" fill="#263238"/>
<path d="M280.956 158.357C281.255 158.73 281.404 159.178 281.479 159.626C281.927 161.718 280.806 163.66 279.535 165.229C278.115 166.872 276.246 168.291 275.498 170.308C275.199 171.13 275.049 172.026 275.348 172.848C275.722 173.744 276.545 174.267 277.367 174.641C278.264 175.014 279.46 175.238 279.984 176.134C280.432 176.881 280.357 177.852 279.984 178.674C279.161 180.691 276.769 181.587 275.274 183.007C273.629 184.575 272.582 186.592 272.134 188.758C271.685 190.775 271.984 192.941 272.732 194.883C273.106 195.854 273.629 196.751 274.227 197.498C274.975 198.394 275.797 199.141 276.545 199.963C277.217 200.784 277.89 201.83 277.741 202.876C277.666 203.697 275.647 206.162 271.909 207.134C271.61 207.208 271.76 207.656 272.059 207.731C272.657 207.806 273.18 207.806 273.778 207.806C278.563 207.806 283.049 205.49 285.815 201.606C287.31 199.514 288.207 197.124 288.506 194.584C288.656 193.165 288.731 191.746 289.179 190.401C289.553 189.206 290.226 188.161 291.123 187.264C292.768 185.546 294.861 184.276 296.207 182.26C297.403 180.467 298.076 178.375 298.3 176.209C298.749 171.727 297.104 167.32 293.964 164.108C291.048 161.046 280.881 158.133 280.956 158.357Z" fill="#263238"/>
<path d="M281.105 158.506C281.554 159.328 281.853 160.224 281.927 161.12C281.927 161.942 281.703 162.764 281.329 163.511C280.432 165.154 279.012 166.349 277.591 167.544C276.245 168.665 274.975 169.935 274.526 171.653C274.302 172.4 274.302 173.221 274.526 173.894C274.825 174.715 275.423 175.313 276.171 175.686C277.516 176.433 279.535 176.881 279.909 178.674C280.283 180.392 278.787 181.811 277.666 182.857C274.975 185.397 271.162 188.385 271.685 192.568C271.984 194.659 273.106 196.751 274.376 198.469C275.274 199.739 276.395 201.232 275.946 202.876C275.946 202.951 275.872 202.876 275.872 202.876C276.32 201.158 274.9 199.813 273.928 198.543C272.806 197.124 271.835 195.406 271.311 193.688C270.788 191.895 271.087 190.028 271.984 188.385C272.881 186.667 274.227 185.322 275.647 184.052C276.395 183.38 277.068 182.782 277.816 182.035C278.414 181.438 279.086 180.766 279.386 179.944C279.685 179.048 279.46 178.151 278.713 177.554C278.04 176.956 277.143 176.657 276.32 176.284C275.573 175.91 274.9 175.462 274.526 174.79C274.152 174.192 274.003 173.595 274.003 172.923C274.003 171.429 274.601 170.009 275.573 168.889C276.918 167.32 278.787 166.2 280.208 164.631C280.881 163.81 281.479 162.838 281.628 161.793C281.778 160.672 281.404 159.627 281.03 158.655C280.806 158.431 281.03 158.357 281.105 158.506Z" fill="#263238"/>
<path d="M296.057 164.407C299.197 167.619 300.095 172.474 298.898 176.732C298.225 179.122 296.88 181.214 295.235 183.007C293.665 184.65 291.796 186.218 290.6 188.161C289.254 190.401 289.404 192.941 289.179 195.406C288.955 197.423 288.357 199.29 287.385 201.083C285.441 204.444 282.152 206.909 278.414 207.88C277.965 208.03 277.442 208.105 276.993 208.179C276.918 208.179 276.918 208.105 276.993 208.105C280.806 207.507 284.245 205.042 286.338 201.83C287.385 200.261 288.133 198.469 288.432 196.601C288.805 194.286 288.581 191.895 289.254 189.654C289.927 187.563 291.497 185.92 293.067 184.351C294.786 182.708 296.431 181.064 297.478 178.898C299.422 174.939 299.422 170.009 296.88 166.274C294.039 162.091 289.03 160.448 284.32 159.477C283.722 159.328 283.049 159.253 282.451 159.104C282.376 159.104 282.376 158.954 282.451 158.954C287.235 159.701 292.469 160.822 296.057 164.407Z" fill="#263238"/>
<path d="M282.152 155.966C282.899 156.19 283.647 157.087 283.572 157.535C283.497 158.058 280.806 160.971 279.834 160.896C278.862 160.896 278.638 159.104 278.638 159.104L282.152 155.966Z" fill="#FFC727"/>
<path d="M253.817 154.995C255.91 169.86 265.031 170.233 268.246 169.785C271.162 169.337 281.03 167.619 280.432 152.605C279.909 137.591 272.283 133.931 265.629 134.528C258.901 135.126 251.649 140.131 253.817 154.995Z" fill="#EB9481"/>
<path d="M255.611 153.352C255.91 153.203 256.209 153.053 256.583 152.904C256.957 152.754 257.256 152.68 257.48 152.306C257.63 152.082 257.48 151.783 257.331 151.634C256.957 151.335 256.434 151.41 255.985 151.634C255.536 151.858 255.163 152.082 254.938 152.53C254.639 153.053 255.163 153.501 255.611 153.352Z" fill="#263238"/>
<path d="M265.629 151.41C265.255 151.41 264.956 151.41 264.582 151.41C264.209 151.41 263.835 151.41 263.536 151.186C263.386 151.036 263.311 150.738 263.386 150.514C263.611 150.065 264.134 149.991 264.582 149.916C265.106 149.916 265.48 149.991 265.928 150.364C266.302 150.738 266.078 151.335 265.629 151.41Z" fill="#263238"/>
<path d="M263.685 154.024C263.685 153.95 263.76 154.024 263.76 154.099C263.91 155.145 264.283 156.265 265.255 156.415V156.489C264.059 156.489 263.611 154.995 263.685 154.024Z" fill="#263238"/>
<path d="M264.358 152.754C265.928 152.306 266.676 155.518 265.181 155.966C263.76 156.34 263.013 153.128 264.358 152.754Z" fill="#263238"/>
<path d="M265.031 152.829C265.33 152.979 265.704 153.203 266.078 153.128C266.452 153.053 266.676 152.68 266.9 152.306C266.9 152.232 266.975 152.306 266.975 152.306C267.125 152.904 267.05 153.576 266.377 153.875C265.779 154.099 265.256 153.651 264.957 153.053C264.807 152.979 264.882 152.754 265.031 152.829Z" fill="#263238"/>
<path d="M258.153 154.995L258.078 155.07C258.377 156.041 258.452 157.236 257.63 157.759V157.834C258.751 157.46 258.527 155.892 258.153 154.995Z" fill="#263238"/>
<path d="M257.032 154.174C255.387 154.398 256.06 157.684 257.555 157.46C258.975 157.236 258.377 153.95 257.032 154.174Z" fill="#263238"/>
<path d="M256.359 154.547C256.134 154.771 255.91 155.145 255.611 155.219C255.237 155.294 254.938 154.995 254.639 154.697C254.639 154.697 254.564 154.697 254.564 154.771C254.639 155.369 255.013 155.966 255.611 155.966C256.209 155.966 256.434 155.369 256.508 154.697C256.583 154.622 256.433 154.472 256.359 154.547Z" fill="#263238"/>
<path d="M265.853 162.689C265.704 162.988 265.554 163.361 265.181 163.511C264.881 163.66 264.433 163.585 264.059 163.585C264.059 163.585 263.984 163.66 264.059 163.66C264.433 163.959 265.031 164.034 265.48 163.81C265.928 163.585 266.003 163.137 266.003 162.689C266.003 162.614 265.928 162.614 265.853 162.689Z" fill="#263238"/>
<path d="M260.77 159.925C260.77 159.925 260.919 161.494 261.069 162.166C261.069 162.241 261.293 162.241 261.517 162.166C262.788 162.092 263.985 161.419 264.508 160.224C264.508 160.149 264.433 160.075 264.358 160.149C263.611 161.046 262.564 161.419 261.517 161.718C261.443 161.569 261.368 159.104 261.293 159.104C260.919 159.178 260.172 159.552 259.798 159.776C259.424 156.564 259.648 153.352 259.275 150.215C259.275 150.065 259.125 150.14 259.05 150.215C258.602 153.576 258.901 157.236 259.2 160.523C259.2 160.971 260.546 160.075 260.77 159.925Z" fill="#263238"/>
<path d="M261.816 161.867C261.816 161.867 262.639 162.614 263.536 162.764C263.91 162.838 264.209 162.764 264.583 162.614C265.33 162.241 265.181 161.569 264.956 161.046C264.732 160.598 264.433 160.224 264.433 160.224C264.433 160.224 263.536 161.419 261.816 161.867Z" fill="#263238"/>
<path d="M263.611 162.689C263.985 162.764 264.284 162.689 264.657 162.54C265.405 162.166 265.256 161.494 265.031 160.971C264.209 161.195 263.461 161.942 263.611 162.689Z" fill="#FF98B9"/>
<path d="M280.955 153.576C278.563 154.398 276.021 148.571 276.021 148.571C276.021 148.571 271.087 149.916 267.573 143.343C267.573 143.343 268.62 146.629 271.386 148.571C271.386 148.571 262.489 150.065 256.807 143.791C256.807 143.791 259.274 147.078 260.994 147.974C260.994 147.974 257.106 147.974 254.49 145.509C254.49 145.509 254.116 150.065 253.294 151.559C253.294 151.559 248.359 135.948 263.91 134.08C263.91 134.08 273.928 131.541 279.012 137.591C284.095 143.791 280.955 153.576 280.955 153.576Z" fill="#263238"/>
<path d="M278.189 154.099C278.189 154.099 280.357 148.796 282.675 149.468C284.993 150.14 284.17 157.311 281.927 158.73C279.684 160.224 278.339 158.133 278.339 158.133L278.189 154.099Z" fill="#EB9481"/>
<path d="M282.376 151.485C282.451 151.485 282.451 151.559 282.376 151.485C280.881 152.605 280.357 154.398 280.058 156.19C280.432 155.443 281.03 154.921 282.002 155.369C282.077 155.369 282.002 155.443 282.002 155.443C281.255 155.443 280.806 155.668 280.432 156.34C280.208 156.788 280.058 157.386 279.909 157.908C279.834 158.058 279.535 158.058 279.61 157.908C279.61 157.908 279.61 157.908 279.61 157.834C279.161 155.668 280.133 152.232 282.376 151.485Z" fill="#263238"/>
<path d="M19.8867 212.736C16.4477 212.736 9.5696 210.047 10.691 207.806C11.8125 205.565 15.401 208.478 15.5505 208.553C15.4758 208.403 13.1582 203.922 15.1767 203.1C17.2701 202.278 19.2886 204.519 19.812 206.984C20.3353 204.519 22.3539 202.278 24.4472 203.1C26.4658 203.847 24.2229 208.403 24.0734 208.553C24.2229 208.478 27.8115 205.64 28.9329 207.806C30.2786 210.047 23.3258 212.736 19.8867 212.736Z" fill="#455A64"/>
<path d="M37.1566 231.186C37.0071 232.979 36.7081 234.921 36.2595 236.788C35.4371 240.448 34.0914 244.034 32.2224 246.424C32.2224 246.424 26.69 248.74 19.8866 248.74C13.0833 248.74 7.55093 246.424 7.55093 246.424C3.43902 241.345 2.01854 230.887 2.61664 225.509C3.66331 215.798 9.49473 212.064 14.5038 210.719C16.5224 210.196 18.4662 210.047 19.8866 210.047C24.8209 210.047 35.7362 211.839 37.2314 225.509C37.3809 227.003 37.3809 229.02 37.1566 231.186Z" fill="#FFC727"/>
<path d="M20.2606 209.972C20.4101 213.184 20.4849 216.396 20.5596 219.683C20.6344 222.895 20.6344 226.106 20.6344 229.393C20.6344 232.605 20.6344 235.817 20.4849 239.104C20.3353 242.316 20.3353 245.602 19.812 248.74L19.9615 247.544L20.0363 246.349C20.1111 245.528 20.1111 244.706 20.1111 243.959C20.1858 242.316 20.1858 240.747 20.1858 239.104C20.1858 235.892 20.2606 232.68 20.1858 229.393V219.683C20.1858 216.471 20.1858 213.184 20.2606 209.972Z" fill="white"/>
<path d="M18.1672 210.047C17.6439 211.615 17.3449 213.184 17.0458 214.753C16.7468 216.321 16.5225 217.89 16.2982 219.533C15.9244 222.745 15.7001 225.957 15.6253 229.169V231.559C15.6253 232.381 15.6253 233.203 15.7001 233.95C15.7001 235.593 15.8496 237.162 15.9244 238.805C15.9244 239.627 15.9991 240.374 16.0739 241.195L16.2982 243.585L16.8215 248.366C16.5225 246.797 16.2982 245.154 16.0739 243.585L15.7749 241.195C15.7001 240.374 15.5506 239.627 15.5506 238.805C15.401 237.162 15.3263 235.593 15.2515 233.95C15.2515 233.128 15.1768 232.306 15.1768 231.559V229.169C15.2515 225.957 15.4758 222.745 15.9244 219.533C16.3729 216.247 17.0458 213.109 18.1672 210.047Z" fill="white"/>
<path d="M15.3263 210.42C14.3544 211.69 13.532 213.184 12.8591 214.678C12.7096 215.051 12.5601 215.425 12.4106 215.798L11.962 216.994L11.7377 217.591C11.6629 217.815 11.6629 217.965 11.5882 218.189L11.2891 219.384C10.4667 222.596 10.1677 225.808 10.1677 229.094L10.2425 231.559L10.4667 234.024L10.6163 235.219C10.691 235.593 10.7658 236.041 10.8406 236.415L11.2891 238.805C11.3639 239.178 11.4387 239.627 11.5134 240L11.8125 241.195L12.4106 243.585L13.9058 248.291C13.3077 246.723 12.7844 245.154 12.261 243.66L11.5882 241.27L11.2891 240.075C11.2144 239.701 11.0648 239.253 10.9901 238.88L10.5415 236.415C10.4667 236.041 10.392 235.593 10.3172 235.219L10.1677 233.95L9.94341 231.485L9.86865 229.02C9.86865 225.733 10.1677 222.372 11.0648 219.16L11.4387 217.965C11.5134 217.74 11.5882 217.591 11.5882 217.367L11.8125 216.769L12.261 215.574C12.4106 215.201 12.6348 214.827 12.7844 214.454C13.4572 213.109 14.2796 211.69 15.3263 210.42Z" fill="white"/>
<path d="M13.3077 211.018C12.0367 212.064 10.9153 213.333 9.9434 214.753C8.97149 216.097 8.14911 217.591 7.55102 219.16C6.28007 222.222 5.68197 225.584 5.68197 228.87C5.68197 229.692 5.68197 230.514 5.75673 231.335C5.83149 232.157 5.90626 232.979 6.05578 233.8L6.28006 235.07L6.50435 236.265C6.57911 236.639 6.65387 237.087 6.8034 237.46L7.10245 238.656C7.32673 239.477 7.55102 240.224 7.85007 241.046L8.67245 243.436L9.56959 245.752L10.6163 248.067C9.04626 245.079 7.70054 242.017 6.8034 238.805C6.57911 237.983 6.35483 237.162 6.2053 236.34L5.90626 235.07L5.60721 233.8C5.45768 232.979 5.38292 232.157 5.30816 231.261C5.30816 230.439 5.2334 229.543 5.2334 228.721C5.2334 225.36 5.90626 221.998 7.25197 218.861C7.92483 217.292 8.74721 215.873 9.79388 214.529C10.3172 213.856 10.8405 213.184 11.4386 212.586C11.962 212.064 12.6348 211.466 13.3077 211.018Z" fill="white"/>
<path d="M22.2043 210.047C23.3258 213.109 23.9986 216.247 24.4472 219.459C24.8958 222.67 25.1201 225.882 25.1948 229.094V231.485C25.1948 232.306 25.1201 233.128 25.1201 233.875C25.1201 235.518 24.9705 237.087 24.821 238.73C24.7463 239.552 24.6715 240.374 24.5967 241.121L24.2977 243.511C24.0734 245.079 23.7743 246.723 23.5501 248.291L24.0734 243.511L24.2977 241.121C24.3724 240.299 24.4472 239.552 24.4472 238.73C24.522 237.087 24.6715 235.518 24.6715 233.875C24.6715 233.053 24.7462 232.232 24.7462 231.485V229.094C24.6715 225.882 24.4472 222.67 24.0734 219.459C23.8491 217.89 23.6248 216.247 23.3258 214.678C23.1015 213.184 22.7277 211.615 22.2043 210.047Z" fill="white"/>
<path d="M25.0454 210.495C26.1668 211.765 26.9892 213.184 27.6621 214.678C27.8116 215.051 28.0359 215.425 28.1854 215.798L28.634 216.994L28.8583 217.591C28.933 217.815 29.0078 217.965 29.0078 218.189L29.3816 219.384C30.2787 222.596 30.5778 225.882 30.5778 229.244L30.503 231.709L30.2787 234.174L30.1292 235.444C30.0545 235.817 29.9797 236.265 29.9049 236.639L29.4564 239.104C29.3816 239.477 29.3068 239.925 29.1573 240.299L28.8583 241.494L28.1854 243.884C27.6621 245.453 27.064 247.022 26.5406 248.515L28.0359 243.81L28.634 241.419L28.933 240.224C29.0078 239.851 29.1573 239.403 29.1573 239.029L29.6059 236.639C29.6806 236.265 29.7554 235.817 29.8302 235.444L29.9797 234.248L30.204 231.783L30.2787 229.318C30.2787 226.032 29.9797 222.745 29.1573 219.608L28.8583 218.413C28.7835 218.189 28.7835 218.039 28.7087 217.815L28.4845 217.218L28.0359 216.022C27.8864 215.649 27.7368 215.276 27.5873 214.902C26.8397 213.259 26.0173 211.765 25.0454 210.495Z" fill="white"/>
<path d="M27.064 211.018C27.7368 211.541 28.3349 212.064 28.933 212.661C29.5311 213.259 30.0544 213.931 30.5778 214.603C31.5497 215.948 32.4468 217.442 33.1197 218.936C34.4654 221.998 35.1383 225.434 35.1383 228.796C35.1383 229.617 35.0635 230.514 35.0635 231.335C34.9887 232.157 34.914 232.979 34.7644 233.875L34.5402 235.145L34.2411 236.415C34.0916 237.236 33.7925 238.058 33.643 238.88C32.7459 242.092 31.4002 245.229 29.8302 248.142L30.8768 245.826L31.774 243.511L32.5963 241.121C32.8206 240.299 33.1197 239.552 33.344 238.73L33.643 237.535C33.7178 237.162 33.8673 236.713 33.9421 236.34L34.1663 235.145L34.3906 233.875C34.5402 233.053 34.5402 232.232 34.6897 231.41C34.6897 230.588 34.7644 229.767 34.7644 228.945C34.7644 225.658 34.1663 222.297 32.8954 219.234C32.2973 217.666 31.4749 216.247 30.503 214.827C29.4563 213.408 28.3349 212.064 27.064 211.018Z" fill="white"/>
<path d="M19.0642 221.55C19.5875 222.222 20.0361 222.969 20.4847 223.716H20.2604C20.4847 223.268 20.7837 222.82 21.008 222.446C21.1575 222.222 21.3071 221.998 21.3818 221.849C21.5314 221.625 21.6809 221.401 21.8304 221.251C21.7556 221.475 21.6061 221.699 21.5314 221.923C21.4566 222.148 21.3071 222.372 21.2323 222.596C21.008 223.044 20.7837 223.492 20.4847 223.94L20.3352 224.164L20.1856 223.94C19.8118 223.044 19.438 222.297 19.0642 221.55Z" fill="white"/>
<path d="M20.2603 220.43C20.4098 220.952 20.4098 221.55 20.4846 222.073C20.4846 222.596 20.4846 223.193 20.4098 223.716C20.2603 223.193 20.2603 222.596 20.1855 222.073C20.1855 221.55 20.1855 220.952 20.2603 220.43Z" fill="white"/>
<path d="M30.2786 210.121C30.3534 211.018 30.3534 211.839 30.2786 212.736L30.0543 212.586C30.5029 212.362 30.9515 212.138 31.4 211.914C31.6243 211.839 31.8486 211.69 32.0729 211.615C32.2972 211.541 32.5214 211.391 32.7457 211.317C32.5214 211.466 32.2972 211.615 32.1476 211.765C31.9234 211.914 31.6991 211.989 31.4748 212.138C31.0262 212.362 30.5776 212.586 30.1291 212.885L29.9048 213.035V212.81C30.0543 211.765 30.1291 210.943 30.2786 210.121Z" fill="white"/>
<path d="M31.8487 209.823C31.6992 210.346 31.4001 210.868 31.1011 211.317C30.802 211.765 30.503 212.288 30.1292 212.661C30.2787 212.138 30.5777 211.615 30.8768 211.167C31.1758 210.644 31.4749 210.196 31.8487 209.823Z" fill="white"/>
<path d="M27.5872 217.815C28.0357 218.562 28.4095 219.309 28.7833 220.131H28.5591C28.8581 219.757 29.1572 219.309 29.4562 218.936C29.6057 218.712 29.7553 218.562 29.9048 218.338C30.0543 218.189 30.2038 217.965 30.4281 217.815C30.2786 218.039 30.2038 218.263 30.0543 218.487C29.9048 218.712 29.7553 218.936 29.6805 219.085C29.3814 219.533 29.0824 219.907 28.7833 220.28L28.6338 220.504L28.5591 220.28C28.1853 219.459 27.8114 218.637 27.5872 217.815Z" fill="white"/>
<path d="M28.9328 216.844C29.0075 217.442 29.0075 217.965 28.9328 218.487C28.858 219.01 28.7832 219.608 28.6337 220.131C28.5589 219.533 28.5589 219.01 28.6337 218.487C28.6337 217.965 28.7085 217.367 28.9328 216.844Z" fill="white"/>
<path d="M22.7275 243.287C23.2509 243.959 23.6994 244.706 24.148 245.453H23.9237C24.148 245.005 24.4471 244.557 24.6713 244.183C24.8209 243.959 24.9704 243.735 25.0452 243.585C25.1947 243.361 25.3442 243.137 25.4937 242.988C25.419 243.212 25.2694 243.436 25.1947 243.66C25.1199 243.884 24.9704 244.108 24.8956 244.332C24.6713 244.781 24.4471 245.229 24.148 245.677L23.9985 245.901L23.849 245.677C23.4752 244.855 23.1013 244.108 22.7275 243.287Z" fill="white"/>
<path d="M23.9236 242.166C24.0732 242.689 24.0732 243.287 24.1479 243.81C24.1479 244.332 24.1479 244.93 24.0732 245.453C23.9236 244.93 23.9236 244.332 23.8489 243.81C23.8489 243.287 23.8489 242.764 23.9236 242.166Z" fill="white"/>
<path d="M11.3638 213.931C11.6628 214.753 11.8871 215.574 12.1114 216.396L11.8871 216.321C12.2609 215.948 12.6347 215.649 13.0085 215.275C13.2328 215.126 13.3823 214.977 13.6066 214.827C13.8309 214.678 13.9804 214.528 14.2047 214.379C14.0552 214.603 13.9057 214.753 13.6814 214.977C13.5319 215.126 13.3076 215.35 13.1581 215.5C12.7842 215.873 12.4852 216.172 12.1114 216.545L11.8871 216.695L11.8123 216.471C11.6628 215.574 11.4385 214.753 11.3638 213.931Z" fill="white"/>
<path d="M12.8591 213.184C12.8591 213.782 12.7095 214.304 12.56 214.827C12.4105 215.35 12.261 215.873 11.9619 216.396C11.9619 215.798 12.1114 215.275 12.261 214.753C12.4105 214.23 12.56 213.707 12.8591 213.184Z" fill="white"/>
<path d="M37.9042 223.193C37.9042 224.09 37.7547 224.911 37.6052 225.733L37.3809 225.584C37.8295 225.434 38.3528 225.21 38.8014 225.061C39.0257 224.986 39.25 224.911 39.549 224.837C39.7733 224.762 39.9976 224.687 40.2966 224.613C40.0723 224.762 39.8481 224.837 39.6238 224.986C39.3995 225.061 39.1752 225.21 38.9509 225.285C38.5023 225.509 38.0538 225.658 37.5304 225.808L37.3062 225.882L37.3809 225.658C37.5304 224.837 37.68 224.015 37.9042 223.193Z" fill="white"/>
<path d="M39.5491 223.119C39.3248 223.642 38.951 224.09 38.6519 224.538C38.2781 224.986 37.9791 225.434 37.5305 225.733C37.7548 225.21 38.1286 224.762 38.4277 224.314C38.7267 223.866 39.1005 223.417 39.5491 223.119Z" fill="white"/>
<path d="M14.1299 232.68C14.6532 233.352 15.1018 234.099 15.5504 234.846H15.3261C15.5504 234.398 15.8494 233.95 16.0737 233.576C16.2232 233.352 16.3727 233.128 16.4475 232.979C16.597 232.754 16.7466 232.53 16.8961 232.381C16.8213 232.605 16.6718 232.829 16.597 233.053C16.5223 233.277 16.3727 233.501 16.298 233.726C16.0737 234.174 15.8494 234.622 15.6251 235.07L15.4756 235.294L15.3261 235.07C14.9523 234.248 14.5037 233.501 14.1299 232.68Z" fill="white"/>
<path d="M15.326 231.559C15.4755 232.082 15.5503 232.68 15.5503 233.203C15.5503 233.726 15.5503 234.323 15.4755 234.846C15.326 234.323 15.2512 233.726 15.2512 233.203C15.2512 232.68 15.2512 232.157 15.326 231.559Z" fill="white"/>
<path d="M5.2334 238.431C5.98102 238.88 6.65387 239.328 7.40149 239.851L7.17721 239.925C7.25197 239.402 7.32673 238.954 7.40149 238.431C7.47626 238.207 7.47626 237.909 7.55102 237.684C7.62578 237.46 7.62578 237.162 7.70054 236.938C7.70054 237.162 7.70054 237.46 7.70054 237.684C7.70054 237.909 7.70054 238.207 7.62578 238.431C7.55102 238.954 7.55102 239.402 7.47626 239.925V240.149L7.25197 240C6.50435 239.552 5.83149 239.029 5.2334 238.431Z" fill="white"/>
<path d="M5.90625 236.938C6.28006 237.386 6.50434 237.909 6.72863 238.431C6.95292 238.954 7.1772 239.477 7.25196 240C6.87815 239.552 6.65387 239.029 6.42958 238.506C6.2053 237.983 6.05577 237.46 5.90625 236.938Z" fill="white"/>
<path d="M2.99048 215.724C3.81286 216.022 4.56048 216.396 5.38286 216.769L5.15857 216.919C5.15857 216.396 5.08381 215.948 5.08381 215.425C5.08381 215.201 5.08381 214.902 5.08381 214.678C5.08381 214.454 5.08381 214.155 5.08381 213.931C5.15857 214.155 5.15857 214.454 5.23334 214.678C5.23334 214.902 5.3081 215.201 5.3081 215.425C5.38286 215.948 5.38286 216.396 5.45762 216.919V217.143L5.23334 216.993C4.48572 216.62 3.7381 216.246 2.99048 215.724Z" fill="white"/>
<path d="M3.36426 214.155C3.81283 214.529 4.11188 214.977 4.48569 215.425C4.78473 215.873 5.08378 216.321 5.30807 216.844C4.8595 216.471 4.56045 216.022 4.18664 215.574C3.96235 215.126 3.66331 214.678 3.36426 214.155Z" fill="white"/>
<path d="M33.4934 232.082C33.942 232.829 34.3158 233.576 34.6896 234.398H34.4653C34.7644 234.024 35.0634 233.576 35.3625 233.203C35.512 232.979 35.6615 232.829 35.811 232.605C35.9606 232.381 36.1101 232.232 36.3344 232.008C36.1848 232.232 36.1101 232.456 35.9606 232.68C35.811 232.904 35.7363 233.128 35.5867 233.352C35.2877 233.8 35.0634 234.174 34.7644 234.622L34.6148 234.846L34.5401 234.622C34.0915 233.726 33.7177 232.904 33.4934 232.082Z" fill="white"/>
<path d="M34.7643 231.111C34.8391 231.709 34.8391 232.232 34.8391 232.754C34.7643 233.277 34.7643 233.875 34.6148 234.398C34.54 233.8 34.54 233.277 34.54 232.754C34.54 232.232 34.6148 231.634 34.7643 231.111Z" fill="white"/>
<path d="M5.38281 246.573H34.6895L31.7738 271.148H8.29853L5.38281 246.573Z" fill="#455A64"/>
<path d="M5.38281 246.573L6.05567 252.101L34.2409 250.756L34.6895 246.573H5.38281Z" fill="#263238"/>
<path d="M36.5584 243.511H3.51367V247.918H36.5584V243.511Z" fill="#455A64"/>
<rect x="48" y="39" width="56" height="56" fill="white"/>
<path d="M75.739 59.8698C74.978 59.8698 74.2593 59.9612 73.5829 60.144C72.9065 60.3269 72.1561 60.6214 71.3317 61.0277L70 57.5845C70.8244 57.0766 71.7967 56.6907 72.9171 56.4266C74.0374 56.1422 75.1366 56 76.2146 56C77.5675 56 78.6772 56.1727 79.5439 56.518C80.4317 56.8633 81.1293 57.3001 81.6366 57.8283C82.1439 58.3564 82.4927 58.9354 82.6829 59.5651C82.8943 60.1948 83 60.7941 83 61.3629C83 61.9317 82.9049 62.4598 82.7146 62.9474C82.5455 63.4146 82.3236 63.8513 82.0488 64.2576C81.774 64.6639 81.4569 65.0499 81.0976 65.4155C80.7382 65.7812 80.3894 66.1265 80.0512 66.4515C79.7976 66.6953 79.5333 66.9594 79.2585 67.2438C78.9837 67.5078 78.7301 67.7922 78.4976 68.097C78.2862 68.4017 78.1065 68.7267 77.9585 69.072C77.8106 69.397 77.7366 69.7322 77.7366 70.0776C77.7366 70.1588 77.7366 70.2807 77.7366 70.4432C77.7366 70.6057 77.7472 70.7479 77.7683 70.8698H73.5829C73.5407 70.6667 73.5089 70.4432 73.4878 70.1994C73.4878 69.9354 73.4878 69.7119 73.4878 69.5291C73.4878 68.9603 73.5618 68.4524 73.7098 68.0055C73.8577 67.5383 74.048 67.1117 74.2805 66.7258C74.5341 66.3195 74.8195 65.9437 75.1366 65.5983C75.4537 65.253 75.7813 64.9178 76.1195 64.5928C76.6057 64.1256 77.0496 63.6685 77.4512 63.2216C77.8528 62.7544 78.0537 62.2262 78.0537 61.6371C78.0537 61.1496 77.8528 60.7331 77.4512 60.3878C77.0707 60.0425 76.5 59.8698 75.739 59.8698ZM78.6878 75.1967C78.6878 76.0905 78.3813 76.7812 77.7683 77.2687C77.1764 77.7562 76.5 78 75.739 78C74.978 78 74.2911 77.7562 73.678 77.2687C73.0862 76.7812 72.7902 76.0905 72.7902 75.1967C72.7902 74.3029 73.0862 73.6122 73.678 73.1247C74.2911 72.6371 74.978 72.3934 75.739 72.3934C76.5 72.3934 77.1764 72.6371 77.7683 73.1247C78.3813 73.6122 78.6878 74.3029 78.6878 75.1967Z" fill="#FFD96A"/>
<g opacity="0.5">
<rect x="108" y="42" width="50" height="50" fill="white"/>
<path d="M132.767 60.6337C132.088 60.6337 131.446 60.7154 130.842 60.8786C130.238 61.0418 129.568 61.3048 128.832 61.6676L127.643 58.5933C128.379 58.1398 129.247 57.7952 130.247 57.5594C131.248 57.3055 132.229 57.1786 133.192 57.1786C134.4 57.1786 135.39 57.3327 136.164 57.6411C136.957 57.9494 137.58 58.3394 138.033 58.8109C138.486 59.2825 138.797 59.7994 138.967 60.3617C139.156 60.9239 139.25 61.459 139.25 61.9668C139.25 62.4747 139.165 62.9463 138.995 63.3816C138.844 63.7987 138.646 64.1887 138.401 64.5514C138.155 64.9142 137.872 65.2588 137.551 65.5853C137.231 65.9117 136.919 66.2201 136.617 66.5103C136.391 66.7279 136.155 66.9637 135.909 67.2176C135.664 67.4534 135.438 67.7073 135.23 67.9794C135.041 68.2515 134.881 68.5417 134.749 68.85C134.617 69.1402 134.55 69.4395 134.55 69.7478C134.55 69.8204 134.55 69.9292 134.55 70.0743C134.55 70.2194 134.56 70.3463 134.579 70.4552H130.842C130.804 70.2738 130.776 70.0743 130.757 69.8566C130.757 69.6208 130.757 69.4213 130.757 69.2581C130.757 68.7503 130.823 68.2968 130.955 67.8978C131.087 67.4806 131.257 67.0997 131.465 66.7551C131.691 66.3924 131.946 66.0568 132.229 65.7485C132.512 65.4402 132.805 65.1409 133.107 64.8507C133.541 64.4335 133.937 64.0254 134.296 63.6264C134.654 63.2093 134.834 62.7377 134.834 62.2117C134.834 61.7764 134.654 61.4046 134.296 61.0962C133.956 60.7879 133.446 60.6337 132.767 60.6337ZM135.4 74.3184C135.4 75.1165 135.126 75.7332 134.579 76.1685C134.05 76.6038 133.446 76.8214 132.767 76.8214C132.088 76.8214 131.474 76.6038 130.927 76.1685C130.398 75.7332 130.134 75.1165 130.134 74.3184C130.134 73.5204 130.398 72.9037 130.927 72.4684C131.474 72.0331 132.088 71.8155 132.767 71.8155C133.446 71.8155 134.05 72.0331 134.579 72.4684C135.126 72.9037 135.4 73.5204 135.4 74.3184Z" fill="#FFD96A"/>
</g>
<g opacity="0.5">
<rect x="108" y="102" width="50" height="50" fill="white"/>
<path d="M132.767 120.634C132.088 120.634 131.446 120.715 130.842 120.879C130.238 121.042 129.568 121.305 128.832 121.668L127.643 118.593C128.379 118.14 129.247 117.795 130.247 117.559C131.248 117.306 132.229 117.179 133.192 117.179C134.4 117.179 135.39 117.333 136.164 117.641C136.957 117.949 137.58 118.339 138.033 118.811C138.486 119.283 138.797 119.799 138.967 120.362C139.156 120.924 139.25 121.459 139.25 121.967C139.25 122.475 139.165 122.946 138.995 123.382C138.844 123.799 138.646 124.189 138.401 124.551C138.155 124.914 137.872 125.259 137.551 125.585C137.231 125.912 136.919 126.22 136.617 126.51C136.391 126.728 136.155 126.964 135.909 127.218C135.664 127.453 135.438 127.707 135.23 127.979C135.041 128.251 134.881 128.542 134.749 128.85C134.617 129.14 134.55 129.439 134.55 129.748C134.55 129.82 134.55 129.929 134.55 130.074C134.55 130.219 134.56 130.346 134.579 130.455H130.842C130.804 130.274 130.776 130.074 130.757 129.857C130.757 129.621 130.757 129.421 130.757 129.258C130.757 128.75 130.823 128.297 130.955 127.898C131.087 127.481 131.257 127.1 131.465 126.755C131.691 126.392 131.946 126.057 132.229 125.749C132.512 125.44 132.805 125.141 133.107 124.851C133.541 124.434 133.937 124.025 134.296 123.626C134.654 123.209 134.834 122.738 134.834 122.212C134.834 121.776 134.654 121.405 134.296 121.096C133.956 120.788 133.446 120.634 132.767 120.634ZM135.4 134.318C135.4 135.116 135.126 135.733 134.579 136.168C134.05 136.604 133.446 136.821 132.767 136.821C132.088 136.821 131.474 136.604 130.927 136.168C130.398 135.733 130.134 135.116 130.134 134.318C130.134 133.52 130.398 132.904 130.927 132.468C131.474 132.033 132.088 131.815 132.767 131.815C133.446 131.815 134.05 132.033 134.579 132.468C135.126 132.904 135.4 133.52 135.4 134.318Z" fill="#FFD96A"/>
</g>
<g opacity="0.5">
<rect x="51" y="102" width="50" height="50" fill="white"/>
<path d="M75.767 120.634C75.0875 120.634 74.4458 120.715 73.8419 120.879C73.2379 121.042 72.5679 121.305 71.8318 121.668L70.6428 118.593C71.3789 118.14 72.2471 117.795 73.2474 117.559C74.2476 117.306 75.2291 117.179 76.1916 117.179C77.3995 117.179 78.3904 117.333 79.1642 117.641C79.9568 117.949 80.5797 118.339 81.0326 118.811C81.4856 119.283 81.797 119.799 81.9669 120.362C82.1556 120.924 82.25 121.459 82.25 121.967C82.25 122.475 82.165 122.946 81.9952 123.382C81.8442 123.799 81.646 124.189 81.4007 124.551C81.1553 124.914 80.8722 125.259 80.5514 125.585C80.2305 125.912 79.9191 126.22 79.6171 126.51C79.3906 126.728 79.1547 126.964 78.9094 127.218C78.664 127.453 78.4375 127.707 78.2299 127.979C78.0412 128.251 77.8808 128.542 77.7487 128.85C77.6165 129.14 77.5505 129.439 77.5505 129.748C77.5505 129.82 77.5505 129.929 77.5505 130.074C77.5505 130.219 77.5599 130.346 77.5788 130.455H73.8419C73.8041 130.274 73.7758 130.074 73.7569 129.857C73.7569 129.621 73.7569 129.421 73.7569 129.258C73.7569 128.75 73.823 128.297 73.9551 127.898C74.0872 127.481 74.2571 127.1 74.4647 126.755C74.6912 126.392 74.946 126.057 75.2291 125.749C75.5122 125.44 75.8047 125.141 76.1067 124.851C76.5408 124.434 76.9371 124.025 77.2957 123.626C77.6543 123.209 77.8336 122.738 77.8336 122.212C77.8336 121.776 77.6543 121.405 77.2957 121.096C76.956 120.788 76.4464 120.634 75.767 120.634ZM78.3998 134.318C78.3998 135.116 78.1261 135.733 77.5788 136.168C77.0503 136.604 76.4464 136.821 75.767 136.821C75.0875 136.821 74.4741 136.604 73.9268 136.168C73.3983 135.733 73.1341 135.116 73.1341 134.318C73.1341 133.52 73.3983 132.904 73.9268 132.468C74.4741 132.033 75.0875 131.815 75.767 131.815C76.4464 131.815 77.0503 132.033 77.5788 132.468C78.1261 132.904 78.3998 133.52 78.3998 134.318Z" fill="#FFD96A"/>
</g>
<g opacity="0.5">
<rect x="164" y="42" width="50" height="50" fill="white"/>
<path d="M188.767 60.6337C188.088 60.6337 187.446 60.7154 186.842 60.8786C186.238 61.0418 185.568 61.3048 184.832 61.6676L183.643 58.5933C184.379 58.1398 185.247 57.7952 186.247 57.5594C187.248 57.3055 188.229 57.1786 189.192 57.1786C190.4 57.1786 191.39 57.3327 192.164 57.6411C192.957 57.9494 193.58 58.3394 194.033 58.8109C194.486 59.2825 194.797 59.7994 194.967 60.3617C195.156 60.9239 195.25 61.459 195.25 61.9668C195.25 62.4747 195.165 62.9463 194.995 63.3816C194.844 63.7987 194.646 64.1887 194.401 64.5514C194.155 64.9142 193.872 65.2588 193.551 65.5853C193.231 65.9117 192.919 66.2201 192.617 66.5103C192.391 66.7279 192.155 66.9637 191.909 67.2176C191.664 67.4534 191.438 67.7073 191.23 67.9794C191.041 68.2515 190.881 68.5417 190.749 68.85C190.617 69.1402 190.55 69.4395 190.55 69.7478C190.55 69.8204 190.55 69.9292 190.55 70.0743C190.55 70.2194 190.56 70.3463 190.579 70.4552H186.842C186.804 70.2738 186.776 70.0743 186.757 69.8566C186.757 69.6208 186.757 69.4213 186.757 69.2581C186.757 68.7503 186.823 68.2968 186.955 67.8978C187.087 67.4806 187.257 67.0997 187.465 66.7551C187.691 66.3924 187.946 66.0568 188.229 65.7485C188.512 65.4402 188.805 65.1409 189.107 64.8507C189.541 64.4335 189.937 64.0254 190.296 63.6264C190.654 63.2093 190.834 62.7377 190.834 62.2117C190.834 61.7764 190.654 61.4046 190.296 61.0962C189.956 60.7879 189.446 60.6337 188.767 60.6337ZM191.4 74.3184C191.4 75.1165 191.126 75.7332 190.579 76.1685C190.05 76.6038 189.446 76.8214 188.767 76.8214C188.088 76.8214 187.474 76.6038 186.927 76.1685C186.398 75.7332 186.134 75.1165 186.134 74.3184C186.134 73.5204 186.398 72.9037 186.927 72.4684C187.474 72.0331 188.088 71.8155 188.767 71.8155C189.446 71.8155 190.05 72.0331 190.579 72.4684C191.126 72.9037 191.4 73.5204 191.4 74.3184Z" fill="#FFD96A"/>
</g>
<g opacity="0.5">
<rect x="164" y="102" width="50" height="50" fill="white"/>
<path d="M188.767 120.634C188.088 120.634 187.446 120.715 186.842 120.879C186.238 121.042 185.568 121.305 184.832 121.668L183.643 118.593C184.379 118.14 185.247 117.795 186.247 117.559C187.248 117.306 188.229 117.179 189.192 117.179C190.4 117.179 191.39 117.333 192.164 117.641C192.957 117.949 193.58 118.339 194.033 118.811C194.486 119.283 194.797 119.799 194.967 120.362C195.156 120.924 195.25 121.459 195.25 121.967C195.25 122.475 195.165 122.946 194.995 123.382C194.844 123.799 194.646 124.189 194.401 124.551C194.155 124.914 193.872 125.259 193.551 125.585C193.231 125.912 192.919 126.22 192.617 126.51C192.391 126.728 192.155 126.964 191.909 127.218C191.664 127.453 191.438 127.707 191.23 127.979C191.041 128.251 190.881 128.542 190.749 128.85C190.617 129.14 190.55 129.439 190.55 129.748C190.55 129.82 190.55 129.929 190.55 130.074C190.55 130.219 190.56 130.346 190.579 130.455H186.842C186.804 130.274 186.776 130.074 186.757 129.857C186.757 129.621 186.757 129.421 186.757 129.258C186.757 128.75 186.823 128.297 186.955 127.898C187.087 127.481 187.257 127.1 187.465 126.755C187.691 126.392 187.946 126.057 188.229 125.749C188.512 125.44 188.805 125.141 189.107 124.851C189.541 124.434 189.937 124.025 190.296 123.626C190.654 123.209 190.834 122.738 190.834 122.212C190.834 121.776 190.654 121.405 190.296 121.096C189.956 120.788 189.446 120.634 188.767 120.634ZM191.4 134.318C191.4 135.116 191.126 135.733 190.579 136.168C190.05 136.604 189.446 136.821 188.767 136.821C188.088 136.821 187.474 136.604 186.927 136.168C186.398 135.733 186.134 135.116 186.134 134.318C186.134 133.52 186.398 132.904 186.927 132.468C187.474 132.033 188.088 131.815 188.767 131.815C189.446 131.815 190.05 132.033 190.579 132.468C191.126 132.904 191.4 133.52 191.4 134.318Z" fill="#FFD96A"/>
</g>
<g opacity="0.5">
<rect x="220" y="42" width="50" height="50" fill="white"/>
<path d="M244.767 60.6337C244.088 60.6337 243.446 60.7154 242.842 60.8786C242.238 61.0418 241.568 61.3048 240.832 61.6676L239.643 58.5933C240.379 58.1398 241.247 57.7952 242.247 57.5594C243.248 57.3055 244.229 57.1786 245.192 57.1786C246.4 57.1786 247.39 57.3327 248.164 57.6411C248.957 57.9494 249.58 58.3394 250.033 58.8109C250.486 59.2825 250.797 59.7994 250.967 60.3617C251.156 60.9239 251.25 61.459 251.25 61.9668C251.25 62.4747 251.165 62.9463 250.995 63.3816C250.844 63.7987 250.646 64.1887 250.401 64.5514C250.155 64.9142 249.872 65.2588 249.551 65.5853C249.231 65.9117 248.919 66.2201 248.617 66.5103C248.391 66.7279 248.155 66.9637 247.909 67.2176C247.664 67.4534 247.438 67.7073 247.23 67.9794C247.041 68.2515 246.881 68.5417 246.749 68.85C246.617 69.1402 246.55 69.4395 246.55 69.7478C246.55 69.8204 246.55 69.9292 246.55 70.0743C246.55 70.2194 246.56 70.3463 246.579 70.4552H242.842C242.804 70.2738 242.776 70.0743 242.757 69.8566C242.757 69.6208 242.757 69.4213 242.757 69.2581C242.757 68.7503 242.823 68.2968 242.955 67.8978C243.087 67.4806 243.257 67.0997 243.465 66.7551C243.691 66.3924 243.946 66.0568 244.229 65.7485C244.512 65.4402 244.805 65.1409 245.107 64.8507C245.541 64.4335 245.937 64.0254 246.296 63.6264C246.654 63.2093 246.834 62.7377 246.834 62.2117C246.834 61.7764 246.654 61.4046 246.296 61.0962C245.956 60.7879 245.446 60.6337 244.767 60.6337ZM247.4 74.3184C247.4 75.1165 247.126 75.7332 246.579 76.1685C246.05 76.6038 245.446 76.8214 244.767 76.8214C244.088 76.8214 243.474 76.6038 242.927 76.1685C242.398 75.7332 242.134 75.1165 242.134 74.3184C242.134 73.5204 242.398 72.9037 242.927 72.4684C243.474 72.0331 244.088 71.8155 244.767 71.8155C245.446 71.8155 246.05 72.0331 246.579 72.4684C247.126 72.9037 247.4 73.5204 247.4 74.3184Z" fill="#FFD96A"/>
</g>
</g>
<defs>
<clipPath id="clip0_2_123">
<rect width="314" height="320" fill="white"/>
</clipPath>
</defs>
</svg>
